ChauncyItalic_WeightMin.ufo
<glyph name="numbersign" format="1">
  <advance width="598"/>
  <unicode hex="0023"/>
  <outline>
    <contour>
      <point x="277" y="307" type="curve" smooth="yes"/>
      <point x="199" y="97"/>
      <point x="154" y="63"/>
      <point x="146" y="26" type="curve" smooth="yes"/>
      <point x="140" y="1"/>
      <point x="152" y="-16"/>
      <point x="174" y="-16" type="curve" smooth="yes"/>
      <point x="191" y="-16"/>
      <point x="215" y="-7"/>
      <point x="226" y="24" type="curve" smooth="yes"/>
      <point x="241" y="58"/>
      <point x="236" y="95"/>
      <point x="316" y="307" type="curve" smooth="yes"/>
      <point x="393" y="514"/>
      <point x="436" y="550"/>
      <point x="445" y="588" type="curve" smooth="yes"/>
      <point x="450" y="613"/>
      <point x="441" y="629"/>
      <point x="420" y="629" type="curve" smooth="yes"/>
      <point x="395" y="629"/>
      <point x="374" y="617"/>
      <point x="361" y="586" type="curve" smooth="yes"/>
      <point x="344" y="544"/>
      <point x="367" y="547"/>
    </contour>
    <contour>
      <point x="452" y="307" type="curve" smooth="yes"/>
      <point x="375" y="98"/>
      <point x="329" y="63"/>
      <point x="321" y="26" type="curve" smooth="yes"/>
      <point x="315" y="1"/>
      <point x="327" y="-16"/>
      <point x="349" y="-16" type="curve" smooth="yes"/>
      <point x="366" y="-16"/>
      <point x="390" y="-7"/>
      <point x="402" y="24" type="curve" smooth="yes"/>
      <point x="417" y="58"/>
      <point x="413" y="96"/>
      <point x="491" y="307" type="curve" smooth="yes"/>
      <point x="568" y="514"/>
      <point x="611" y="550"/>
      <point x="620" y="588" type="curve" smooth="yes"/>
      <point x="625" y="613"/>
      <point x="616" y="629"/>
      <point x="595" y="629" type="curve" smooth="yes"/>
      <point x="569" y="629"/>
      <point x="549" y="617"/>
      <point x="537" y="586" type="curve" smooth="yes"/>
      <point x="519" y="545"/>
      <point x="536" y="531"/>
    </contour>
    <contour>
      <point x="403" y="370" type="curve" smooth="yes"/>
      <point x="557" y="370"/>
      <point x="578" y="350"/>
      <point x="605" y="350" type="curve" smooth="yes"/>
      <point x="637" y="350"/>
      <point x="657" y="371"/>
      <point x="663" y="392" type="curve" smooth="yes"/>
      <point x="668" y="410"/>
      <point x="659" y="428"/>
      <point x="630" y="428" type="curve" smooth="yes"/>
      <point x="605" y="428"/>
      <point x="570" y="407"/>
      <point x="413" y="408" type="curve" smooth="yes"/>
      <point x="261" y="408"/>
      <point x="239" y="429"/>
      <point x="213" y="429" type="curve" smooth="yes"/>
      <point x="181" y="429"/>
      <point x="162" y="412"/>
      <point x="157" y="393" type="curve" smooth="yes"/>
      <point x="151" y="369"/>
      <point x="162" y="353"/>
      <point x="193" y="352" type="curve" smooth="yes"/>
      <point x="218" y="351"/>
      <point x="251" y="370"/>
    </contour>
    <contour>
      <point x="346" y="203" type="curve" smooth="yes"/>
      <point x="500" y="203"/>
      <point x="521" y="184"/>
      <point x="548" y="184" type="curve" smooth="yes"/>
      <point x="580" y="184"/>
      <point x="601" y="205"/>
      <point x="607" y="226" type="curve" smooth="yes"/>
      <point x="611" y="244"/>
      <point x="602" y="262"/>
      <point x="572" y="262" type="curve" smooth="yes"/>
      <point x="548" y="262"/>
      <point x="515" y="241"/>
      <point x="357" y="242" type="curve" smooth="yes"/>
      <point x="205" y="242"/>
      <point x="182" y="263"/>
      <point x="155" y="263" type="curve" smooth="yes"/>
      <point x="124" y="263"/>
      <point x="106" y="246"/>
      <point x="101" y="227" type="curve" smooth="yes"/>
      <point x="94" y="203"/>
      <point x="105" y="187"/>
      <point x="136" y="186" type="curve" smooth="yes"/>
      <point x="162" y="185"/>
      <point x="193" y="203"/>
    </contour>
  </outline>
</glyph>
<glyph name="ampersand" format="1">
  <advance width="613"/>
  <unicode hex="0026"/>
  <outline>
    <contour>
      <point x="177" y="153" type="line" smooth="yes"/>
      <point x="39" y="44"/>
      <point x="-19" y="-55"/>
      <point x="-19" y="-160" type="curve" smooth="yes"/>
      <point x="-19" y="-215"/>
      <point x="10" y="-245"/>
      <point x="47" y="-245" type="curve" smooth="yes"/>
      <point x="79" y="-245"/>
      <point x="103" y="-219"/>
      <point x="103" y="-187" type="curve" smooth="yes"/>
      <point x="103" y="-142"/>
      <point x="65" y="-123"/>
      <point x="65" y="-75" type="curve" smooth="yes"/>
      <point x="65" y="-17"/>
      <point x="95" y="38"/>
      <point x="201" y="121" type="curve" smooth="yes"/>
      <point x="531" y="378" type="line" smooth="yes"/>
      <point x="656" y="476"/>
      <point x="700" y="536"/>
      <point x="700" y="618" type="curve" smooth="yes"/>
      <point x="700" y="679"/>
      <point x="661" y="715"/>
      <point x="621" y="715" type="curve" smooth="yes"/>
      <point x="588" y="715"/>
      <point x="565" y="686"/>
      <point x="565" y="660" type="curve" smooth="yes"/>
      <point x="565" y="623"/>
      <point x="610" y="601"/>
      <point x="610" y="554" type="curve" smooth="yes"/>
      <point x="610" y="510"/>
      <point x="583" y="473"/>
      <point x="506" y="412" type="curve" smooth="yes"/>
    </contour>
    <contour>
      <point x="556" y="182" type="curve" smooth="yes"/>
      <point x="556" y="116"/>
      <point x="489" y="53"/>
      <point x="386" y="53" type="curve" smooth="yes"/>
      <point x="285" y="53"/>
      <point x="220" y="121"/>
      <point x="220" y="231" type="curve" smooth="yes"/>
      <point x="220" y="332"/>
      <point x="300" y="414"/>
      <point x="371" y="414" type="curve" smooth="yes"/>
      <point x="428" y="414"/>
      <point x="447" y="380"/>
      <point x="447" y="339" type="curve" smooth="yes"/>
      <point x="447" y="332"/>
      <point x="406" y="281"/>
      <point x="414" y="287" type="curve" smooth="yes"/>
      <point x="441" y="308"/>
      <point x="464" y="327"/>
      <point x="486" y="327" type="curve" smooth="yes"/>
      <point x="517" y="327"/>
      <point x="537" y="348"/>
      <point x="537" y="375" type="curve" smooth="yes"/>
      <point x="537" y="433"/>
      <point x="488" y="480"/>
      <point x="419" y="480" type="curve" smooth="yes"/>
      <point x="280" y="480"/>
      <point x="148" y="325"/>
      <point x="148" y="178" type="curve" smooth="yes"/>
      <point x="148" y="61"/>
      <point x="221" y="-15"/>
      <point x="345" y="-15" type="curve" smooth="yes"/>
      <point x="514" y="-15"/>
      <point x="646" y="112"/>
      <point x="646" y="237" type="curve" smooth="yes"/>
      <point x="646" y="283"/>
      <point x="631" y="307"/>
      <point x="596" y="307" type="curve" smooth="yes"/>
      <point x="561" y="307"/>
      <point x="541" y="282"/>
      <point x="541" y="251" type="curve" smooth="yes"/>
      <point x="541" y="228"/>
      <point x="556" y="213"/>
    </contour>
  </outline>
</glyph>
<glyph name="one" format="1">
  <advance width="442"/>
  <unicode hex="0031"/>
  <outline>
    <contour>
      <point x="232" y="552" type="line" smooth="yes"/>
      <point x="216" y="552"/>
      <point x="209" y="559"/>
      <point x="209" y="572" type="curve" smooth="yes"/>
      <point x="209" y="586"/>
      <point x="222" y="601"/>
      <point x="242" y="601" type="curve" smooth="yes"/>
      <point x="292" y="601" type="line" smooth="yes"/>
      <point x="329" y="601"/>
      <point x="362" y="610"/>
      <point x="389" y="631" type="curve" smooth="yes"/>
      <point x="405" y="643"/>
      <point x="416" y="650"/>
      <point x="432" y="650" type="curve" smooth="yes"/>
      <point x="446" y="650"/>
      <point x="454" y="645"/>
      <point x="454" y="631" type="curve" smooth="yes"/>
      <point x="454" y="627"/>
      <point x="452" y="619"/>
      <point x="449" y="608" type="curve" smooth="yes"/>
      <point x="409" y="476"/>
      <point x="340" y="230"/>
      <point x="314" y="107" type="curve" smooth="yes"/>
      <point x="312" y="100"/>
      <point x="311" y="93"/>
      <point x="311" y="87" type="curve" smooth="yes"/>
      <point x="311" y="69"/>
      <point x="322" y="59"/>
      <point x="346" y="56" type="curve" smooth="yes"/>
      <point x="403" y="48" type="line" smooth="yes"/>
      <point x="420" y="46"/>
      <point x="430" y="39"/>
      <point x="430" y="26" type="curve" smooth="yes"/>
      <point x="430" y="13"/>
      <point x="419" y="0"/>
      <point x="397" y="0" type="curve" smooth="yes"/>
      <point x="70" y="0" type="line" smooth="yes"/>
      <point x="54" y="0"/>
      <point x="46" y="7"/>
      <point x="46" y="22" type="curve" smooth="yes"/>
      <point x="46" y="36"/>
      <point x="59" y="46"/>
      <point x="83" y="49" type="curve" smooth="yes"/>
      <point x="148" y="57" type="line" smooth="yes"/>
      <point x="177" y="61"/>
      <point x="205" y="75"/>
      <point x="214" y="103" type="curve" smooth="yes"/>
      <point x="253" y="224"/>
      <point x="291" y="376"/>
      <point x="319" y="495" type="curve" smooth="yes"/>
      <point x="321" y="503"/>
      <point x="322" y="510"/>
      <point x="322" y="516" type="curve" smooth="yes"/>
      <point x="322" y="541"/>
      <point x="307" y="552"/>
      <point x="281" y="552" type="curve" smooth="yes"/>
    </contour>
  </outline>
</glyph>
<glyph name="two" format="1">
  <advance width="530"/>
  <unicode hex="0032"/>
  <outline>
    <contour>
      <point x="312" y="284" type="curve" smooth="yes"/>
      <point x="126" y="190"/>
      <point x="57" y="87"/>
      <point x="57" y="12" type="curve" smooth="yes"/>
      <point x="57" y="-5"/>
      <point x="68" y="-15"/>
      <point x="88" y="-15" type="curve" smooth="yes"/>
      <point x="114" y="-15"/>
      <point x="136" y="20"/>
      <point x="184" y="20" type="curve" smooth="yes"/>
      <point x="218" y="20"/>
      <point x="289" y="-15"/>
      <point x="364" y="-15" type="curve" smooth="yes"/>
      <point x="456" y="-15"/>
      <point x="528" y="65"/>
      <point x="528" y="125" type="curve" smooth="yes"/>
      <point x="528" y="134"/>
      <point x="525" y="140"/>
      <point x="515" y="140" type="curve" smooth="yes"/>
      <point x="505" y="140"/>
      <point x="496" y="136"/>
      <point x="481" y="117" type="curve" smooth="yes"/>
      <point x="460" y="88"/>
      <point x="440" y="79"/>
      <point x="394" y="79" type="curve" smooth="yes"/>
      <point x="343" y="79"/>
      <point x="275" y="107"/>
      <point x="231" y="107" type="curve" smooth="yes"/>
      <point x="152" y="107"/>
      <point x="105" y="67"/>
      <point x="94" y="25" type="curve"/>
      <point x="119" y="26" type="line"/>
      <point x="141" y="110"/>
      <point x="191" y="169"/>
      <point x="359" y="256" type="curve" smooth="yes"/>
      <point x="534" y="346"/>
      <point x="604" y="433"/>
      <point x="604" y="531" type="curve" smooth="yes"/>
      <point x="604" y="601"/>
      <point x="554" y="650"/>
      <point x="462" y="650" type="curve" smooth="yes"/>
      <point x="294" y="650"/>
      <point x="188" y="543"/>
      <point x="188" y="469" type="curve" smooth="yes"/>
      <point x="188" y="437"/>
      <point x="204" y="419"/>
      <point x="231" y="419" type="curve" smooth="yes"/>
      <point x="257" y="419"/>
      <point x="295" y="446"/>
      <point x="305" y="484" type="curve" smooth="yes"/>
      <point x="315" y="524" type="line" smooth="yes"/>
      <point x="327" y="567"/>
      <point x="359" y="597"/>
      <point x="416" y="597" type="curve" smooth="yes"/>
      <point x="464" y="597"/>
      <point x="500" y="569"/>
      <point x="500" y="515" type="curve" smooth="yes"/>
      <point x="500" y="434"/>
      <point x="441" y="349"/>
    </contour>
  </outline>
</glyph>
<glyph name="four" format="1">
  <advance width="515"/>
  <unicode hex="0034"/>
  <outline>
    <contour>
      <point x="383" y="321" type="curve" smooth="yes"/>
      <point x="324" y="99" type="line" smooth="yes"/>
      <point x="316" y="69"/>
      <point x="301" y="55"/>
      <point x="273" y="51" type="curve" smooth="yes"/>
      <point x="221" y="44" type="line" smooth="yes"/>
      <point x="200" y="41"/>
      <point x="188" y="29"/>
      <point x="188" y="17" type="curve" smooth="yes"/>
      <point x="188" y="6"/>
      <point x="195" y="0"/>
      <point x="213" y="0" type="curve" smooth="yes"/>
      <point x="461" y="0" type="line" smooth="yes"/>
      <point x="487" y="0"/>
      <point x="499" y="11"/>
      <point x="499" y="24" type="curve" smooth="yes"/>
      <point x="499" y="36"/>
      <point x="490" y="41"/>
      <point x="475" y="44" type="curve" smooth="yes"/>
      <point x="446" y="50" type="line" smooth="yes"/>
      <point x="426" y="54"/>
      <point x="418" y="63"/>
      <point x="418" y="78" type="curve" smooth="yes"/>
      <point x="418" y="83"/>
      <point x="419" y="89"/>
      <point x="421" y="96" type="curve" smooth="yes"/>
      <point x="507" y="422" type="line" smooth="yes"/>
      <point x="508" y="426"/>
      <point x="509" y="430"/>
      <point x="509" y="433" type="curve" smooth="yes"/>
      <point x="509" y="440"/>
      <point x="506" y="444"/>
      <point x="499" y="444" type="curve" smooth="yes"/>
      <point x="488" y="444"/>
      <point x="480" y="439"/>
      <point x="465" y="424" type="curve" smooth="yes"/>
      <point x="416" y="375" type="line" smooth="yes"/>
      <point x="397" y="356"/>
      <point x="389" y="344"/>
    </contour>
    <contour>
      <point x="287" y="412" type="curve" smooth="yes"/>
      <point x="111" y="239" type="line" smooth="yes"/>
      <point x="90" y="219"/>
      <point x="80" y="201"/>
      <point x="80" y="188" type="curve" smooth="yes"/>
      <point x="80" y="171"/>
      <point x="90" y="163"/>
      <point x="110" y="163" type="curve" smooth="yes"/>
      <point x="509" y="163" type="line" smooth="yes"/>
      <point x="533" y="163"/>
      <point x="548" y="176"/>
      <point x="548" y="193" type="curve" smooth="yes"/>
      <point x="548" y="208"/>
      <point x="538" y="215"/>
      <point x="524" y="215" type="curve" smooth="yes"/>
      <point x="121" y="215" type="line"/>
      <point x="129" y="185" type="line"/>
      <point x="400" y="457" type="line" smooth="yes"/>
      <point x="464" y="522"/>
      <point x="486" y="558"/>
      <point x="486" y="592" type="curve" smooth="yes"/>
      <point x="486" y="628"/>
      <point x="464" y="650"/>
      <point x="429" y="650" type="curve" smooth="yes"/>
      <point x="380" y="650"/>
      <point x="346" y="609"/>
      <point x="346" y="573" type="curve" smooth="yes"/>
      <point x="346" y="557"/>
      <point x="352" y="545"/>
      <point x="352" y="529" type="curve" smooth="yes"/>
      <point x="352" y="492"/>
      <point x="331" y="455"/>
    </contour>
  </outline>
</glyph>
<glyph name="six" format="1">
  <advance width="550"/>
  <unicode hex="0036"/>
  <outline>
    <contour>
      <point x="498" y="650" type="curve" smooth="yes"/>
      <point x="301" y="650"/>
      <point x="122" y="398"/>
      <point x="122" y="156" type="curve" smooth="yes"/>
      <point x="122" y="39"/>
      <point x="182" y="-15"/>
      <point x="273" y="-15" type="curve" smooth="yes"/>
      <point x="435" y="-15"/>
      <point x="577" y="147"/>
      <point x="577" y="282" type="curve" smooth="yes"/>
      <point x="577" y="362"/>
      <point x="529" y="405"/>
      <point x="451" y="405" type="curve" smooth="yes"/>
      <point x="339" y="405"/>
      <point x="225" y="322"/>
      <point x="198" y="221" type="curve"/>
      <point x="225" y="207" type="line"/>
      <point x="245" y="285"/>
      <point x="321" y="340"/>
      <point x="394" y="340" type="curve" smooth="yes"/>
      <point x="441" y="340"/>
      <point x="473" y="309"/>
      <point x="473" y="246" type="curve" smooth="yes"/>
      <point x="473" y="133"/>
      <point x="395" y="44"/>
      <point x="313" y="44" type="curve" smooth="yes"/>
      <point x="261" y="44"/>
      <point x="223" y="74"/>
      <point x="223" y="160" type="curve" smooth="yes"/>
      <point x="223" y="389"/>
      <point x="368" y="606"/>
      <point x="478" y="606" type="curve" smooth="yes"/>
      <point x="510" y="606"/>
      <point x="526" y="585"/>
      <point x="526" y="559" type="curve" smooth="yes"/>
      <point x="526" y="538"/>
      <point x="516" y="531"/>
      <point x="516" y="510" type="curve" smooth="yes"/>
      <point x="516" y="484"/>
      <point x="534" y="469"/>
      <point x="558" y="469" type="curve" smooth="yes"/>
      <point x="604" y="469"/>
      <point x="639" y="506"/>
      <point x="639" y="552" type="curve" smooth="yes"/>
      <point x="639" y="607"/>
      <point x="593" y="650"/>
    </contour>
  </outline>
</glyph>
<glyph name="at" format="2">
  <advance width="767"/>
  <unicode hex="0040"/>
  <outline>
    <contour>
      <point x="346" y="205" type="curve" smooth="yes"/>
      <point x="340" y="312"/>
      <point x="424" y="407"/>
      <point x="485" y="407" type="curve" smooth="yes"/>
      <point x="517" y="407"/>
      <point x="541" y="402"/>
      <point x="541" y="385" type="curve" smooth="yes"/>
      <point x="545" y="312"/>
      <point x="459" y="159"/>
      <point x="391" y="159" type="curve" smooth="yes"/>
      <point x="367" y="159"/>
      <point x="347" y="170"/>
    </contour>
    <contour>
      <point x="613" y="141" type="curve" smooth="yes"/>
      <point x="593" y="141"/>
      <point x="583" y="154"/>
      <point x="583" y="169" type="curve" smooth="yes"/>
      <point x="583" y="195"/>
      <point x="595" y="275"/>
      <point x="602" y="343" type="curve" smooth="yes"/>
      <point x="606" y="379"/>
      <point x="632" y="408"/>
      <point x="631" y="425" type="curve" smooth="yes"/>
      <point x="630" y="460"/>
      <point x="597" y="474"/>
      <point x="534" y="474" type="curve" smooth="yes"/>
      <point x="406" y="474"/>
      <point x="271" y="305"/>
      <point x="279" y="157" type="curve" smooth="yes"/>
      <point x="282" y="101"/>
      <point x="311" y="78"/>
      <point x="354" y="78" type="curve" smooth="yes"/>
      <point x="419" y="78"/>
      <point x="500" y="140"/>
      <point x="564" y="341" type="curve"/>
      <point x="530" y="307" type="line"/>
      <point x="534" y="236"/>
      <point x="508" y="170"/>
      <point x="510" y="118" type="curve" smooth="yes"/>
      <point x="512" y="94"/>
      <point x="522" y="78"/>
      <point x="561" y="78" type="curve" smooth="yes"/>
      <point x="666" y="78"/>
      <point x="805" y="228"/>
      <point x="805" y="418" type="curve" smooth="yes"/>
      <point x="805" y="565"/>
      <point x="741" y="655"/>
      <point x="592" y="655" type="curve" smooth="yes"/>
      <point x="332" y="655"/>
      <point x="114" y="379"/>
      <point x="114" y="132" type="curve" smooth="yes"/>
      <point x="114" y="-38"/>
      <point x="191" y="-127"/>
      <point x="351" y="-127" type="curve" smooth="yes"/>
      <point x="487" y="-127"/>
      <point x="597" y="-78"/>
      <point x="697" y="16" type="curve" smooth="yes"/>
      <point x="737" y="53"/>
      <point x="699" y="83"/>
      <point x="663" y="47" type="curve" smooth="yes"/>
      <point x="581" y="-35"/>
      <point x="477" y="-80"/>
      <point x="364" y="-80" type="curve" smooth="yes"/>
      <point x="240" y="-80"/>
      <point x="166" y="-8"/>
      <point x="166" y="152" type="curve" smooth="yes"/>
      <point x="166" y="347"/>
      <point x="361" y="608"/>
      <point x="572" y="608" type="curve" smooth="yes"/>
      <point x="690" y="608"/>
      <point x="753" y="529"/>
      <point x="753" y="406" type="curve" smooth="yes"/>
      <point x="753" y="250"/>
      <point x="664" y="141"/>
    </contour>
  </outline>
</glyph>
<glyph name="B" format="2">
  <advance width="635"/>
  <unicode hex="0042"/>
  <outline>
    <contour>
      <point x="395" y="607" type="curve" smooth="yes"/>
      <point x="406" y="636"/>
      <point x="427" y="654"/>
      <point x="480" y="654" type="curve" smooth="yes"/>
      <point x="546" y="654"/>
      <point x="591" y="611"/>
      <point x="591" y="532" type="curve" smooth="yes"/>
      <point x="591" y="428"/>
      <point x="503" y="356"/>
      <point x="397" y="356" type="curve" smooth="yes"/>
      <point x="310" y="356" type="line"/>
      <point x="286" y="308" type="line"/>
      <point x="410" y="308" type="line" smooth="yes"/>
      <point x="492" y="308"/>
      <point x="542" y="271"/>
      <point x="542" y="210" type="curve" smooth="yes"/>
      <point x="542" y="113"/>
      <point x="449" y="46"/>
      <point x="356" y="46" type="curve" smooth="yes"/>
      <point x="294" y="46"/>
      <point x="268" y="67"/>
      <point x="268" y="110" type="curve" smooth="yes"/>
      <point x="268" y="168"/>
      <point x="346" y="475"/>
    </contour>
    <contour>
      <point x="220" y="677" type="curve" smooth="yes"/>
      <point x="220" y="666"/>
      <point x="228" y="662"/>
      <point x="243" y="658" type="curve" smooth="yes"/>
      <point x="266" y="652" type="line" smooth="yes"/>
      <point x="281" y="648"/>
      <point x="288" y="639"/>
      <point x="288" y="623" type="curve" smooth="yes"/>
      <point x="288" y="618"/>
      <point x="287" y="613"/>
      <point x="286" y="607" type="curve" smooth="yes"/>
      <point x="258" y="446"/>
      <point x="214" y="276"/>
      <point x="150" y="92" type="curve" smooth="yes"/>
      <point x="141" y="67"/>
      <point x="129" y="53"/>
      <point x="106" y="48" type="curve" smooth="yes"/>
      <point x="80" y="42" type="line" smooth="yes"/>
      <point x="54" y="36"/>
      <point x="45" y="27"/>
      <point x="45" y="18" type="curve" smooth="yes"/>
      <point x="45" y="7"/>
      <point x="53" y="0"/>
      <point x="69" y="0" type="curve" smooth="yes"/>
      <point x="338" y="0" type="line" smooth="yes"/>
      <point x="521" y="0"/>
      <point x="641" y="100"/>
      <point x="641" y="211" type="curve" smooth="yes"/>
      <point x="641" y="287"/>
      <point x="572" y="340"/>
      <point x="422" y="340" type="curve"/>
      <point x="423" y="331" type="line"/>
      <point x="553" y="331"/>
      <point x="691" y="428"/>
      <point x="691" y="536" type="curve" smooth="yes"/>
      <point x="691" y="643"/>
      <point x="616" y="700"/>
      <point x="478" y="700" type="curve" smooth="yes"/>
      <point x="256" y="700" type="line" smooth="yes"/>
      <point x="229" y="700"/>
      <point x="220" y="689"/>
    </contour>
  </outline>
</glyph>
<glyph name="C" format="1">
  <advance width="636"/>
  <unicode hex="0043"/>
  <outline>
    <contour>
      <point x="641" y="182" type="curve" smooth="yes"/>
      <point x="641" y="196"/>
      <point x="635" y="203"/>
      <point x="625" y="203" type="curve" smooth="yes"/>
      <point x="609" y="203"/>
      <point x="598" y="194"/>
      <point x="583" y="172" type="curve" smooth="yes"/>
      <point x="529" y="94"/>
      <point x="473" y="63"/>
      <point x="386" y="63" type="curve" smooth="yes"/>
      <point x="294" y="63"/>
      <point x="225" y="143"/>
      <point x="225" y="278" type="curve" smooth="yes"/>
      <point x="225" y="475"/>
      <point x="357" y="666"/>
      <point x="507" y="666" type="curve" smooth="yes"/>
      <point x="581" y="666"/>
      <point x="614" y="641"/>
      <point x="646" y="583" type="curve" smooth="yes"/>
      <point x="671" y="538" type="line" smooth="yes"/>
      <point x="679" y="523"/>
      <point x="687" y="512"/>
      <point x="701" y="512" type="curve" smooth="yes"/>
      <point x="714" y="512"/>
      <point x="724" y="520"/>
      <point x="723" y="540" type="curve" smooth="yes"/>
      <point x="718" y="679" type="line" smooth="yes"/>
      <point x="717" y="699"/>
      <point x="708" y="711"/>
      <point x="693" y="711" type="curve" smooth="yes"/>
      <point x="676" y="711"/>
      <point x="662" y="685"/>
      <point x="643" y="685" type="curve" smooth="yes"/>
      <point x="619" y="685"/>
      <point x="577" y="715"/>
      <point x="514" y="715" type="curve" smooth="yes"/>
      <point x="304" y="715"/>
      <point x="117" y="469"/>
      <point x="117" y="229" type="curve" smooth="yes"/>
      <point x="117" y="83"/>
      <point x="204" y="-15"/>
      <point x="339" y="-15" type="curve" smooth="yes"/>
      <point x="484" y="-15"/>
      <point x="592" y="62"/>
      <point x="630" y="143" type="curve" smooth="yes"/>
      <point x="638" y="160"/>
      <point x="641" y="170"/>
    </contour>
  </outline>
</glyph>
<glyph name="D" format="1">
  <advance width="701"/>
  <unicode hex="0044"/>
  <outline>
    <contour>
      <point x="378" y="31" type="curve" smooth="yes"/>
      <point x="282" y="31" type="line" smooth="yes"/>
      <point x="254" y="31"/>
      <point x="243" y="40"/>
      <point x="243" y="61" type="curve" smooth="yes"/>
      <point x="243" y="68"/>
      <point x="245" y="76"/>
      <point x="247" y="88" type="curve" smooth="yes"/>
      <point x="296" y="323"/>
      <point x="328" y="454"/>
      <point x="380" y="640" type="curve" smooth="yes"/>
      <point x="384" y="655"/>
      <point x="392" y="668"/>
      <point x="415" y="668" type="curve" smooth="yes"/>
      <point x="478" y="668" type="line" smooth="yes"/>
      <point x="611" y="668"/>
      <point x="710" y="561"/>
      <point x="710" y="400" type="curve" smooth="yes"/>
      <point x="710" y="181"/>
      <point x="541" y="31"/>
    </contour>
    <contour>
      <point x="78" y="11" type="curve" smooth="yes"/>
      <point x="78" y="3"/>
      <point x="82" y="0"/>
      <point x="96" y="0" type="curve" smooth="yes"/>
      <point x="362" y="0" type="line" smooth="yes"/>
      <point x="592" y="0"/>
      <point x="775" y="183"/>
      <point x="775" y="409" type="curve" smooth="yes"/>
      <point x="775" y="583"/>
      <point x="652" y="700"/>
      <point x="472" y="700" type="curve" smooth="yes"/>
      <point x="275" y="700" type="line" smooth="yes"/>
      <point x="261" y="700"/>
      <point x="254" y="697"/>
      <point x="253" y="689" type="curve" smooth="yes"/>
      <point x="253" y="682"/>
      <point x="256" y="678"/>
      <point x="267" y="676" type="curve" smooth="yes"/>
      <point x="295" y="669" type="line" smooth="yes"/>
      <point x="317" y="663"/>
      <point x="325" y="649"/>
      <point x="320" y="628" type="curve" smooth="yes"/>
      <point x="285" y="482"/>
      <point x="243" y="304"/>
      <point x="180" y="69" type="curve" smooth="yes"/>
      <point x="175" y="52"/>
      <point x="163" y="36"/>
      <point x="138" y="32" type="curve" smooth="yes"/>
      <point x="100" y="26" type="line" smooth="yes"/>
      <point x="88" y="24"/>
      <point x="79" y="20"/>
    </contour>
  </outline>
</glyph>
<glyph name="E" format="2">
  <advance width="575"/>
  <unicode hex="0045"/>
  <anchor x="520" y="734" name="center"/>
  <outline>
    <contour>
      <point x="292" y="356" type="line"/>
      <point x="284" y="332" type="line"/>
      <point x="472" y="332" type="line" smooth="yes"/>
      <point x="510" y="332"/>
      <point x="534" y="318"/>
      <point x="548" y="285" type="curve" smooth="yes"/>
      <point x="553" y="274"/>
      <point x="559" y="269"/>
      <point x="564" y="269" type="curve" smooth="yes"/>
      <point x="571" y="269"/>
      <point x="577" y="275"/>
      <point x="575" y="286" type="curve" smooth="yes"/>
      <point x="550" y="409" type="line" smooth="yes"/>
      <point x="549" y="416"/>
      <point x="546" y="420"/>
      <point x="542" y="420" type="curve" smooth="yes"/>
      <point x="536" y="420"/>
      <point x="531" y="414"/>
      <point x="527" y="404" type="curve" smooth="yes"/>
      <point x="515" y="368"/>
      <point x="489" y="356"/>
      <point x="448" y="356" type="curve" smooth="yes"/>
    </contour>
    <contour>
      <point x="417" y="0" type="line" smooth="yes"/>
      <point x="441" y="0"/>
      <point x="455" y="-11"/>
      <point x="472" y="-11" type="curve" smooth="yes"/>
      <point x="524" y="-11"/>
      <point x="577" y="50"/>
      <point x="577" y="133" type="curve" smooth="yes"/>
      <point x="577" y="145"/>
      <point x="572" y="151"/>
      <point x="565" y="151" type="curve" smooth="yes"/>
      <point x="560" y="151"/>
      <point x="554" y="148"/>
      <point x="551" y="140" type="curve" smooth="yes"/>
      <point x="538" y="115" type="line" smooth="yes"/>
      <point x="511" y="50"/>
      <point x="468" y="26"/>
      <point x="401" y="26" type="curve" smooth="yes"/>
      <point x="291" y="26" type="line" smooth="yes"/>
      <point x="249" y="26"/>
      <point x="231" y="46"/>
      <point x="237" y="78" type="curve" smooth="yes"/>
      <point x="274" y="256"/>
      <point x="315" y="431"/>
      <point x="381" y="675" type="curve"/>
      <point x="560" y="675" type="line" smooth="yes"/>
      <point x="617" y="675"/>
      <point x="655" y="645"/>
      <point x="667" y="597" type="curve" smooth="yes"/>
      <point x="669" y="584" type="line" smooth="yes"/>
      <point x="673" y="574"/>
      <point x="679" y="569"/>
      <point x="687" y="569" type="curve" smooth="yes"/>
      <point x="692" y="569"/>
      <point x="698" y="574"/>
      <point x="698" y="588" type="curve" smooth="yes"/>
      <point x="699" y="709" type="line" smooth="yes"/>
      <point x="700" y="720"/>
      <point x="695" y="726"/>
      <point x="685" y="726" type="curve" smooth="yes"/>
      <point x="677" y="726"/>
      <point x="667" y="721"/>
      <point x="659" y="714" type="curve" smooth="yes"/>
      <point x="650" y="705"/>
      <point x="632" y="700"/>
      <point x="626" y="700" type="curve" smooth="yes"/>
      <point x="268" y="700" type="line" smooth="yes"/>
      <point x="258" y="700"/>
      <point x="250" y="696"/>
      <point x="250" y="687" type="curve" smooth="yes"/>
      <point x="250" y="680"/>
      <point x="253" y="678"/>
      <point x="264" y="675" type="curve" smooth="yes"/>
      <point x="298" y="664" type="line" smooth="yes"/>
      <point x="313" y="659"/>
      <point x="322" y="645"/>
      <point x="316" y="619" type="curve" smooth="yes"/>
      <point x="278" y="455"/>
      <point x="229" y="265"/>
      <point x="179" y="81" type="curve"/>
      <point x="172" y="55"/>
      <point x="158" y="41"/>
      <point x="133" y="35" type="curve" smooth="yes"/>
      <point x="107" y="30" type="line" smooth="yes"/>
      <point x="87" y="25"/>
      <point x="76" y="21"/>
      <point x="76" y="11" type="curve" smooth="yes"/>
      <point x="75" y="4"/>
      <point x="79" y="0"/>
      <point x="92" y="0" type="curve" smooth="yes"/>
    </contour>
  </outline>
</glyph>
<glyph name="F" format="2">
  <advance width="540"/>
  <unicode hex="0046"/>
  <outline>
    <contour>
      <point x="206" y="679" type="curve" smooth="yes"/>
      <point x="202" y="665"/>
      <point x="213" y="659"/>
      <point x="231" y="655" type="curve" smooth="yes"/>
      <point x="260" y="649" type="line" smooth="yes"/>
      <point x="273" y="646"/>
      <point x="278" y="632"/>
      <point x="274" y="613" type="curve"/>
      <point x="241" y="437"/>
      <point x="193" y="266"/>
      <point x="139" y="104" type="curve"/>
      <point x="131" y="74"/>
      <point x="118" y="58"/>
      <point x="93" y="52" type="curve" smooth="yes"/>
      <point x="72" y="47" type="line" smooth="yes"/>
      <point x="48" y="40"/>
      <point x="36" y="35"/>
      <point x="33" y="21" type="curve" smooth="yes"/>
      <point x="29" y="7"/>
      <point x="39" y="0"/>
      <point x="58" y="0" type="curve" smooth="yes"/>
      <point x="293" y="0" type="line" smooth="yes"/>
      <point x="324" y="0"/>
      <point x="332" y="10"/>
      <point x="332" y="23" type="curve" smooth="yes"/>
      <point x="332" y="36"/>
      <point x="322" y="41"/>
      <point x="289" y="49" type="curve" smooth="yes"/>
      <point x="268" y="54"/>
      <point x="245" y="70"/>
      <point x="255" y="110" type="curve"/>
      <point x="284" y="264"/>
      <point x="332" y="446"/>
      <point x="398" y="654" type="curve"/>
      <point x="505" y="654" type="line" smooth="yes"/>
      <point x="547" y="654"/>
      <point x="578" y="636"/>
      <point x="596" y="602" type="curve" smooth="yes"/>
      <point x="614" y="568" type="line" smooth="yes"/>
      <point x="624" y="548"/>
      <point x="631" y="541"/>
      <point x="646" y="541" type="curve" smooth="yes"/>
      <point x="657" y="541"/>
      <point x="669" y="552"/>
      <point x="669" y="573" type="curve" smooth="yes"/>
      <point x="667" y="702" type="line" smooth="yes"/>
      <point x="667" y="720"/>
      <point x="664" y="727"/>
      <point x="648" y="727" type="curve" smooth="yes"/>
      <point x="638" y="727"/>
      <point x="628" y="722"/>
      <point x="617" y="713" type="curve" smooth="yes"/>
      <point x="608" y="705"/>
      <point x="594" y="700"/>
      <point x="584" y="700" type="curve" smooth="yes"/>
      <point x="242" y="700" type="line" smooth="yes"/>
      <point x="222" y="700"/>
      <point x="210" y="693"/>
    </contour>
    <contour>
      <point x="295" y="348" type="line"/>
      <point x="277" y="306" type="line"/>
      <point x="440" y="306" type="line" smooth="yes"/>
      <point x="471" y="306"/>
      <point x="490" y="293"/>
      <point x="501" y="269" type="curve" smooth="yes"/>
      <point x="510" y="249"/>
      <point x="517" y="243"/>
      <point x="529" y="243" type="curve" smooth="yes"/>
      <point x="540" y="243"/>
      <point x="550" y="252"/>
      <point x="548" y="270" type="curve" smooth="yes"/>
      <point x="538" y="395" type="line" smooth="yes"/>
      <point x="537" y="408"/>
      <point x="531" y="419"/>
      <point x="520" y="419" type="curve" smooth="yes"/>
      <point x="509" y="419"/>
      <point x="501" y="408"/>
      <point x="490" y="390" type="curve" smooth="yes"/>
      <point x="472" y="358"/>
      <point x="444" y="348"/>
      <point x="415" y="348" type="curve" smooth="yes"/>
    </contour>
  </outline>
</glyph>
<glyph name="H" format="2">
  <advance width="725"/>
  <unicode hex="0048"/>
  <outline>
    <contour>
      <point x="264" y="337" type="line"/>
      <point x="248" y="308" type="line"/>
      <point x="632" y="308" type="line"/>
      <point x="648" y="337" type="line"/>
    </contour>
    <component base="I" xOffset="-4"/>
    <component base="I" xOffset="387"/>
  </outline>
</glyph>
<glyph name="I" format="1">
  <advance width="339"/>
  <unicode hex="0049"/>
  <outline>
    <contour>
      <point x="240" y="81" type="curve" smooth="yes"/>
      <point x="289" y="304"/>
      <point x="322" y="440"/>
      <point x="373" y="620" type="curve" smooth="yes"/>
      <point x="381" y="646"/>
      <point x="394" y="662"/>
      <point x="420" y="668" type="curve" smooth="yes"/>
      <point x="447" y="673" type="line" smooth="yes"/>
      <point x="466" y="677"/>
      <point x="477" y="678"/>
      <point x="480" y="688" type="curve" smooth="yes"/>
      <point x="483" y="698"/>
      <point x="475" y="700"/>
      <point x="456" y="700" type="curve" smooth="yes"/>
      <point x="289" y="700" type="line" smooth="yes"/>
      <point x="262" y="700"/>
      <point x="252" y="698"/>
      <point x="251" y="688" type="curve" smooth="yes"/>
      <point x="248" y="675"/>
      <point x="256" y="675"/>
      <point x="273" y="673" type="curve" smooth="yes"/>
      <point x="293" y="668" type="line" smooth="yes"/>
      <point x="314" y="662"/>
      <point x="321" y="649"/>
      <point x="314" y="620" type="curve" smooth="yes"/>
      <point x="278" y="448"/>
      <point x="242" y="293"/>
      <point x="182" y="81" type="curve" smooth="yes"/>
      <point x="174" y="54"/>
      <point x="159" y="38"/>
      <point x="136" y="32" type="curve" smooth="yes"/>
      <point x="113" y="26" type="line" smooth="yes"/>
      <point x="90" y="22"/>
      <point x="79" y="21"/>
      <point x="75" y="11" type="curve" smooth="yes"/>
      <point x="74" y="1"/>
      <point x="77" y="0"/>
      <point x="102" y="0" type="curve" smooth="yes"/>
      <point x="271" y="0" type="line" smooth="yes"/>
      <point x="291" y="0"/>
      <point x="304" y="3"/>
      <point x="304" y="10" type="curve" smooth="yes"/>
      <point x="307" y="23"/>
      <point x="298" y="22"/>
      <point x="284" y="26" type="curve" smooth="yes"/>
      <point x="259" y="32" type="line" smooth="yes"/>
      <point x="240" y="38"/>
      <point x="233" y="51"/>
    </contour>
  </outline>
</glyph>
<glyph name="J" format="1">
  <advance width="337"/>
  <unicode hex="004A"/>
  <outline>
    <contour>
      <point x="383" y="607" type="curve" smooth="yes"/>
      <point x="392" y="634"/>
      <point x="404" y="647"/>
      <point x="427" y="652" type="curve" smooth="yes"/>
      <point x="454" y="658" type="line" smooth="yes"/>
      <point x="472" y="662"/>
      <point x="484" y="667"/>
      <point x="488" y="681" type="curve" smooth="yes"/>
      <point x="491" y="694"/>
      <point x="482" y="700"/>
      <point x="461" y="700" type="curve" smooth="yes"/>
      <point x="246" y="700" type="line" smooth="yes"/>
      <point x="224" y="700"/>
      <point x="214" y="694"/>
      <point x="211" y="681" type="curve" smooth="yes"/>
      <point x="207" y="667"/>
      <point x="216" y="661"/>
      <point x="233" y="658" type="curve" smooth="yes"/>
      <point x="256" y="652" type="line" smooth="yes"/>
      <point x="275" y="647"/>
      <point x="281" y="634"/>
      <point x="276" y="607" type="curve" smooth="yes"/>
      <point x="247" y="449"/>
      <point x="187" y="223"/>
      <point x="147" y="74" type="curve" smooth="yes"/>
      <point x="131" y="14"/>
      <point x="152" y="-16"/>
      <point x="152" y="-41" type="curve" smooth="yes"/>
      <point x="152" y="-70"/>
      <point x="137" y="-84"/>
      <point x="117" y="-84" type="curve" smooth="yes"/>
      <point x="92" y="-84"/>
      <point x="70" y="-45"/>
      <point x="42" y="-45" type="curve" smooth="yes"/>
      <point x="-3" y="-45"/>
      <point x="-27" y="-73"/>
      <point x="-27" y="-107" type="curve" smooth="yes"/>
      <point x="-27" y="-141"/>
      <point x="1" y="-171"/>
      <point x="49" y="-171" type="curve" smooth="yes"/>
      <point x="132" y="-171"/>
      <point x="211" y="-72"/>
      <point x="232" y="39" type="curve" smooth="yes"/>
      <point x="254" y="157"/>
      <point x="328" y="437"/>
    </contour>
  </outline>
</glyph>
<glyph name="L" format="1">
  <advance width="555"/>
  <unicode hex="004C"/>
  <outline>
    <contour>
      <point x="387" y="0" type="line" smooth="yes"/>
      <point x="420" y="0"/>
      <point x="438" y="-16"/>
      <point x="461" y="-16" type="curve" smooth="yes"/>
      <point x="519" y="-16"/>
      <point x="569" y="53"/>
      <point x="569" y="129" type="curve" smooth="yes"/>
      <point x="569" y="149"/>
      <point x="561" y="158"/>
      <point x="547" y="158" type="curve" smooth="yes"/>
      <point x="532" y="158"/>
      <point x="525" y="149"/>
      <point x="513" y="132" type="curve" smooth="yes"/>
      <point x="494" y="104" type="line" smooth="yes"/>
      <point x="461" y="56"/>
      <point x="415" y="41"/>
      <point x="335" y="41" type="curve" smooth="yes"/>
      <point x="288" y="41"/>
      <point x="269" y="66"/>
      <point x="269" y="98" type="curve" smooth="yes"/>
      <point x="269" y="155"/>
      <point x="328" y="408"/>
      <point x="401" y="606" type="curve" smooth="yes"/>
      <point x="411" y="632"/>
      <point x="422" y="646"/>
      <point x="445" y="651" type="curve" smooth="yes"/>
      <point x="471" y="657" type="line" smooth="yes"/>
      <point x="490" y="660"/>
      <point x="502" y="666"/>
      <point x="505" y="680" type="curve" smooth="yes"/>
      <point x="509" y="693"/>
      <point x="500" y="699"/>
      <point x="479" y="699" type="curve" smooth="yes"/>
      <point x="257" y="699" type="line" smooth="yes"/>
      <point x="235" y="699"/>
      <point x="225" y="693"/>
      <point x="221" y="680" type="curve" smooth="yes"/>
      <point x="218" y="666"/>
      <point x="227" y="660"/>
      <point x="243" y="657" type="curve" smooth="yes"/>
      <point x="267" y="651" type="line" smooth="yes"/>
      <point x="285" y="646"/>
      <point x="292" y="632"/>
      <point x="289" y="613" type="curve" smooth="yes"/>
      <point x="256" y="440"/>
      <point x="210" y="266"/>
      <point x="154" y="104" type="curve"/>
      <point x="146" y="74"/>
      <point x="133" y="58"/>
      <point x="108" y="52" type="curve" smooth="yes"/>
      <point x="87" y="47" type="line" smooth="yes"/>
      <point x="63" y="40"/>
      <point x="51" y="35"/>
      <point x="48" y="21" type="curve" smooth="yes"/>
      <point x="44" y="7"/>
      <point x="54" y="0"/>
      <point x="73" y="0" type="curve" smooth="yes"/>
    </contour>
  </outline>
</glyph>
<glyph name="N" format="1">
  <advance width="689"/>
  <unicode hex="004E"/>
  <outline>
    <contour>
      <point x="207" y="93" type="line" smooth="yes"/>
      <point x="201" y="70"/>
      <point x="206" y="48"/>
      <point x="229" y="40" type="curve" smooth="yes"/>
      <point x="265" y="28" type="line" smooth="yes"/>
      <point x="275" y="24"/>
      <point x="282" y="18"/>
      <point x="282" y="11" type="curve" smooth="yes"/>
      <point x="282" y="3"/>
      <point x="276" y="0"/>
      <point x="263" y="0" type="curve" smooth="yes"/>
      <point x="72" y="0" type="line" smooth="yes"/>
      <point x="64" y="0"/>
      <point x="59" y="4"/>
      <point x="59" y="12" type="curve" smooth="yes"/>
      <point x="59" y="18"/>
      <point x="65" y="23"/>
      <point x="77" y="27" type="curve" smooth="yes"/>
      <point x="115" y="37" type="line" smooth="yes"/>
      <point x="144" y="46"/>
      <point x="162" y="61"/>
      <point x="171" y="89" type="curve" smooth="yes"/>
      <point x="297" y="539" type="line" smooth="yes"/>
      <point x="306" y="571"/>
      <point x="301" y="594"/>
      <point x="289" y="610" type="curve" smooth="yes"/>
      <point x="255" y="656" type="line" smooth="yes"/>
      <point x="248" y="666"/>
      <point x="241" y="675"/>
      <point x="242" y="684" type="curve" smooth="yes"/>
      <point x="243" y="695"/>
      <point x="254" y="700"/>
      <point x="267" y="700" type="curve" smooth="yes"/>
      <point x="292" y="700" type="line" smooth="yes"/>
      <point x="310" y="700"/>
      <point x="317" y="692"/>
      <point x="329" y="667" type="curve" smooth="yes"/>
      <point x="447" y="432"/>
      <point x="537" y="255"/>
      <point x="615" y="106" type="curve"/>
      <point x="601" y="105" type="line"/>
      <point x="723" y="576" type="line" smooth="yes"/>
      <point x="749" y="676"/>
      <point x="795" y="729"/>
      <point x="841" y="729" type="curve" smooth="yes"/>
      <point x="860" y="729"/>
      <point x="872" y="714"/>
      <point x="872" y="701" type="curve" smooth="yes"/>
      <point x="872" y="675"/>
      <point x="851" y="658"/>
      <point x="817" y="640" type="curve" smooth="yes"/>
      <point x="781" y="621"/>
      <point x="758" y="588"/>
      <point x="746" y="540" type="curve" smooth="yes"/>
      <point x="634" y="108" type="line" smooth="yes"/>
      <point x="630" y="91"/>
      <point x="629" y="83"/>
      <point x="629" y="76" type="curve" smooth="yes"/>
      <point x="629" y="49"/>
      <point x="653" y="35"/>
      <point x="653" y="18" type="curve" smooth="yes"/>
      <point x="653" y="6"/>
      <point x="645" y="0"/>
      <point x="637" y="0" type="curve" smooth="yes"/>
      <point x="585" y="0" type="line" smooth="yes"/>
      <point x="575" y="0"/>
      <point x="565" y="15"/>
      <point x="567" y="28" type="curve" smooth="yes"/>
      <point x="569" y="56"/>
      <point x="564" y="77"/>
      <point x="553" y="100" type="curve" smooth="yes"/>
      <point x="486" y="237"/>
      <point x="414" y="391"/>
      <point x="328" y="551" type="curve"/>
      <point x="337" y="554" type="line"/>
    </contour>
  </outline>
</glyph>
<glyph name="O" format="2">
  <advance width="744"/>
  <unicode hex="004F"/>
  <anchor x="581" y="773" name="center"/>
  <outline>
    <contour>
      <point x="549" y="714" type="curve" smooth="yes"/>
      <point x="318" y="714"/>
      <point x="154" y="483"/>
      <point x="154" y="257" type="curve" smooth="yes"/>
      <point x="154" y="95"/>
      <point x="249" y="-15"/>
      <point x="398" y="-15" type="curve" smooth="yes"/>
      <point x="607" y="-15"/>
      <point x="804" y="182"/>
      <point x="804" y="445" type="curve" smooth="yes"/>
      <point x="804" y="604"/>
      <point x="706" y="714"/>
    </contour>
    <contour>
      <point x="422" y="21" type="curve" smooth="yes"/>
      <point x="297" y="21"/>
      <point x="216" y="114"/>
      <point x="216" y="252" type="curve" smooth="yes"/>
      <point x="216" y="492"/>
      <point x="359" y="682"/>
      <point x="524" y="682" type="curve" smooth="yes"/>
      <point x="655" y="682"/>
      <point x="741" y="600"/>
      <point x="741" y="449" type="curve" smooth="yes"/>
      <point x="741" y="207"/>
      <point x="576" y="21"/>
    </contour>
  </outline>
</glyph>
<glyph name="P" format="2">
  <advance width="612"/>
  <unicode hex="0050"/>
  <outline>
    <contour>
      <point x="701" y="493" type="curve" smooth="yes"/>
      <point x="701" y="622"/>
      <point x="614" y="700"/>
      <point x="476" y="700" type="curve" smooth="yes"/>
      <point x="242" y="700" type="line" smooth="yes"/>
      <point x="222" y="700"/>
      <point x="210" y="693"/>
      <point x="207" y="681" type="curve" smooth="yes"/>
      <point x="207" y="679"/>
      <point x="206" y="678"/>
      <point x="206" y="676" type="curve" smooth="yes"/>
      <point x="206" y="667"/>
      <point x="214" y="661"/>
      <point x="229" y="658" type="curve" smooth="yes"/>
      <point x="252" y="652" type="line" smooth="yes"/>
      <point x="270" y="648"/>
      <point x="279" y="637"/>
      <point x="279" y="621" type="curve" smooth="yes"/>
      <point x="279" y="617"/>
      <point x="278" y="612"/>
      <point x="277" y="607" type="curve"/>
      <point x="245" y="433"/>
      <point x="199" y="260"/>
      <point x="141" y="92" type="curve" smooth="yes"/>
      <point x="133" y="70"/>
      <point x="123" y="53"/>
      <point x="102" y="48" type="curve" smooth="yes"/>
      <point x="76" y="42" type="line" smooth="yes"/>
      <point x="52" y="36"/>
      <point x="41" y="26"/>
      <point x="41" y="15" type="curve" smooth="yes"/>
      <point x="41" y="5"/>
      <point x="51" y="0"/>
      <point x="68" y="0" type="curve" smooth="yes"/>
      <point x="290" y="0" type="line" smooth="yes"/>
      <point x="312" y="0"/>
      <point x="327" y="11"/>
      <point x="327" y="24" type="curve" smooth="yes"/>
      <point x="327" y="33"/>
      <point x="319" y="38"/>
      <point x="304" y="42" type="curve" smooth="yes"/>
      <point x="280" y="48" type="line" smooth="yes"/>
      <point x="256" y="54"/>
      <point x="243" y="64"/>
      <point x="243" y="79" type="curve" smooth="yes"/>
      <point x="243" y="83"/>
      <point x="245" y="88"/>
      <point x="248" y="102" type="curve" smooth="yes"/>
      <point x="275" y="239"/>
      <point x="344" y="503"/>
      <point x="369" y="571" type="curve" smooth="yes"/>
      <point x="389" y="625"/>
      <point x="421" y="655"/>
      <point x="471" y="655" type="curve" smooth="yes"/>
      <point x="545" y="655"/>
      <point x="596" y="593"/>
      <point x="596" y="498" type="curve" smooth="yes"/>
      <point x="596" y="360"/>
      <point x="495" y="268"/>
      <point x="358" y="268" type="curve" smooth="yes"/>
      <point x="301" y="268"/>
      <point x="277" y="283"/>
      <point x="250" y="301" type="curve"/>
      <point x="230" y="263" type="line"/>
      <point x="279" y="231"/>
      <point x="316" y="221"/>
      <point x="387" y="221" type="curve" smooth="yes"/>
      <point x="557" y="221"/>
      <point x="701" y="332"/>
    </contour>
  </outline>
</glyph>
<glyph name="S" format="1">
  <advance width="483"/>
  <unicode hex="0053"/>
  <outline>
    <contour>
      <point x="275" y="-15" type="curve" smooth="yes"/>
      <point x="401" y="-14"/>
      <point x="495" y="74"/>
      <point x="495" y="176" type="curve" smooth="yes"/>
      <point x="495" y="244"/>
      <point x="461" y="296"/>
      <point x="371" y="356" type="curve" smooth="yes"/>
      <point x="302" y="401"/>
      <point x="259" y="451"/>
      <point x="259" y="523" type="curve" smooth="yes"/>
      <point x="259" y="601"/>
      <point x="321" y="682"/>
      <point x="419" y="682" type="curve" smooth="yes"/>
      <point x="484" y="682"/>
      <point x="518" y="661"/>
      <point x="543" y="604" type="curve" smooth="yes"/>
      <point x="556" y="580" type="line" smooth="yes"/>
      <point x="561" y="572"/>
      <point x="570" y="557"/>
      <point x="586" y="557" type="curve" smooth="yes"/>
      <point x="603" y="557"/>
      <point x="618" y="576"/>
      <point x="618" y="599" type="curve" smooth="yes"/>
      <point x="618" y="656"/>
      <point x="556" y="713"/>
      <point x="442" y="713" type="curve" smooth="yes"/>
      <point x="295" y="713"/>
      <point x="204" y="590"/>
      <point x="204" y="502" type="curve" smooth="yes"/>
      <point x="204" y="430"/>
      <point x="243" y="371"/>
      <point x="333" y="313" type="curve" smooth="yes"/>
      <point x="412" y="262"/>
      <point x="439" y="220"/>
      <point x="439" y="157" type="curve" smooth="yes"/>
      <point x="439" y="74"/>
      <point x="372" y="17"/>
      <point x="282" y="17" type="curve" smooth="yes"/>
      <point x="217" y="17"/>
      <point x="173" y="55"/>
      <point x="150" y="121" type="curve" smooth="yes"/>
      <point x="137" y="160" type="line" smooth="yes"/>
      <point x="132" y="176"/>
      <point x="127" y="180"/>
      <point x="120" y="180" type="curve" smooth="yes"/>
      <point x="114" y="180"/>
      <point x="109" y="174"/>
      <point x="108" y="164" type="curve" smooth="yes"/>
      <point x="91" y="11" type="line" smooth="yes"/>
      <point x="91" y="8"/>
      <point x="91" y="6"/>
      <point x="91" y="4" type="curve" smooth="yes"/>
      <point x="91" y="-7"/>
      <point x="92" y="-13"/>
      <point x="102" y="-13" type="curve" smooth="yes"/>
      <point x="112" y="-13"/>
      <point x="125" y="43"/>
      <point x="133" y="43" type="curve" smooth="yes"/>
      <point x="159" y="43"/>
      <point x="182" y="-16"/>
    </contour>
  </outline>
</glyph>
<glyph name="T" format="1">
  <advance width="562"/>
  <unicode hex="0054"/>
  <outline>
    <contour>
      <point x="325" y="715" type="curve" smooth="yes"/>
      <point x="218" y="715"/>
      <point x="168" y="664"/>
      <point x="168" y="601" type="curve" smooth="yes"/>
      <point x="168" y="560"/>
      <point x="192" y="537"/>
      <point x="227" y="537" type="curve" smooth="yes"/>
      <point x="261" y="537"/>
      <point x="283" y="560"/>
      <point x="283" y="583" type="curve" smooth="yes"/>
      <point x="283" y="609"/>
      <point x="265" y="624"/>
      <point x="265" y="644" type="curve" smooth="yes"/>
      <point x="265" y="664"/>
      <point x="279" y="677"/>
      <point x="319" y="677" type="curve" smooth="yes"/>
      <point x="452" y="677"/>
      <point x="605" y="612"/>
      <point x="674" y="612" type="curve" smooth="yes"/>
      <point x="720" y="612"/>
      <point x="753" y="653"/>
      <point x="753" y="701" type="curve" smooth="yes"/>
      <point x="753" y="740"/>
      <point x="743" y="757"/>
      <point x="727" y="757" type="curve" smooth="yes"/>
      <point x="708" y="757"/>
      <point x="697" y="745"/>
      <point x="680" y="720" type="curve" smooth="yes"/>
      <point x="657" y="687"/>
      <point x="637" y="676"/>
      <point x="596" y="676" type="curve" smooth="yes"/>
      <point x="538" y="676"/>
      <point x="401" y="715"/>
    </contour>
    <contour>
      <point x="425" y="677" type="line"/>
      <point x="384" y="493"/>
      <point x="329" y="306"/>
      <point x="261" y="92" type="curve" smooth="yes"/>
      <point x="253" y="67"/>
      <point x="240" y="53"/>
      <point x="217" y="48" type="curve" smooth="yes"/>
      <point x="191" y="42" type="line" smooth="yes"/>
      <point x="172" y="38"/>
      <point x="161" y="33"/>
      <point x="157" y="19" type="curve" smooth="yes"/>
      <point x="154" y="6"/>
      <point x="161" y="0"/>
      <point x="183" y="0" type="curve" smooth="yes"/>
      <point x="405" y="0" type="line" smooth="yes"/>
      <point x="426" y="0"/>
      <point x="438" y="6"/>
      <point x="441" y="19" type="curve" smooth="yes"/>
      <point x="445" y="33"/>
      <point x="435" y="38"/>
      <point x="419" y="42" type="curve" smooth="yes"/>
      <point x="395" y="48" type="line" smooth="yes"/>
      <point x="376" y="53"/>
      <point x="370" y="66"/>
      <point x="375" y="92" type="curve" smooth="yes"/>
      <point x="419" y="321"/>
      <point x="464" y="485"/>
      <point x="512" y="659" type="curve"/>
    </contour>
  </outline>
</glyph>
<glyph name="U" format="1">
  <advance width="667"/>
  <unicode hex="0055"/>
  <outline>
    <contour>
      <point x="556" y="195" type="line" smooth="yes"/>
      <point x="527" y="96"/>
      <point x="457" y="50"/>
      <point x="368" y="50" type="curve" smooth="yes"/>
      <point x="296" y="50"/>
      <point x="250" y="85"/>
      <point x="250" y="156" type="curve" smooth="yes"/>
      <point x="250" y="195"/>
      <point x="257" y="243"/>
      <point x="280" y="324" type="curve" smooth="yes"/>
      <point x="361" y="606" type="line" smooth="yes"/>
      <point x="369" y="633"/>
      <point x="385" y="644"/>
      <point x="415" y="653" type="curve" smooth="yes"/>
      <point x="452" y="663"/>
      <point x="466" y="671"/>
      <point x="466" y="683" type="curve" smooth="yes"/>
      <point x="466" y="694"/>
      <point x="458" y="699"/>
      <point x="440" y="699" type="curve" smooth="yes"/>
      <point x="227" y="699" type="line" smooth="yes"/>
      <point x="203" y="699"/>
      <point x="191" y="690"/>
      <point x="191" y="680" type="curve" smooth="yes"/>
      <point x="191" y="668"/>
      <point x="199" y="662"/>
      <point x="223" y="654" type="curve" smooth="yes"/>
      <point x="251" y="645"/>
      <point x="260" y="635"/>
      <point x="260" y="622" type="curve" smooth="yes"/>
      <point x="260" y="618"/>
      <point x="259" y="612"/>
      <point x="257" y="606" type="curve" smooth="yes"/>
      <point x="176" y="324" type="line" smooth="yes"/>
      <point x="161" y="272"/>
      <point x="138" y="188"/>
      <point x="138" y="147" type="curve" smooth="yes"/>
      <point x="138" y="53"/>
      <point x="199" y="-15"/>
      <point x="324" y="-15" type="curve" smooth="yes"/>
      <point x="481" y="-15"/>
      <point x="579" y="58"/>
      <point x="623" y="209" type="curve" smooth="yes"/>
      <point x="736" y="599" type="line" smooth="yes"/>
      <point x="742" y="620"/>
      <point x="756" y="638"/>
      <point x="798" y="651" type="curve" smooth="yes"/>
      <point x="834" y="662"/>
      <point x="842" y="671"/>
      <point x="842" y="680" type="curve" smooth="yes"/>
      <point x="842" y="691"/>
      <point x="831" y="699"/>
      <point x="815" y="699" type="curve" smooth="yes"/>
      <point x="637" y="699" type="line" smooth="yes"/>
      <point x="615" y="699"/>
      <point x="603" y="690"/>
      <point x="603" y="680" type="curve" smooth="yes"/>
      <point x="603" y="670"/>
      <point x="612" y="662"/>
      <point x="641" y="649" type="curve" smooth="yes"/>
      <point x="670" y="636"/>
      <point x="676" y="627"/>
      <point x="676" y="613" type="curve" smooth="yes"/>
      <point x="676" y="609"/>
      <point x="676" y="605"/>
      <point x="674" y="599" type="curve" smooth="yes"/>
    </contour>
    <contour>
      <point x="541" y="738" type="move" name="center"/>
    </contour>
  </outline>
</glyph>
<glyph name="V" format="1">
  <advance width="599"/>
  <unicode hex="0056"/>
  <outline>
    <contour>
      <point x="557" y="674" type="curve" smooth="yes"/>
      <point x="557" y="663"/>
      <point x="565" y="654"/>
      <point x="577" y="647" type="curve" smooth="yes"/>
      <point x="606" y="630" type="line" smooth="yes"/>
      <point x="617" y="623"/>
      <point x="622" y="615"/>
      <point x="622" y="604" type="curve" smooth="yes"/>
      <point x="622" y="594"/>
      <point x="617" y="579"/>
      <point x="608" y="564" type="curve" smooth="yes"/>
      <point x="295" y="61" type="line"/>
      <point x="334" y="79" type="line"/>
      <point x="330" y="250"/>
      <point x="337" y="481"/>
      <point x="337" y="587" type="curve" smooth="yes"/>
      <point x="337" y="620"/>
      <point x="354" y="641"/>
      <point x="380" y="646" type="curve" smooth="yes"/>
      <point x="405" y="651" type="line" smooth="yes"/>
      <point x="421" y="654"/>
      <point x="435" y="662"/>
      <point x="435" y="678" type="curve" smooth="yes"/>
      <point x="435" y="692"/>
      <point x="425" y="700"/>
      <point x="413" y="700" type="curve" smooth="yes"/>
      <point x="219" y="700" type="line" smooth="yes"/>
      <point x="204" y="700"/>
      <point x="191" y="689"/>
      <point x="191" y="675" type="curve" smooth="yes"/>
      <point x="191" y="665"/>
      <point x="196" y="660"/>
      <point x="209" y="651" type="curve" smooth="yes"/>
      <point x="218" y="645"/>
      <point x="235" y="627"/>
      <point x="237" y="590" type="curve" smooth="yes"/>
      <point x="246" y="428"/>
      <point x="247" y="168"/>
      <point x="239" y="103" type="curve" smooth="yes"/>
      <point x="237" y="87"/>
      <point x="238" y="78"/>
      <point x="233" y="59" type="curve" smooth="yes"/>
      <point x="227" y="38" type="line" smooth="yes"/>
      <point x="221" y="16"/>
      <point x="231" y="0"/>
      <point x="250" y="0" type="curve" smooth="yes"/>
      <point x="302" y="0" type="line" smooth="yes"/>
      <point x="323" y="0"/>
      <point x="341" y="14"/>
      <point x="347" y="36" type="curve" smooth="yes"/>
      <point x="352" y="56" type="line" smooth="yes"/>
      <point x="357" y="78"/>
      <point x="365" y="96"/>
      <point x="376" y="113" type="curve" smooth="yes"/>
      <point x="665" y="566" type="line" smooth="yes"/>
      <point x="694" y="611"/>
      <point x="713" y="627"/>
      <point x="746" y="639" type="curve" smooth="yes"/>
      <point x="778" y="650"/>
      <point x="789" y="660"/>
      <point x="789" y="677" type="curve" smooth="yes"/>
      <point x="789" y="693"/>
      <point x="779" y="700"/>
      <point x="756" y="700" type="curve" smooth="yes"/>
      <point x="592" y="700" type="line" smooth="yes"/>
      <point x="573" y="700"/>
      <point x="557" y="689"/>
    </contour>
  </outline>
</glyph>
<glyph name="W" format="1">
  <advance width="921"/>
  <unicode hex="0057"/>
  <outline>
    <contour>
      <point x="601" y="589" type="line"/>
      <point x="285" y="70" type="line"/>
      <point x="333" y="79" type="line"/>
      <point x="335" y="243"/>
      <point x="339" y="481"/>
      <point x="343" y="587" type="curve" smooth="yes"/>
      <point x="344" y="624"/>
      <point x="359" y="645"/>
      <point x="391" y="650" type="curve" smooth="yes"/>
      <point x="422" y="655"/>
      <point x="437" y="665"/>
      <point x="437" y="680" type="curve" smooth="yes"/>
      <point x="437" y="694"/>
      <point x="429" y="700"/>
      <point x="413" y="700" type="curve" smooth="yes"/>
      <point x="221" y="700" type="line" smooth="yes"/>
      <point x="205" y="700"/>
      <point x="190" y="692"/>
      <point x="190" y="669" type="curve" smooth="yes"/>
      <point x="190" y="635"/>
      <point x="234" y="635"/>
      <point x="235" y="591" type="curve" smooth="yes"/>
      <point x="239" y="434"/>
      <point x="239" y="236"/>
      <point x="233" y="117" type="curve" smooth="yes"/>
      <point x="232" y="92"/>
      <point x="217" y="62"/>
      <point x="217" y="35" type="curve" smooth="yes"/>
      <point x="217" y="14"/>
      <point x="223" y="0"/>
      <point x="242" y="0" type="curve" smooth="yes"/>
      <point x="291" y="0" type="line" smooth="yes"/>
      <point x="312" y="0"/>
      <point x="327" y="15"/>
      <point x="332" y="34" type="curve" smooth="yes"/>
      <point x="345" y="79"/>
      <point x="358" y="103"/>
      <point x="372" y="127" type="curve" smooth="yes"/>
      <point x="616" y="533" type="line"/>
    </contour>
    <contour>
      <point x="886" y="674" type="curve" smooth="yes"/>
      <point x="886" y="660"/>
      <point x="896" y="648"/>
      <point x="920" y="636" type="curve" smooth="yes"/>
      <point x="948" y="621"/>
      <point x="951" y="614"/>
      <point x="952" y="606" type="curve" smooth="yes"/>
      <point x="953" y="592"/>
      <point x="947" y="577"/>
      <point x="936" y="558" type="curve" smooth="yes"/>
      <point x="642" y="61" type="line"/>
      <point x="709" y="79" type="line"/>
      <point x="693" y="245"/>
      <point x="690" y="481"/>
      <point x="690" y="587" type="curve" smooth="yes"/>
      <point x="690" y="621"/>
      <point x="704" y="642"/>
      <point x="735" y="652" type="curve" smooth="yes"/>
      <point x="762" y="661"/>
      <point x="772" y="668"/>
      <point x="772" y="681" type="curve" smooth="yes"/>
      <point x="772" y="694"/>
      <point x="766" y="700"/>
      <point x="749" y="700" type="curve" smooth="yes"/>
      <point x="560" y="700" type="line" smooth="yes"/>
      <point x="544" y="700"/>
      <point x="530" y="692"/>
      <point x="529" y="678" type="curve" smooth="yes"/>
      <point x="528" y="667"/>
      <point x="535" y="661"/>
      <point x="549" y="651" type="curve" smooth="yes"/>
      <point x="567" y="638"/>
      <point x="579" y="629"/>
      <point x="583" y="591" type="curve" smooth="yes"/>
      <point x="597" y="439"/>
      <point x="605" y="285"/>
      <point x="605" y="127" type="curve" smooth="yes"/>
      <point x="605" y="95"/>
      <point x="585" y="60"/>
      <point x="585" y="37" type="curve" smooth="yes"/>
      <point x="585" y="15"/>
      <point x="596" y="0"/>
      <point x="615" y="0" type="curve" smooth="yes"/>
      <point x="658" y="0" type="line" smooth="yes"/>
      <point x="679" y="0"/>
      <point x="699" y="16"/>
      <point x="702" y="43" type="curve" smooth="yes"/>
      <point x="706" y="78"/>
      <point x="723" y="102"/>
      <point x="737" y="126" type="curve" smooth="yes"/>
      <point x="999" y="566" type="line" smooth="yes"/>
      <point x="1031" y="619"/>
      <point x="1045" y="630"/>
      <point x="1076" y="644" type="curve" smooth="yes"/>
      <point x="1101" y="655"/>
      <point x="1110" y="664"/>
      <point x="1110" y="680" type="curve" smooth="yes"/>
      <point x="1110" y="694"/>
      <point x="1101" y="700"/>
      <point x="1083" y="700" type="curve" smooth="yes"/>
      <point x="921" y="700" type="line" smooth="yes"/>
      <point x="901" y="700"/>
      <point x="886" y="689"/>
    </contour>
    <contour>
      <point x="663" y="739" type="move" name="center"/>
    </contour>
  </outline>
</glyph>
<glyph name="X" format="1">
  <advance width="657"/>
  <unicode hex="0058"/>
  <outline>
    <contour>
      <point x="456" y="355" type="line"/>
      <point x="626" y="594"/>
      <point x="656" y="620"/>
      <point x="703" y="620" type="curve" smooth="yes"/>
      <point x="724" y="620"/>
      <point x="738" y="596"/>
      <point x="766" y="596" type="curve" smooth="yes"/>
      <point x="795" y="596"/>
      <point x="825" y="622"/>
      <point x="825" y="661" type="curve" smooth="yes"/>
      <point x="825" y="691"/>
      <point x="804" y="715"/>
      <point x="761" y="715" type="curve" smooth="yes"/>
      <point x="685" y="715"/>
      <point x="631" y="677"/>
      <point x="425" y="375" type="curve"/>
      <point x="454" y="373" type="line"/>
      <point x="419" y="458"/>
      <point x="391" y="537"/>
      <point x="371" y="606" type="curve" smooth="yes"/>
      <point x="364" y="629"/>
      <point x="376" y="645"/>
      <point x="391" y="649" type="curve" smooth="yes"/>
      <point x="411" y="654" type="line" smooth="yes"/>
      <point x="427" y="658"/>
      <point x="438" y="666"/>
      <point x="438" y="680" type="curve" smooth="yes"/>
      <point x="438" y="693"/>
      <point x="430" y="700"/>
      <point x="413" y="700" type="curve" smooth="yes"/>
      <point x="219" y="700" type="line" smooth="yes"/>
      <point x="199" y="700"/>
      <point x="186" y="692"/>
      <point x="186" y="680" type="curve" smooth="yes"/>
      <point x="186" y="668"/>
      <point x="193" y="660"/>
      <point x="214" y="651" type="curve" smooth="yes"/>
      <point x="235" y="641"/>
      <point x="243" y="637"/>
      <point x="256" y="609" type="curve" smooth="yes"/>
      <point x="290" y="527"/>
      <point x="333" y="430"/>
      <point x="365" y="346" type="curve"/>
    </contour>
    <contour>
      <point x="580" y="88" type="curve" smooth="yes"/>
      <point x="539" y="174"/>
      <point x="493" y="285"/>
      <point x="459" y="373" type="curve"/>
      <point x="379" y="368" type="line"/>
      <point x="306" y="278" type="line" smooth="yes"/>
      <point x="167" y="106"/>
      <point x="121" y="70"/>
      <point x="58" y="56" type="curve" smooth="yes"/>
      <point x="32" y="50"/>
      <point x="24" y="39"/>
      <point x="24" y="23" type="curve" smooth="yes"/>
      <point x="24" y="9"/>
      <point x="33" y="0"/>
      <point x="51" y="0" type="curve" smooth="yes"/>
      <point x="243" y="0" type="line" smooth="yes"/>
      <point x="263" y="0"/>
      <point x="278" y="11"/>
      <point x="278" y="26" type="curve" smooth="yes"/>
      <point x="278" y="36"/>
      <point x="270" y="42"/>
      <point x="254" y="54" type="curve" smooth="yes"/>
      <point x="245" y="61"/>
      <point x="240" y="71"/>
      <point x="240" y="77" type="curve" smooth="yes"/>
      <point x="240" y="110"/>
      <point x="251" y="142"/>
      <point x="347" y="266" type="curve" smooth="yes"/>
      <point x="406" y="342" type="line"/>
      <point x="369" y="345" type="line"/>
      <point x="409" y="243"/>
      <point x="437" y="169"/>
      <point x="464" y="97" type="curve" smooth="yes"/>
      <point x="468" y="84"/>
      <point x="469" y="78"/>
      <point x="469" y="73" type="curve" smooth="yes"/>
      <point x="469" y="61"/>
      <point x="458" y="52"/>
      <point x="437" y="49" type="curve" smooth="yes"/>
      <point x="415" y="46"/>
      <point x="405" y="34"/>
      <point x="405" y="19" type="curve" smooth="yes"/>
      <point x="405" y="8"/>
      <point x="412" y="0"/>
      <point x="429" y="0" type="curve" smooth="yes"/>
      <point x="613" y="0" type="line" smooth="yes"/>
      <point x="633" y="0"/>
      <point x="646" y="10"/>
      <point x="646" y="23" type="curve" smooth="yes"/>
      <point x="646" y="37"/>
      <point x="641" y="42"/>
      <point x="622" y="49" type="curve" smooth="yes"/>
      <point x="604" y="55"/>
      <point x="591" y="64"/>
    </contour>
  </outline>
</glyph>
<glyph name="Y" format="2">
  <advance width="579"/>
  <unicode hex="0059"/>
  <anchor x="469" y="748" name="center"/>
  <outline>
    <contour>
      <point x="334" y="204" type="curve"/>
      <point x="351" y="166" type="line"/>
      <point x="355" y="182"/>
      <point x="361" y="281"/>
      <point x="361" y="362" type="curve" smooth="yes"/>
      <point x="361" y="513"/>
      <point x="349" y="587"/>
      <point x="327" y="633" type="curve" smooth="yes"/>
      <point x="302" y="686"/>
      <point x="264" y="700"/>
      <point x="185" y="700" type="curve" smooth="yes"/>
      <point x="166" y="700"/>
      <point x="153" y="693"/>
      <point x="149" y="680" type="curve" smooth="yes"/>
      <point x="146" y="668"/>
      <point x="152" y="651"/>
      <point x="177" y="651" type="curve" smooth="yes"/>
      <point x="231" y="651"/>
      <point x="282" y="548"/>
      <point x="282" y="272" type="curve" smooth="yes"/>
      <point x="282" y="230"/>
      <point x="282" y="209"/>
      <point x="276" y="186" type="curve" smooth="yes"/>
      <point x="254" y="102" type="line" smooth="yes"/>
      <point x="246" y="70"/>
      <point x="228" y="54"/>
      <point x="202" y="48" type="curve" smooth="yes"/>
      <point x="176" y="42" type="line" smooth="yes"/>
      <point x="157" y="38"/>
      <point x="146" y="33"/>
      <point x="142" y="19" type="curve" smooth="yes"/>
      <point x="139" y="6"/>
      <point x="146" y="0"/>
      <point x="167" y="0" type="curve" smooth="yes"/>
      <point x="390" y="0" type="line" smooth="yes"/>
      <point x="411" y="0"/>
      <point x="422" y="6"/>
      <point x="425" y="19" type="curve" smooth="yes"/>
      <point x="429" y="33"/>
      <point x="420" y="38"/>
      <point x="403" y="42" type="curve" smooth="yes"/>
      <point x="379" y="48" type="line" smooth="yes"/>
      <point x="357" y="53"/>
      <point x="349" y="65"/>
      <point x="355" y="92" type="curve" smooth="yes"/>
      <point x="373" y="168" type="line" smooth="yes"/>
      <point x="379" y="195"/>
      <point x="391" y="216"/>
      <point x="407" y="249" type="curve" smooth="yes"/>
      <point x="560" y="581"/>
      <point x="618" y="615"/>
      <point x="656" y="615" type="curve" smooth="yes"/>
      <point x="677" y="615"/>
      <point x="693" y="597"/>
      <point x="719" y="597" type="curve" smooth="yes"/>
      <point x="748" y="597"/>
      <point x="774" y="626"/>
      <point x="774" y="666" type="curve" smooth="yes"/>
      <point x="774" y="690"/>
      <point x="755" y="715"/>
      <point x="713" y="715" type="curve" smooth="yes"/>
      <point x="611" y="715"/>
      <point x="539" y="629"/>
    </contour>
  </outline>
</glyph>
<glyph name="Z" format="1">
  <advance width="582"/>
  <unicode hex="005A"/>
  <outline>
    <contour>
      <point x="399" y="0" type="line" smooth="yes"/>
      <point x="432" y="0"/>
      <point x="450" y="-16"/>
      <point x="473" y="-16" type="curve" smooth="yes"/>
      <point x="532" y="-16"/>
      <point x="585" y="63"/>
      <point x="585" y="151" type="curve" smooth="yes"/>
      <point x="585" y="171"/>
      <point x="576" y="180"/>
      <point x="561" y="180" type="curve" smooth="yes"/>
      <point x="547" y="180"/>
      <point x="540" y="171"/>
      <point x="529" y="154" type="curve" smooth="yes"/>
      <point x="510" y="126" type="line" smooth="yes"/>
      <point x="468" y="65"/>
      <point x="435" y="41"/>
      <point x="367" y="41" type="curve" smooth="yes"/>
      <point x="134" y="41" type="line"/>
      <point x="165" y="23" type="line"/>
      <point x="324" y="226"/>
      <point x="511" y="448"/>
      <point x="686" y="641" type="curve" smooth="yes"/>
      <point x="702" y="659"/>
      <point x="709" y="669"/>
      <point x="709" y="679" type="curve" smooth="yes"/>
      <point x="709" y="692"/>
      <point x="701" y="698"/>
      <point x="681" y="698" type="curve" smooth="yes"/>
      <point x="356" y="698" type="line" smooth="yes"/>
      <point x="323" y="698"/>
      <point x="308" y="721"/>
      <point x="286" y="721" type="curve" smooth="yes"/>
      <point x="274" y="721"/>
      <point x="265" y="712"/>
      <point x="254" y="691" type="curve" smooth="yes"/>
      <point x="198" y="579" type="line" smooth="yes"/>
      <point x="192" y="567"/>
      <point x="189" y="559"/>
      <point x="189" y="552" type="curve" smooth="yes"/>
      <point x="189" y="542"/>
      <point x="194" y="536"/>
      <point x="204" y="536" type="curve" smooth="yes"/>
      <point x="217" y="536"/>
      <point x="230" y="542"/>
      <point x="251" y="564" type="curve" smooth="yes"/>
      <point x="291" y="605" type="line" smooth="yes"/>
      <point x="322" y="638"/>
      <point x="334" y="657"/>
      <point x="372" y="657" type="curve" smooth="yes"/>
      <point x="601" y="657" type="line"/>
      <point x="579" y="674" type="line"/>
      <point x="425" y="473"/>
      <point x="236" y="257"/>
      <point x="57" y="63" type="curve" smooth="yes"/>
      <point x="36" y="40"/>
      <point x="32" y="33"/>
      <point x="32" y="22" type="curve" smooth="yes"/>
      <point x="32" y="7"/>
      <point x="41" y="0"/>
      <point x="62" y="0" type="curve" smooth="yes"/>
    </contour>
  </outline>
</glyph>
<glyph name="bracketleft" format="1">
  <advance width="348"/>
  <unicode hex="005B"/>
  <outline>
    <contour>
      <point x="401" y="685" type="line" smooth="yes"/>
      <point x="406" y="704"/>
      <point x="425" y="719"/>
      <point x="443" y="719" type="curve" smooth="yes"/>
      <point x="493" y="719" type="line" smooth="yes"/>
      <point x="510" y="719"/>
      <point x="517" y="724"/>
      <point x="520" y="736" type="curve" smooth="yes"/>
      <point x="523" y="746"/>
      <point x="520" y="756"/>
      <point x="505" y="756" type="curve" smooth="yes"/>
      <point x="383" y="756" type="line" smooth="yes"/>
      <point x="360" y="756"/>
      <point x="337" y="734"/>
      <point x="329" y="707" type="curve" smooth="yes"/>
      <point x="106" y="-128" type="line" smooth="yes"/>
      <point x="98" y="-155"/>
      <point x="110" y="-177"/>
      <point x="133" y="-177" type="curve" smooth="yes"/>
      <point x="255" y="-177" type="line" smooth="yes"/>
      <point x="270" y="-177"/>
      <point x="278" y="-167"/>
      <point x="281" y="-157" type="curve" smooth="yes"/>
      <point x="284" y="-145"/>
      <point x="279" y="-140"/>
      <point x="262" y="-140" type="curve" smooth="yes"/>
      <point x="212" y="-140" type="line" smooth="yes"/>
      <point x="194" y="-140"/>
      <point x="184" y="-125"/>
      <point x="189" y="-106" type="curve" smooth="yes"/>
    </contour>
  </outline>
</glyph>
<glyph name="a" format="1">
  <advance width="491"/>
  <unicode hex="0061"/>
  <outline>
    <contour>
      <point x="440" y="63" type="curve" smooth="yes"/>
      <point x="439" y="104"/>
      <point x="450" y="188"/>
      <point x="458" y="266" type="curve" smooth="yes"/>
      <point x="471" y="369"/>
      <point x="483" y="400"/>
      <point x="490" y="415" type="curve" smooth="yes"/>
      <point x="499" y="435"/>
      <point x="504" y="438"/>
      <point x="504" y="445" type="curve" smooth="yes"/>
      <point x="504" y="472"/>
      <point x="457" y="486"/>
      <point x="406" y="486" type="curve" smooth="yes"/>
      <point x="259" y="486"/>
      <point x="98" y="277"/>
      <point x="98" y="73" type="curve" smooth="yes"/>
      <point x="98" y="8"/>
      <point x="127" y="-17"/>
      <point x="169" y="-17" type="curve" smooth="yes"/>
      <point x="254" y="-17"/>
      <point x="356" y="84"/>
      <point x="431" y="266" type="curve"/>
      <point x="420" y="265" type="line"/>
      <point x="422" y="212"/>
      <point x="392" y="96"/>
      <point x="392" y="26" type="curve" smooth="yes"/>
      <point x="393" y="0"/>
      <point x="410" y="-18"/>
      <point x="443" y="-18" type="curve" smooth="yes"/>
      <point x="478" y="-18"/>
      <point x="508" y="25"/>
      <point x="507" y="66" type="curve" smooth="yes"/>
      <point x="507" y="76"/>
      <point x="503" y="82"/>
      <point x="496" y="82" type="curve" smooth="yes"/>
      <point x="489" y="82"/>
      <point x="485" y="76"/>
      <point x="482" y="65" type="curve" smooth="yes"/>
      <point x="477" y="43"/>
      <point x="468" y="30"/>
      <point x="460" y="30" type="curve" smooth="yes"/>
      <point x="447" y="30"/>
      <point x="440" y="44"/>
    </contour>
    <contour>
      <point x="144" y="120" type="curve" smooth="yes"/>
      <point x="144" y="289"/>
      <point x="283" y="446"/>
      <point x="375" y="446" type="curve" smooth="yes"/>
      <point x="417" y="446"/>
      <point x="440" y="421"/>
      <point x="440" y="388" type="curve" smooth="yes"/>
      <point x="440" y="280"/>
      <point x="294" y="30"/>
      <point x="203" y="30" type="curve" smooth="yes"/>
      <point x="169" y="30"/>
      <point x="144" y="50"/>
    </contour>
    <contour>
      <point x="389" y="520" type="move" name="center"/>
    </contour>
  </outline>
</glyph>
<glyph name="b" format="1">
  <advance width="473"/>
  <unicode hex="0062"/>
  <outline>
    <contour>
      <point x="271" y="535" type="line" smooth="yes"/>
      <point x="289" y="609"/>
      <point x="329" y="637"/>
      <point x="383" y="637" type="curve" smooth="yes"/>
      <point x="419" y="637"/>
      <point x="471" y="603"/>
      <point x="509" y="603" type="curve" smooth="yes"/>
      <point x="555" y="603"/>
      <point x="576" y="631"/>
      <point x="576" y="658" type="curve" smooth="yes"/>
      <point x="576" y="688"/>
      <point x="548" y="715"/>
      <point x="497" y="715" type="curve" smooth="yes"/>
      <point x="328" y="715"/>
      <point x="221" y="622"/>
      <point x="184" y="480" type="curve" smooth="yes"/>
      <point x="88" y="111" type="line" smooth="yes"/>
      <point x="74" y="57"/>
      <point x="66" y="33"/>
      <point x="66" y="10" type="curve" smooth="yes"/>
      <point x="66" y="-6"/>
      <point x="75" y="-16"/>
      <point x="90" y="-16" type="curve" smooth="yes"/>
      <point x="106" y="-16"/>
      <point x="117" y="-3"/>
      <point x="133" y="28" type="curve" smooth="yes"/>
      <point x="172" y="111" type="line"/>
      <point x="145" y="138" type="line"/>
      <point x="150" y="23"/>
      <point x="190" y="-16"/>
      <point x="253" y="-16" type="curve" smooth="yes"/>
      <point x="364" y="-16"/>
      <point x="509" y="160"/>
      <point x="509" y="359" type="curve" smooth="yes"/>
      <point x="509" y="449"/>
      <point x="467" y="480"/>
      <point x="419" y="480" type="curve" smooth="yes"/>
      <point x="347" y="480"/>
      <point x="265" y="421"/>
      <point x="197" y="287" type="curve"/>
      <point x="203" y="272" type="line"/>
    </contour>
    <contour>
      <point x="369" y="386" type="curve" smooth="yes"/>
      <point x="408" y="386"/>
      <point x="437" y="362"/>
      <point x="437" y="301" type="curve" smooth="yes"/>
      <point x="437" y="154"/>
      <point x="349" y="61"/>
      <point x="262" y="61" type="curve" smooth="yes"/>
      <point x="213" y="61"/>
      <point x="185" y="96"/>
      <point x="185" y="162" type="curve" smooth="yes"/>
      <point x="185" y="268"/>
      <point x="289" y="386"/>
    </contour>
  </outline>
</glyph>
<glyph name="c" format="1">
  <advance width="393"/>
  <unicode hex="0063"/>
  <outline>
    <contour>
      <point x="303" y="408" type="curve" smooth="yes"/>
      <point x="326" y="408"/>
      <point x="340" y="398"/>
      <point x="340" y="386" type="curve" smooth="yes"/>
      <point x="340" y="374"/>
      <point x="337" y="360"/>
      <point x="337" y="350" type="curve" smooth="yes"/>
      <point x="337" y="326"/>
      <point x="355" y="311"/>
      <point x="381" y="311" type="curve" smooth="yes"/>
      <point x="411" y="311"/>
      <point x="436" y="339"/>
      <point x="436" y="387" type="curve" smooth="yes"/>
      <point x="436" y="433"/>
      <point x="404" y="480"/>
      <point x="341" y="480" type="curve" smooth="yes"/>
      <point x="200" y="480"/>
      <point x="76" y="304"/>
      <point x="76" y="145" type="curve" smooth="yes"/>
      <point x="76" y="56"/>
      <point x="128" y="-15"/>
      <point x="213" y="-15" type="curve" smooth="yes"/>
      <point x="305" y="-15"/>
      <point x="392" y="67"/>
      <point x="392" y="121" type="curve" smooth="yes"/>
      <point x="392" y="135"/>
      <point x="383" y="145"/>
      <point x="376" y="145" type="curve" smooth="yes"/>
      <point x="360" y="145"/>
      <point x="349" y="132"/>
      <point x="340" y="118" type="curve" smooth="yes"/>
      <point x="321" y="89"/>
      <point x="294" y="66"/>
      <point x="253" y="66" type="curve" smooth="yes"/>
      <point x="195" y="66"/>
      <point x="150" y="120"/>
      <point x="150" y="194" type="curve" smooth="yes"/>
      <point x="150" y="310"/>
      <point x="225" y="408"/>
    </contour>
    <contour>
      <point x="339" y="536" type="move" name="center"/>
    </contour>
  </outline>
</glyph>
<glyph name="d" format="2">
  <advance width="468"/>
  <unicode hex="0064"/>
  <outline>
    <contour>
      <point x="482" y="448" type="line"/>
      <point x="476" y="454"/>
      <point x="454" y="467"/>
      <point x="433" y="467" type="curve" smooth="yes"/>
      <point x="266" y="467"/>
      <point x="87" y="293"/>
      <point x="87" y="84" type="curve" smooth="yes"/>
      <point x="87" y="13"/>
      <point x="116" y="-15"/>
      <point x="172" y="-15" type="curve" smooth="yes"/>
      <point x="245" y="-15"/>
      <point x="333" y="77"/>
      <point x="405" y="244" type="curve"/>
      <point x="388" y="240" type="line"/>
      <point x="387" y="196"/>
      <point x="349" y="94"/>
      <point x="349" y="33" type="curve" smooth="yes"/>
      <point x="349" y="3"/>
      <point x="363" y="-15"/>
      <point x="396" y="-15" type="curve" smooth="yes"/>
      <point x="440" y="-15"/>
      <point x="481" y="29"/>
      <point x="481" y="57" type="curve" smooth="yes"/>
      <point x="481" y="68"/>
      <point x="476" y="73"/>
      <point x="468" y="73" type="curve" smooth="yes"/>
      <point x="462" y="73"/>
      <point x="456" y="69"/>
      <point x="454" y="61" type="curve" smooth="yes"/>
      <point x="451" y="42"/>
      <point x="436" y="30"/>
      <point x="417" y="30" type="curve" smooth="yes"/>
      <point x="404" y="30"/>
      <point x="393" y="43"/>
      <point x="393" y="73" type="curve" smooth="yes"/>
      <point x="393" y="94"/>
      <point x="394" y="117"/>
      <point x="399" y="133" type="curve" smooth="yes"/>
      <point x="531" y="603" type="line" smooth="yes"/>
      <point x="539" y="631"/>
      <point x="547" y="645"/>
      <point x="547" y="654" type="curve" smooth="yes"/>
      <point x="547" y="659"/>
      <point x="553" y="663"/>
      <point x="563" y="663" type="curve" smooth="yes"/>
      <point x="577" y="663"/>
      <point x="602" y="656"/>
      <point x="631" y="656" type="curve" smooth="yes"/>
      <point x="652" y="656"/>
      <point x="670" y="668"/>
      <point x="670" y="686" type="curve" smooth="yes"/>
      <point x="670" y="706"/>
      <point x="655" y="714"/>
      <point x="627" y="714" type="curve" smooth="yes"/>
      <point x="555" y="714"/>
      <point x="511" y="665"/>
      <point x="490" y="593" type="curve" smooth="yes"/>
      <point x="429" y="386" type="line" smooth="yes"/>
      <point x="370" y="187"/>
      <point x="264" y="27"/>
      <point x="194" y="27" type="curve" smooth="yes"/>
      <point x="154" y="27"/>
      <point x="133" y="54"/>
      <point x="133" y="121" type="curve" smooth="yes"/>
      <point x="133" y="267"/>
      <point x="256" y="427"/>
      <point x="383" y="427" type="curve" smooth="yes"/>
      <point x="418" y="427"/>
      <point x="438" y="412"/>
      <point x="448" y="395" type="curve"/>
    </contour>
  </outline>
</glyph>
<glyph name="e" format="1">
  <advance width="424"/>
  <unicode hex="0065"/>
  <outline>
    <contour>
      <point x="132" y="223" type="curve"/>
      <point x="137" y="194" type="line"/>
      <point x="137" y="194"/>
      <point x="351" y="308"/>
      <point x="466" y="361" type="curve" smooth="yes"/>
      <point x="478" y="365"/>
      <point x="484" y="375"/>
      <point x="484" y="382" type="curve" smooth="yes"/>
      <point x="484" y="391"/>
      <point x="478" y="395"/>
      <point x="466" y="395" type="curve" smooth="yes"/>
      <point x="458" y="395"/>
      <point x="451" y="403"/>
      <point x="451" y="411" type="curve" smooth="yes"/>
      <point x="443" y="457"/>
      <point x="411" y="486"/>
      <point x="361" y="486" type="curve" smooth="yes"/>
      <point x="246" y="486"/>
      <point x="102" y="302"/>
      <point x="102" y="147" type="curve" smooth="yes"/>
      <point x="102" y="51"/>
      <point x="148" y="-15"/>
      <point x="232" y="-15" type="curve" smooth="yes"/>
      <point x="351" y="-15"/>
      <point x="432" y="80"/>
      <point x="432" y="144" type="curve" smooth="yes"/>
      <point x="432" y="154"/>
      <point x="427" y="159"/>
      <point x="421" y="159" type="curve" smooth="yes"/>
      <point x="413" y="159"/>
      <point x="408" y="154"/>
      <point x="403" y="141" type="curve" smooth="yes"/>
      <point x="377" y="71"/>
      <point x="323" y="29"/>
      <point x="259" y="29" type="curve" smooth="yes"/>
      <point x="196" y="29"/>
      <point x="143" y="92"/>
      <point x="143" y="181" type="curve" smooth="yes"/>
      <point x="143" y="316"/>
      <point x="261" y="449"/>
      <point x="344" y="449" type="curve" smooth="yes"/>
      <point x="376" y="449"/>
      <point x="398" y="423"/>
      <point x="398" y="381" type="curve" smooth="yes"/>
      <point x="398" y="356"/>
      <point x="395" y="343"/>
      <point x="392" y="334" type="curve"/>
      <point x="407" y="365" type="line"/>
      <point x="302" y="309"/>
      <point x="132" y="223"/>
    </contour>
    <contour>
      <point x="364" y="528" type="move" name="center"/>
    </contour>
  </outline>
</glyph>
<glyph name="f" format="1">
  <advance width="271"/>
  <unicode hex="0066"/>
  <outline>
    <contour>
      <point x="238" y="418" type="line"/>
      <point x="349" y="418" type="line" smooth="yes"/>
      <point x="371" y="418"/>
      <point x="386" y="429"/>
      <point x="386" y="447" type="curve" smooth="yes"/>
      <point x="386" y="459"/>
      <point x="378" y="465"/>
      <point x="363" y="465" type="curve" smooth="yes"/>
      <point x="244" y="465" type="line"/>
    </contour>
    <contour>
      <point x="112" y="441" type="curve" smooth="yes"/>
      <point x="112" y="431"/>
      <point x="120" y="421"/>
      <point x="140" y="414" type="curve" smooth="yes"/>
      <point x="169" y="403"/>
      <point x="181" y="375"/>
      <point x="171" y="343" type="curve" smooth="yes"/>
      <point x="34" y="-101" type="line" smooth="yes"/>
      <point x="24" y="-133"/>
      <point x="20" y="-156"/>
      <point x="21" y="-187" type="curve" smooth="yes"/>
      <point x="23" y="-215"/>
      <point x="40" y="-230"/>
      <point x="70" y="-230" type="curve" smooth="yes"/>
      <point x="102" y="-230"/>
      <point x="134" y="-203"/>
      <point x="134" y="-168" type="curve" smooth="yes"/>
      <point x="134" y="-131"/>
      <point x="122" y="-126"/>
      <point x="122" y="-93" type="curve" smooth="yes"/>
      <point x="122" y="-81"/>
      <point x="123" y="-65"/>
      <point x="129" y="-43" type="curve" smooth="yes"/>
      <point x="290" y="524" type="line" smooth="yes"/>
      <point x="300" y="560"/>
      <point x="295" y="587"/>
      <point x="295" y="612" type="curve" smooth="yes"/>
      <point x="295" y="633"/>
      <point x="305" y="643"/>
      <point x="319" y="643" type="curve" smooth="yes"/>
      <point x="347" y="643"/>
      <point x="371" y="599"/>
      <point x="402" y="599" type="curve" smooth="yes"/>
      <point x="434" y="599"/>
      <point x="451" y="624"/>
      <point x="451" y="654" type="curve" smooth="yes"/>
      <point x="451" y="688"/>
      <point x="428" y="718"/>
      <point x="386" y="718" type="curve" smooth="yes"/>
      <point x="306" y="718"/>
      <point x="236" y="617"/>
      <point x="208" y="508" type="curve" smooth="yes"/>
      <point x="197" y="465" type="line"/>
      <point x="142" y="465" type="line" smooth="yes"/>
      <point x="124" y="465"/>
      <point x="112" y="455"/>
    </contour>
  </outline>
</glyph>
<glyph name="g" format="2">
  <advance width="474"/>
  <unicode hex="0067"/>
  <outline>
    <contour>
      <point x="435" y="15" type="curve" smooth="yes"/>
      <point x="454" y="103"/>
      <point x="456" y="253"/>
      <point x="462" y="311" type="curve" smooth="yes"/>
      <point x="467" y="360"/>
      <point x="508" y="385"/>
      <point x="508" y="420" type="curve" smooth="yes"/>
      <point x="508" y="458"/>
      <point x="467" y="479"/>
      <point x="390" y="479" type="curve" smooth="yes"/>
      <point x="228" y="479"/>
      <point x="69" y="279"/>
      <point x="69" y="98" type="curve" smooth="yes"/>
      <point x="69" y="23"/>
      <point x="105" y="-15"/>
      <point x="162" y="-15" type="curve" smooth="yes"/>
      <point x="240" y="-15"/>
      <point x="347" y="76"/>
      <point x="413" y="301" type="curve"/>
      <point x="378" y="262" type="line"/>
      <point x="378" y="217"/>
      <point x="380" y="125"/>
      <point x="347" y="-13" type="curve" smooth="yes"/>
      <point x="315" y="-145"/>
      <point x="262" y="-177"/>
      <point x="198" y="-177" type="curve" smooth="yes"/>
      <point x="170" y="-177"/>
      <point x="143" y="-163"/>
      <point x="124" y="-144" type="curve" smooth="yes"/>
      <point x="102" y="-122"/>
      <point x="82" y="-109"/>
      <point x="65" y="-109" type="curve" smooth="yes"/>
      <point x="37" y="-109"/>
      <point x="21" y="-130"/>
      <point x="21" y="-157" type="curve" smooth="yes"/>
      <point x="21" y="-203"/>
      <point x="48" y="-245"/>
      <point x="148" y="-245" type="curve" smooth="yes"/>
      <point x="257" y="-245"/>
      <point x="393" y="-169"/>
    </contour>
    <contour>
      <point x="143" y="143" type="curve" smooth="yes"/>
      <point x="143" y="284"/>
      <point x="249" y="404"/>
      <point x="330" y="404" type="curve" smooth="yes"/>
      <point x="373" y="404"/>
      <point x="398" y="394"/>
      <point x="398" y="380" type="curve" smooth="yes"/>
      <point x="398" y="278"/>
      <point x="286" y="73"/>
      <point x="198" y="73" type="curve" smooth="yes"/>
      <point x="164" y="73"/>
      <point x="143" y="95"/>
    </contour>
  </outline>
</glyph>
<glyph name="h" format="1">
  <advance width="517"/>
  <unicode hex="0068"/>
  <outline>
    <contour>
      <point x="205" y="231" type="curve" smooth="yes"/>
      <point x="186" y="170"/>
      <point x="171" y="133"/>
      <point x="171" y="110" type="curve" smooth="yes"/>
      <point x="171" y="75"/>
      <point x="183" y="64"/>
      <point x="183" y="43" type="curve" smooth="yes"/>
      <point x="183" y="8"/>
      <point x="161" y="-17"/>
      <point x="136" y="-17" type="curve" smooth="yes"/>
      <point x="117" y="-17"/>
      <point x="110" y="-3"/>
      <point x="110" y="21" type="curve" smooth="yes"/>
      <point x="110" y="38"/>
      <point x="114" y="53"/>
      <point x="129" y="108" type="curve" smooth="yes"/>
      <point x="222" y="461" type="line" smooth="yes"/>
      <point x="273" y="648"/>
      <point x="344" y="715"/>
      <point x="540" y="715" type="curve" smooth="yes"/>
      <point x="590" y="715"/>
      <point x="617" y="696"/>
      <point x="617" y="676" type="curve" smooth="yes"/>
      <point x="617" y="659"/>
      <point x="606" y="649"/>
      <point x="583" y="649" type="curve" smooth="yes"/>
      <point x="555" y="649"/>
      <point x="494" y="673"/>
      <point x="430" y="673" type="curve" smooth="yes"/>
      <point x="361" y="673"/>
      <point x="301" y="620"/>
      <point x="275" y="508" type="curve" smooth="yes"/>
      <point x="253" y="400"/>
      <point x="222" y="320"/>
      <point x="224" y="299" type="curve"/>
      <point x="202" y="272" type="line"/>
      <point x="265" y="406"/>
      <point x="371" y="486"/>
      <point x="456" y="486" type="curve" smooth="yes"/>
      <point x="491" y="486"/>
      <point x="512" y="462"/>
      <point x="512" y="427" type="curve" smooth="yes"/>
      <point x="512" y="379"/>
      <point x="495" y="348"/>
      <point x="477" y="295" type="curve" smooth="yes"/>
      <point x="440" y="181" type="line" smooth="yes"/>
      <point x="429" y="147"/>
      <point x="419" y="112"/>
      <point x="421" y="80" type="curve" smooth="yes"/>
      <point x="422" y="55"/>
      <point x="434" y="40"/>
      <point x="449" y="40" type="curve" smooth="yes"/>
      <point x="468" y="40"/>
      <point x="485" y="57"/>
      <point x="499" y="83" type="curve" smooth="yes"/>
      <point x="504" y="93"/>
      <point x="510" y="99"/>
      <point x="514" y="99" type="curve" smooth="yes"/>
      <point x="520" y="99"/>
      <point x="525" y="95"/>
      <point x="525" y="83" type="curve" smooth="yes"/>
      <point x="526" y="41"/>
      <point x="477" y="-17"/>
      <point x="414" y="-17" type="curve" smooth="yes"/>
      <point x="382" y="-17"/>
      <point x="365" y="10"/>
      <point x="365" y="42" type="curve" smooth="yes"/>
      <point x="364" y="76"/>
      <point x="376" y="108"/>
      <point x="390" y="147" type="curve" smooth="yes"/>
      <point x="446" y="306" type="line" smooth="yes"/>
      <point x="456" y="334"/>
      <point x="463" y="362"/>
      <point x="463" y="390" type="curve" smooth="yes"/>
      <point x="462" y="420"/>
      <point x="450" y="439"/>
      <point x="418" y="439" type="curve" smooth="yes"/>
      <point x="363" y="439"/>
      <point x="252" y="366"/>
    </contour>
  </outline>
</glyph>
<glyph name="i" format="1">
  <advance width="301"/>
  <unicode hex="0069"/>
  <outline>
    <contour>
      <point x="193" y="79" type="curve" smooth="yes"/>
      <point x="193" y="99"/>
      <point x="202" y="138"/>
      <point x="222" y="188" type="curve" smooth="yes"/>
      <point x="271" y="311" type="line" smooth="yes"/>
      <point x="296" y="371"/>
      <point x="310" y="410"/>
      <point x="309" y="443" type="curve" smooth="yes"/>
      <point x="309" y="469"/>
      <point x="294" y="486"/>
      <point x="266" y="486" type="curve" smooth="yes"/>
      <point x="211" y="486"/>
      <point x="132" y="404"/>
      <point x="133" y="377" type="curve" smooth="yes"/>
      <point x="134" y="367"/>
      <point x="139" y="365"/>
      <point x="146" y="365" type="curve" smooth="yes"/>
      <point x="152" y="365"/>
      <point x="160" y="370"/>
      <point x="167" y="380" type="curve" smooth="yes"/>
      <point x="188" y="408"/>
      <point x="199" y="427"/>
      <point x="223" y="427" type="curve" smooth="yes"/>
      <point x="244" y="427"/>
      <point x="254" y="416"/>
      <point x="254" y="393" type="curve" smooth="yes"/>
      <point x="254" y="371"/>
      <point x="251" y="349"/>
      <point x="240" y="322" type="curve" smooth="yes"/>
      <point x="182" y="176" type="line" smooth="yes"/>
      <point x="157" y="113"/>
      <point x="140" y="72"/>
      <point x="141" y="36" type="curve" smooth="yes"/>
      <point x="142" y="8"/>
      <point x="161" y="-17"/>
      <point x="199" y="-17" type="curve" smooth="yes"/>
      <point x="252" y="-17"/>
      <point x="309" y="40"/>
      <point x="309" y="74" type="curve" smooth="yes"/>
      <point x="308" y="85"/>
      <point x="303" y="92"/>
      <point x="297" y="92" type="curve" smooth="yes"/>
      <point x="289" y="92"/>
      <point x="284" y="88"/>
      <point x="278" y="78" type="curve" smooth="yes"/>
      <point x="266" y="55"/>
      <point x="248" y="37"/>
      <point x="226" y="37" type="curve" smooth="yes"/>
      <point x="207" y="37"/>
      <point x="193" y="54"/>
    </contour>
    <contour>
      <point x="308" y="593" type="curve" smooth="yes"/>
      <point x="333" y="593"/>
      <point x="365" y="634"/>
      <point x="365" y="695" type="curve" smooth="yes"/>
      <point x="365" y="717"/>
      <point x="355" y="730"/>
      <point x="342" y="730" type="curve" smooth="yes"/>
      <point x="313" y="730"/>
      <point x="283" y="680"/>
      <point x="283" y="630" type="curve" smooth="yes"/>
      <point x="283" y="608"/>
      <point x="295" y="593"/>
    </contour>
  </outline>
</glyph>
<glyph name="j" format="1">
  <advance width="284"/>
  <unicode hex="006A"/>
  <outline>
    <contour>
      <point x="277" y="299" type="curve" smooth="yes"/>
      <point x="195" y="-35" type="line" smooth="yes"/>
      <point x="168" y="-146"/>
      <point x="90" y="-245"/>
      <point x="5" y="-245" type="curve" smooth="yes"/>
      <point x="-38" y="-245"/>
      <point x="-61" y="-218"/>
      <point x="-61" y="-188" type="curve" smooth="yes"/>
      <point x="-61" y="-152"/>
      <point x="-39" y="-122"/>
      <point x="1" y="-122" type="curve" smooth="yes"/>
      <point x="26" y="-122"/>
      <point x="46" y="-170"/>
      <point x="69" y="-170" type="curve" smooth="yes"/>
      <point x="84" y="-170"/>
      <point x="95" y="-160"/>
      <point x="95" y="-139" type="curve" smooth="yes"/>
      <point x="95" y="-113"/>
      <point x="95" y="-98"/>
      <point x="108" y="-49" type="curve" smooth="yes"/>
      <point x="202" y="317" type="line" smooth="yes"/>
      <point x="208" y="342"/>
      <point x="212" y="356"/>
      <point x="211" y="374" type="curve" smooth="yes"/>
      <point x="211" y="387"/>
      <point x="203" y="394"/>
      <point x="189" y="394" type="curve" smooth="yes"/>
      <point x="174" y="394"/>
      <point x="165" y="386"/>
      <point x="153" y="373" type="curve" smooth="yes"/>
      <point x="142" y="360"/>
      <point x="133" y="352"/>
      <point x="124" y="352" type="curve" smooth="yes"/>
      <point x="112" y="352"/>
      <point x="103" y="358"/>
      <point x="102" y="375" type="curve" smooth="yes"/>
      <point x="101" y="409"/>
      <point x="191" y="480"/>
      <point x="262" y="480" type="curve" smooth="yes"/>
      <point x="295" y="480"/>
      <point x="311" y="462"/>
      <point x="312" y="436" type="curve" smooth="yes"/>
      <point x="314" y="398"/>
      <point x="288" y="345"/>
    </contour>
    <contour>
      <point x="294" y="562" type="curve" smooth="yes"/>
      <point x="331" y="562"/>
      <point x="369" y="605"/>
      <point x="369" y="654" type="curve" smooth="yes"/>
      <point x="369" y="690"/>
      <point x="347" y="715"/>
      <point x="319" y="715" type="curve" smooth="yes"/>
      <point x="280" y="715"/>
      <point x="243" y="669"/>
      <point x="243" y="624" type="curve" smooth="yes"/>
      <point x="243" y="588"/>
      <point x="265" y="562"/>
    </contour>
  </outline>
</glyph>
<glyph name="k" format="1">
  <advance width="510"/>
  <unicode hex="006B"/>
  <outline>
    <contour>
      <point x="184" y="237" type="line"/>
      <point x="247" y="388"/>
      <point x="364" y="479"/>
      <point x="473" y="479" type="curve" smooth="yes"/>
      <point x="519" y="479"/>
      <point x="549" y="453"/>
      <point x="549" y="404" type="curve" smooth="yes"/>
      <point x="549" y="304"/>
      <point x="457" y="237"/>
      <point x="175" y="157" type="curve"/>
      <point x="173" y="186" type="line"/>
      <point x="417" y="269"/>
      <point x="462" y="308"/>
      <point x="462" y="361" type="curve" smooth="yes"/>
      <point x="462" y="385"/>
      <point x="447" y="398"/>
      <point x="415" y="398" type="curve" smooth="yes"/>
      <point x="336" y="398"/>
      <point x="235" y="330"/>
      <point x="195" y="184" type="curve" smooth="yes"/>
      <point x="188" y="159"/>
      <point x="185" y="141"/>
      <point x="185" y="128" type="curve" smooth="yes"/>
      <point x="185" y="90"/>
      <point x="203" y="74"/>
      <point x="203" y="50" type="curve" smooth="yes"/>
      <point x="203" y="11"/>
      <point x="167" y="-16"/>
      <point x="127" y="-16" type="curve" smooth="yes"/>
      <point x="98" y="-16"/>
      <point x="79" y="3"/>
      <point x="79" y="36" type="curve" smooth="yes"/>
      <point x="79" y="55"/>
      <point x="84" y="77"/>
      <point x="92" y="105" type="curve" smooth="yes"/>
      <point x="200" y="474" type="line" smooth="yes"/>
      <point x="242" y="616"/>
      <point x="363" y="716"/>
      <point x="534" y="716" type="curve" smooth="yes"/>
      <point x="600" y="716"/>
      <point x="632" y="689"/>
      <point x="632" y="661" type="curve" smooth="yes"/>
      <point x="632" y="630"/>
      <point x="607" y="602"/>
      <point x="564" y="602" type="curve" smooth="yes"/>
      <point x="516" y="602"/>
      <point x="453" y="642"/>
      <point x="408" y="642" type="curve" smooth="yes"/>
      <point x="355" y="642"/>
      <point x="311" y="596"/>
      <point x="295" y="538" type="curve" smooth="yes"/>
      <point x="249" y="382"/>
      <point x="222" y="339"/>
      <point x="222" y="288" type="curve"/>
    </contour>
    <contour>
      <point x="284" y="218" type="curve"/>
      <point x="330" y="245" type="line"/>
      <point x="389" y="109"/>
      <point x="413" y="86"/>
      <point x="446" y="86" type="curve" smooth="yes"/>
      <point x="473" y="86"/>
      <point x="480" y="115"/>
      <point x="499" y="115" type="curve" smooth="yes"/>
      <point x="510" y="115"/>
      <point x="516" y="108"/>
      <point x="516" y="93" type="curve" smooth="yes"/>
      <point x="516" y="33"/>
      <point x="461" y="-15"/>
      <point x="407" y="-15" type="curve" smooth="yes"/>
      <point x="363" y="-15"/>
      <point x="335" y="25"/>
    </contour>
  </outline>
</glyph>
<glyph name="l" format="2">
  <advance width="277"/>
  <unicode hex="006C"/>
  <outline>
    <contour>
      <point x="399" y="715" type="curve" smooth="yes"/>
      <point x="326" y="715"/>
      <point x="250" y="651"/>
      <point x="197" y="481" type="curve" smooth="yes"/>
      <point x="112" y="206" type="line" smooth="yes"/>
      <point x="93" y="143"/>
      <point x="77" y="106"/>
      <point x="77" y="53" type="curve" smooth="yes"/>
      <point x="77" y="12"/>
      <point x="100" y="-15"/>
      <point x="144" y="-15" type="curve" smooth="yes"/>
      <point x="222" y="-15"/>
      <point x="277" y="45"/>
      <point x="277" y="92" type="curve" smooth="yes"/>
      <point x="277" y="99"/>
      <point x="273" y="106"/>
      <point x="265" y="106" type="curve" smooth="yes"/>
      <point x="256" y="106"/>
      <point x="250" y="102"/>
      <point x="243" y="93" type="curve" smooth="yes"/>
      <point x="238" y="86"/>
      <point x="228" y="73"/>
      <point x="210" y="73" type="curve" smooth="yes"/>
      <point x="191" y="73"/>
      <point x="176" y="92"/>
      <point x="176" y="130" type="curve" smooth="yes"/>
      <point x="176" y="156"/>
      <point x="180" y="191"/>
      <point x="193" y="233" type="curve" smooth="yes"/>
      <point x="291" y="546" type="line" smooth="yes"/>
      <point x="302" y="583"/>
      <point x="297" y="641"/>
      <point x="322" y="641" type="curve" smooth="yes"/>
      <point x="343" y="641"/>
      <point x="357" y="598"/>
      <point x="397" y="598" type="curve" smooth="yes"/>
      <point x="433" y="598"/>
      <point x="449" y="628"/>
      <point x="449" y="662" type="curve" smooth="yes"/>
      <point x="449" y="690"/>
      <point x="433" y="715"/>
    </contour>
  </outline>
</glyph>
<glyph name="n" format="1">
  <advance width="540"/>
  <unicode hex="006E"/>
  <outline>
    <contour>
      <point x="135" y="354" type="curve" smooth="yes"/>
      <point x="144" y="354"/>
      <point x="149" y="361"/>
      <point x="155" y="371" type="curve" smooth="yes"/>
      <point x="170" y="408"/>
      <point x="190" y="424"/>
      <point x="215" y="424" type="curve" smooth="yes"/>
      <point x="233" y="424"/>
      <point x="243" y="411"/>
      <point x="244" y="389" type="curve" smooth="yes"/>
      <point x="244" y="367"/>
      <point x="238" y="334"/>
      <point x="226" y="303" type="curve" smooth="yes"/>
      <point x="145" y="95" type="line" smooth="yes"/>
      <point x="135" y="69"/>
      <point x="126" y="43"/>
      <point x="127" y="17" type="curve" smooth="yes"/>
      <point x="127" y="-3"/>
      <point x="137" y="-17"/>
      <point x="157" y="-17" type="curve" smooth="yes"/>
      <point x="174" y="-17"/>
      <point x="199" y="6"/>
      <point x="199" y="35" type="curve" smooth="yes"/>
      <point x="198" y="59"/>
      <point x="192" y="81"/>
      <point x="192" y="100" type="curve" smooth="yes"/>
      <point x="192" y="123"/>
      <point x="200" y="147"/>
      <point x="230" y="220" type="curve" smooth="yes"/>
      <point x="282" y="356"/>
      <point x="380" y="438"/>
      <point x="445" y="438" type="curve" smooth="yes"/>
      <point x="480" y="438"/>
      <point x="493" y="418"/>
      <point x="494" y="391" type="curve" smooth="yes"/>
      <point x="494" y="369"/>
      <point x="488" y="341"/>
      <point x="478" y="312" type="curve" smooth="yes"/>
      <point x="404" y="113" type="line" smooth="yes"/>
      <point x="393" y="83"/>
      <point x="383" y="58"/>
      <point x="386" y="30" type="curve" smooth="yes"/>
      <point x="388" y="3"/>
      <point x="401" y="-17"/>
      <point x="430" y="-17" type="curve" smooth="yes"/>
      <point x="501" y="-17"/>
      <point x="553" y="46"/>
      <point x="552" y="82" type="curve" smooth="yes"/>
      <point x="552" y="94"/>
      <point x="545" y="99"/>
      <point x="538" y="99" type="curve" smooth="yes"/>
      <point x="533" y="99"/>
      <point x="529" y="94"/>
      <point x="522" y="81" type="curve" smooth="yes"/>
      <point x="510" y="58"/>
      <point x="492" y="35"/>
      <point x="472" y="35" type="curve" smooth="yes"/>
      <point x="455" y="35"/>
      <point x="441" y="50"/>
      <point x="438" y="73" type="curve" smooth="yes"/>
      <point x="436" y="97"/>
      <point x="445" y="123"/>
      <point x="453" y="148" type="curve" smooth="yes"/>
      <point x="507" y="303" type="line" smooth="yes"/>
      <point x="525" y="355"/>
      <point x="540" y="384"/>
      <point x="540" y="430" type="curve" smooth="yes"/>
      <point x="540" y="462"/>
      <point x="522" y="486"/>
      <point x="486" y="486" type="curve" smooth="yes"/>
      <point x="406" y="486"/>
      <point x="331" y="431"/>
      <point x="257" y="328" type="curve"/>
      <point x="256" y="297" type="line"/>
      <point x="253" y="317"/>
      <point x="280" y="364"/>
      <point x="280" y="434" type="curve" smooth="yes"/>
      <point x="280" y="464"/>
      <point x="267" y="486"/>
      <point x="237" y="486" type="curve" smooth="yes"/>
      <point x="195" y="486"/>
      <point x="122" y="418"/>
      <point x="123" y="369" type="curve" smooth="yes"/>
      <point x="123" y="361"/>
      <point x="127" y="354"/>
    </contour>
  </outline>
</glyph>
<glyph name="o" format="1">
  <advance width="426"/>
  <unicode hex="006F"/>
  <outline>
    <contour>
      <point x="369" y="486" type="curve" smooth="yes"/>
      <point x="221" y="486"/>
      <point x="105" y="292"/>
      <point x="105" y="107" type="curve" smooth="yes"/>
      <point x="105" y="27"/>
      <point x="153" y="-17"/>
      <point x="207" y="-17" type="curve" smooth="yes"/>
      <point x="351" y="-17"/>
      <point x="461" y="173"/>
      <point x="461" y="365" type="curve" smooth="yes"/>
      <point x="461" y="444"/>
      <point x="415" y="486"/>
    </contour>
    <contour>
      <point x="235" y="32" type="curve" smooth="yes"/>
      <point x="189" y="32"/>
      <point x="146" y="71"/>
      <point x="146" y="154" type="curve" smooth="yes"/>
      <point x="146" y="286"/>
      <point x="234" y="436"/>
      <point x="338" y="436" type="curve" smooth="yes"/>
      <point x="387" y="436"/>
      <point x="421" y="396"/>
      <point x="421" y="315" type="curve" smooth="yes"/>
      <point x="421" y="169"/>
      <point x="336" y="32"/>
    </contour>
  </outline>
</glyph>
<glyph name="p" format="1">
  <advance width="507"/>
  <unicode hex="0070"/>
  <outline>
    <contour>
      <point x="332" y="511" type="line" smooth="yes"/>
      <point x="337" y="529"/>
      <point x="339" y="540"/>
      <point x="339" y="552" type="curve" smooth="yes"/>
      <point x="339" y="572"/>
      <point x="328" y="586"/>
      <point x="311" y="586" type="curve" smooth="yes"/>
      <point x="292" y="586"/>
      <point x="276" y="570"/>
      <point x="269" y="548" type="curve" smooth="yes"/>
      <point x="57" y="-135" type="line" smooth="yes"/>
      <point x="51" y="-153"/>
      <point x="38" y="-165"/>
      <point x="16" y="-178" type="curve" smooth="yes"/>
      <point x="-9" y="-191"/>
      <point x="-18" y="-201"/>
      <point x="-18" y="-211" type="curve" smooth="yes"/>
      <point x="-18" y="-227"/>
      <point x="-5" y="-236"/>
      <point x="13" y="-235" type="curve" smooth="yes"/>
      <point x="169" y="-230" type="line" smooth="yes"/>
      <point x="188" y="-229"/>
      <point x="201" y="-220"/>
      <point x="201" y="-207" type="curve" smooth="yes"/>
      <point x="201" y="-195"/>
      <point x="192" y="-187"/>
      <point x="171" y="-178" type="curve" smooth="yes"/>
      <point x="149" y="-168"/>
      <point x="141" y="-158"/>
      <point x="141" y="-141" type="curve" smooth="yes"/>
      <point x="141" y="-125"/>
      <point x="147" y="-104"/>
      <point x="153" y="-85" type="curve" smooth="yes"/>
    </contour>
    <contour>
      <point x="120" y="342" type="curve" smooth="yes"/>
      <point x="130" y="342"/>
      <point x="138" y="350"/>
      <point x="146" y="357" type="curve" smooth="yes"/>
      <point x="185" y="391"/>
      <point x="230" y="411"/>
      <point x="312" y="411" type="curve" smooth="yes"/>
      <point x="398" y="411"/>
      <point x="449" y="357"/>
      <point x="449" y="254" type="curve" smooth="yes"/>
      <point x="449" y="128"/>
      <point x="371" y="52"/>
      <point x="291" y="52" type="curve" smooth="yes"/>
      <point x="238" y="52"/>
      <point x="206" y="80"/>
      <point x="204" y="127" type="curve"/>
      <point x="140" y="91" type="line"/>
      <point x="140" y="35"/>
      <point x="187" y="-16"/>
      <point x="264" y="-16" type="curve" smooth="yes"/>
      <point x="397" y="-16"/>
      <point x="529" y="137"/>
      <point x="529" y="313" type="curve" smooth="yes"/>
      <point x="529" y="420"/>
      <point x="470" y="480"/>
      <point x="351" y="480" type="curve" smooth="yes"/>
      <point x="242" y="480"/>
      <point x="178" y="451"/>
      <point x="118" y="393" type="curve" smooth="yes"/>
      <point x="111" y="386"/>
      <point x="100" y="374"/>
      <point x="100" y="360" type="curve" smooth="yes"/>
      <point x="100" y="348"/>
      <point x="109" y="342"/>
    </contour>
  </outline>
</glyph>
<glyph name="q" format="2">
  <advance width="481"/>
  <unicode hex="0071"/>
  <outline>
    <contour>
      <point x="144" y="144" type="curve" smooth="yes"/>
      <point x="144" y="284"/>
      <point x="259" y="404"/>
      <point x="350" y="404" type="curve" smooth="yes"/>
      <point x="393" y="404"/>
      <point x="418" y="394"/>
      <point x="418" y="380" type="curve" smooth="yes"/>
      <point x="418" y="278"/>
      <point x="296" y="74"/>
      <point x="199" y="74" type="curve" smooth="yes"/>
      <point x="165" y="74"/>
      <point x="144" y="96"/>
    </contour>
    <contour>
      <point x="403" y="262" type="line"/>
      <point x="301" y="-114" type="line" smooth="yes"/>
      <point x="293" y="-140"/>
      <point x="280" y="-161"/>
      <point x="252" y="-172" type="curve" smooth="yes"/>
      <point x="222" y="-183"/>
      <point x="209" y="-195"/>
      <point x="209" y="-206" type="curve" smooth="yes"/>
      <point x="209" y="-222"/>
      <point x="221" y="-231"/>
      <point x="237" y="-230" type="curve" smooth="yes"/>
      <point x="393" y="-225" type="line" smooth="yes"/>
      <point x="412" y="-224"/>
      <point x="425" y="-214"/>
      <point x="425" y="-199" type="curve" smooth="yes"/>
      <point x="425" y="-175"/>
      <point x="380" y="-167"/>
      <point x="380" y="-135" type="curve" smooth="yes"/>
      <point x="380" y="-119"/>
      <point x="383" y="-102"/>
      <point x="390" y="-74" type="curve" smooth="yes"/>
      <point x="481" y="311" type="line" smooth="yes"/>
      <point x="492" y="359"/>
      <point x="528" y="385"/>
      <point x="528" y="420" type="curve" smooth="yes"/>
      <point x="528" y="458"/>
      <point x="487" y="479"/>
      <point x="410" y="479" type="curve" smooth="yes"/>
      <point x="238" y="479"/>
      <point x="69" y="279"/>
      <point x="69" y="98" type="curve" smooth="yes"/>
      <point x="69" y="23"/>
      <point x="105" y="-15"/>
      <point x="162" y="-15" type="curve" smooth="yes"/>
      <point x="246" y="-15"/>
      <point x="367" y="75"/>
      <point x="433" y="301" type="curve"/>
    </contour>
  </outline>
</glyph>
<glyph name="r" format="1">
  <advance width="387"/>
  <unicode hex="0072"/>
  <outline>
    <contour>
      <point x="121" y="349" type="curve" smooth="yes"/>
      <point x="130" y="349"/>
      <point x="139" y="354"/>
      <point x="148" y="368" type="curve" smooth="yes"/>
      <point x="157" y="383"/>
      <point x="168" y="394"/>
      <point x="186" y="394" type="curve" smooth="yes"/>
      <point x="204" y="394"/>
      <point x="210" y="379"/>
      <point x="210" y="366" type="curve" smooth="yes"/>
      <point x="210" y="346"/>
      <point x="207" y="329"/>
      <point x="197" y="305" type="curve" smooth="yes"/>
      <point x="128" y="135" type="line" smooth="yes"/>
      <point x="115" y="104"/>
      <point x="108" y="75"/>
      <point x="108" y="45" type="curve" smooth="yes"/>
      <point x="108" y="12"/>
      <point x="124" y="-15"/>
      <point x="157" y="-15" type="curve" smooth="yes"/>
      <point x="193" y="-15"/>
      <point x="223" y="6"/>
      <point x="223" y="34" type="curve" smooth="yes"/>
      <point x="223" y="52"/>
      <point x="207" y="78"/>
      <point x="207" y="114" type="curve" smooth="yes"/>
      <point x="207" y="127"/>
      <point x="207" y="145"/>
      <point x="221" y="172" type="curve" smooth="yes"/>
      <point x="304" y="329"/>
      <point x="346" y="364"/>
      <point x="397" y="365" type="curve" smooth="yes"/>
      <point x="454" y="366"/>
      <point x="488" y="400"/>
      <point x="488" y="441" type="curve" smooth="yes"/>
      <point x="487" y="466"/>
      <point x="468" y="480"/>
      <point x="446" y="480" type="curve" smooth="yes"/>
      <point x="398" y="480"/>
      <point x="339" y="448"/>
      <point x="190" y="166" type="curve"/>
      <point x="228" y="218"/>
      <point x="233" y="217"/>
      <point x="233" y="218" type="curve" smooth="yes"/>
      <point x="233" y="270"/>
      <point x="285" y="383"/>
      <point x="285" y="443" type="curve" smooth="yes"/>
      <point x="285" y="465"/>
      <point x="272" y="480"/>
      <point x="253" y="480" type="curve" smooth="yes"/>
      <point x="184" y="480"/>
      <point x="103" y="416"/>
      <point x="103" y="374" type="curve" smooth="yes"/>
      <point x="103" y="357"/>
      <point x="110" y="349"/>
    </contour>
  </outline>
</glyph>
<glyph name="s" format="1">
  <advance width="352"/>
  <unicode hex="0073"/>
  <outline>
    <contour>
      <point x="223" y="23" type="curve" smooth="yes"/>
      <point x="183" y="23"/>
      <point x="146" y="43"/>
      <point x="118" y="73" type="curve" smooth="yes"/>
      <point x="107" y="83"/>
      <point x="97" y="91"/>
      <point x="87" y="91" type="curve" smooth="yes"/>
      <point x="73" y="91"/>
      <point x="65" y="83"/>
      <point x="65" y="64" type="curve" smooth="yes"/>
      <point x="65" y="21"/>
      <point x="111" y="-17"/>
      <point x="182" y="-17" type="curve" smooth="yes"/>
      <point x="277" y="-17"/>
      <point x="341" y="41"/>
      <point x="341" y="109" type="curve" smooth="yes"/>
      <point x="341" y="145"/>
      <point x="323" y="176"/>
      <point x="271" y="235" type="curve" smooth="yes"/>
      <point x="206" y="308"/>
      <point x="186" y="343"/>
      <point x="186" y="374" type="curve" smooth="yes"/>
      <point x="186" y="419"/>
      <point x="225" y="457"/>
      <point x="288" y="457" type="curve" smooth="yes"/>
      <point x="324" y="457"/>
      <point x="355" y="434"/>
      <point x="374" y="408" type="curve" smooth="yes"/>
      <point x="388" y="387"/>
      <point x="401" y="379"/>
      <point x="414" y="379" type="curve" smooth="yes"/>
      <point x="428" y="379"/>
      <point x="437" y="388"/>
      <point x="437" y="402" type="curve" smooth="yes"/>
      <point x="437" y="445"/>
      <point x="392" y="486"/>
      <point x="312" y="486" type="curve" smooth="yes"/>
      <point x="211" y="486"/>
      <point x="148" y="422"/>
      <point x="148" y="351" type="curve" smooth="yes"/>
      <point x="148" y="319"/>
      <point x="168" y="286"/>
      <point x="232" y="209" type="curve" smooth="yes"/>
      <point x="288" y="143"/>
      <point x="303" y="114"/>
      <point x="303" y="87" type="curve" smooth="yes"/>
      <point x="303" y="47"/>
      <point x="268" y="23"/>
    </contour>
  </outline>
</glyph>
<glyph name="t" format="1">
  <advance width="311"/>
  <unicode hex="0074"/>
  <outline>
    <contour>
      <point x="166" y="394" type="line" smooth="yes"/>
      <point x="176" y="386"/>
      <point x="184" y="378"/>
      <point x="184" y="361" type="curve" smooth="yes"/>
      <point x="184" y="344"/>
      <point x="179" y="319"/>
      <point x="171" y="297" type="curve" smooth="yes"/>
      <point x="128" y="172" type="line" smooth="yes"/>
      <point x="105" y="105"/>
      <point x="96" y="82"/>
      <point x="96" y="51" type="curve" smooth="yes"/>
      <point x="96" y="15"/>
      <point x="123" y="-15"/>
      <point x="168" y="-15" type="curve" smooth="yes"/>
      <point x="248" y="-15"/>
      <point x="310" y="48"/>
      <point x="310" y="83" type="curve" smooth="yes"/>
      <point x="310" y="92"/>
      <point x="306" y="99"/>
      <point x="294" y="99" type="curve" smooth="yes"/>
      <point x="286" y="99"/>
      <point x="277" y="92"/>
      <point x="270" y="85" type="curve" smooth="yes"/>
      <point x="258" y="73"/>
      <point x="245" y="60"/>
      <point x="223" y="60" type="curve" smooth="yes"/>
      <point x="202" y="60"/>
      <point x="188" y="78"/>
      <point x="188" y="99" type="curve" smooth="yes"/>
      <point x="188" y="120"/>
      <point x="193" y="141"/>
      <point x="216" y="213" type="curve" smooth="yes"/>
      <point x="286" y="429" type="line" smooth="yes"/>
      <point x="303" y="480"/>
      <point x="320" y="515"/>
      <point x="320" y="546" type="curve" smooth="yes"/>
      <point x="320" y="560"/>
      <point x="312" y="570"/>
      <point x="299" y="570" type="curve" smooth="yes"/>
      <point x="286" y="570"/>
      <point x="272" y="556"/>
      <point x="253" y="535" type="curve" smooth="yes"/>
      <point x="206" y="481" type="line" smooth="yes"/>
      <point x="194" y="467"/>
      <point x="180" y="460"/>
      <point x="164" y="460" type="curve" smooth="yes"/>
      <point x="144" y="460" type="line" smooth="yes"/>
      <point x="129" y="460"/>
      <point x="118" y="450"/>
      <point x="118" y="439" type="curve" smooth="yes"/>
      <point x="118" y="427"/>
      <point x="126" y="422"/>
      <point x="139" y="413" type="curve" smooth="yes"/>
    </contour>
    <contour>
      <point x="210" y="418" type="line"/>
      <point x="210" y="418"/>
      <point x="339" y="418"/>
      <point x="365" y="418" type="curve" smooth="yes"/>
      <point x="384" y="418"/>
      <point x="398" y="425"/>
      <point x="401" y="442" type="curve" smooth="yes"/>
      <point x="405" y="457"/>
      <point x="394" y="465"/>
      <point x="373" y="465" type="curve" smooth="yes"/>
      <point x="355" y="465"/>
      <point x="227" y="465"/>
      <point x="227" y="465" type="curve"/>
    </contour>
  </outline>
</glyph>
<glyph name="u" format="1">
  <advance width="550"/>
  <unicode hex="0075"/>
  <outline>
    <component base="n" xScale="-1.0" yScale="-1.0" xOffset="657" yOffset="464"/>
    <contour>
      <point x="384" y="508" type="move" name="center"/>
    </contour>
  </outline>
</glyph>
<glyph name="v" format="1">
  <advance width="515"/>
  <unicode hex="0076"/>
  <outline>
    <contour>
      <point x="554" y="404" type="curve" smooth="yes"/>
      <point x="554" y="455"/>
      <point x="528" y="480"/>
      <point x="491" y="480" type="curve" smooth="yes"/>
      <point x="457" y="480"/>
      <point x="431" y="453"/>
      <point x="431" y="420" type="curve" smooth="yes"/>
      <point x="431" y="395"/>
      <point x="443" y="376"/>
      <point x="462" y="357" type="curve" smooth="yes"/>
      <point x="476" y="343"/>
      <point x="484" y="330"/>
      <point x="484" y="315" type="curve" smooth="yes"/>
      <point x="484" y="178"/>
      <point x="392" y="68"/>
      <point x="316" y="68" type="curve" smooth="yes"/>
      <point x="266" y="68"/>
      <point x="244" y="98"/>
      <point x="244" y="142" type="curve" smooth="yes"/>
      <point x="244" y="208"/>
      <point x="269" y="264"/>
      <point x="347" y="393" type="curve" smooth="yes"/>
      <point x="369" y="431"/>
      <point x="384" y="444"/>
      <point x="384" y="461" type="curve" smooth="yes"/>
      <point x="384" y="474"/>
      <point x="378" y="480"/>
      <point x="367" y="480" type="curve" smooth="yes"/>
      <point x="349" y="480"/>
      <point x="337" y="463"/>
      <point x="315" y="463" type="curve" smooth="yes"/>
      <point x="289" y="463"/>
      <point x="236" y="471"/>
      <point x="215" y="471" type="curve" smooth="yes"/>
      <point x="144" y="471"/>
      <point x="97" y="401"/>
      <point x="97" y="331" type="curve" smooth="yes"/>
      <point x="97" y="296"/>
      <point x="113" y="276"/>
      <point x="137" y="276" type="curve" smooth="yes"/>
      <point x="157" y="276"/>
      <point x="176" y="289"/>
      <point x="176" y="314" type="curve" smooth="yes"/>
      <point x="176" y="327"/>
      <point x="168" y="340"/>
      <point x="151" y="347" type="curve" smooth="yes"/>
      <point x="139" y="352"/>
      <point x="135" y="360"/>
      <point x="135" y="367" type="curve" smooth="yes"/>
      <point x="135" y="378"/>
      <point x="144" y="387"/>
      <point x="164" y="387" type="curve" smooth="yes"/>
      <point x="201" y="387"/>
      <point x="267" y="374"/>
      <point x="312" y="374" type="curve" smooth="yes"/>
      <point x="341" y="374"/>
      <point x="348" y="411"/>
      <point x="332" y="427" type="curve"/>
      <point x="332" y="408"/>
      <point x="319" y="393"/>
      <point x="273" y="332" type="curve" smooth="yes"/>
      <point x="185" y="216"/>
      <point x="153" y="146"/>
      <point x="153" y="87" type="curve" smooth="yes"/>
      <point x="153" y="26"/>
      <point x="192" y="-15"/>
      <point x="257" y="-15" type="curve" smooth="yes"/>
      <point x="395" y="-15"/>
      <point x="554" y="179"/>
    </contour>
  </outline>
</glyph>
<glyph name="w" format="1">
  <advance width="720"/>
  <unicode hex="0077"/>
  <outline>
    <contour>
      <point x="512" y="480" type="curve" smooth="yes"/>
      <point x="477" y="480"/>
      <point x="428" y="399"/>
      <point x="428" y="171" type="curve" smooth="yes"/>
      <point x="428" y="53"/>
      <point x="459" y="-15"/>
      <point x="521" y="-15" type="curve" smooth="yes"/>
      <point x="620" y="-15"/>
      <point x="757" y="184"/>
      <point x="757" y="399" type="curve" smooth="yes"/>
      <point x="757" y="459"/>
      <point x="732" y="481"/>
      <point x="697" y="481" type="curve" smooth="yes"/>
      <point x="660" y="481"/>
      <point x="630" y="456"/>
      <point x="630" y="425" type="curve" smooth="yes"/>
      <point x="630" y="398"/>
      <point x="637" y="385"/>
      <point x="662" y="354" type="curve" smooth="yes"/>
      <point x="676" y="336"/>
      <point x="690" y="308"/>
      <point x="690" y="276" type="curve" smooth="yes"/>
      <point x="690" y="166"/>
      <point x="614" y="76"/>
      <point x="552" y="76" type="curve" smooth="yes"/>
      <point x="504" y="76"/>
      <point x="474" y="109"/>
      <point x="461" y="209" type="curve"/>
      <point x="404" y="101"/>
      <point x="357" y="68"/>
      <point x="311" y="68" type="curve" smooth="yes"/>
      <point x="266" y="68"/>
      <point x="244" y="98"/>
      <point x="244" y="142" type="curve" smooth="yes"/>
      <point x="244" y="203"/>
      <point x="266" y="259"/>
      <point x="347" y="393" type="curve" smooth="yes"/>
      <point x="370" y="431"/>
      <point x="384" y="444"/>
      <point x="384" y="461" type="curve" smooth="yes"/>
      <point x="384" y="474"/>
      <point x="378" y="480"/>
      <point x="367" y="480" type="curve" smooth="yes"/>
      <point x="349" y="480"/>
      <point x="337" y="463"/>
      <point x="315" y="463" type="curve" smooth="yes"/>
      <point x="289" y="463"/>
      <point x="236" y="471"/>
      <point x="215" y="471" type="curve" smooth="yes"/>
      <point x="144" y="471"/>
      <point x="97" y="401"/>
      <point x="97" y="331" type="curve" smooth="yes"/>
      <point x="97" y="296"/>
      <point x="113" y="276"/>
      <point x="137" y="276" type="curve" smooth="yes"/>
      <point x="157" y="276"/>
      <point x="176" y="289"/>
      <point x="176" y="314" type="curve" smooth="yes"/>
      <point x="176" y="327"/>
      <point x="168" y="340"/>
      <point x="151" y="347" type="curve" smooth="yes"/>
      <point x="139" y="352"/>
      <point x="135" y="360"/>
      <point x="135" y="367" type="curve" smooth="yes"/>
      <point x="135" y="378"/>
      <point x="144" y="387"/>
      <point x="164" y="387" type="curve" smooth="yes"/>
      <point x="201" y="387"/>
      <point x="267" y="374"/>
      <point x="312" y="374" type="curve" smooth="yes"/>
      <point x="341" y="374"/>
      <point x="348" y="411"/>
      <point x="332" y="427" type="curve"/>
      <point x="332" y="408"/>
      <point x="319" y="393"/>
      <point x="273" y="332" type="curve" smooth="yes"/>
      <point x="182" y="210"/>
      <point x="153" y="140"/>
      <point x="153" y="87" type="curve" smooth="yes"/>
      <point x="153" y="26"/>
      <point x="192" y="-15"/>
      <point x="257" y="-15" type="curve" smooth="yes"/>
      <point x="396" y="-15"/>
      <point x="544" y="216"/>
      <point x="544" y="425" type="curve" smooth="yes"/>
      <point x="544" y="463"/>
      <point x="531" y="480"/>
    </contour>
  </outline>
</glyph>
<glyph name="x" format="2">
  <advance width="535"/>
  <unicode hex="0078"/>
  <outline>
    <contour>
      <point x="172" y="56" type="curve" smooth="yes"/>
      <point x="155" y="56"/>
      <point x="145" y="66"/>
      <point x="145" y="78" type="curve" smooth="yes"/>
      <point x="145" y="91"/>
      <point x="148" y="104"/>
      <point x="148" y="114" type="curve" smooth="yes"/>
      <point x="148" y="138"/>
      <point x="130" y="153"/>
      <point x="104" y="153" type="curve" smooth="yes"/>
      <point x="74" y="153"/>
      <point x="49" y="125"/>
      <point x="49" y="77" type="curve" smooth="yes"/>
      <point x="49" y="31"/>
      <point x="81" y="-16"/>
      <point x="144" y="-16" type="curve" smooth="yes"/>
      <point x="200" y="-16"/>
      <point x="261" y="17"/>
      <point x="307" y="165" type="curve"/>
      <point x="288" y="166" type="line"/>
      <point x="288" y="38"/>
      <point x="321" y="-15"/>
      <point x="393" y="-15" type="curve" smooth="yes"/>
      <point x="450" y="-15"/>
      <point x="520" y="57"/>
      <point x="520" y="112" type="curve" smooth="yes"/>
      <point x="520" y="126"/>
      <point x="511" y="136"/>
      <point x="504" y="136" type="curve" smooth="yes"/>
      <point x="489" y="136"/>
      <point x="482" y="122"/>
      <point x="473" y="109" type="curve" smooth="yes"/>
      <point x="459" y="86"/>
      <point x="442" y="65"/>
      <point x="413" y="65" type="curve" smooth="yes"/>
      <point x="378" y="65"/>
      <point x="349" y="93"/>
      <point x="349" y="192" type="curve" smooth="yes"/>
      <point x="349" y="310"/>
      <point x="408" y="412"/>
      <point x="473" y="412" type="curve" smooth="yes"/>
      <point x="490" y="412"/>
      <point x="500" y="402"/>
      <point x="500" y="390" type="curve" smooth="yes"/>
      <point x="500" y="376"/>
      <point x="495" y="361"/>
      <point x="495" y="350" type="curve" smooth="yes"/>
      <point x="495" y="326"/>
      <point x="513" y="311"/>
      <point x="539" y="311" type="curve" smooth="yes"/>
      <point x="569" y="311"/>
      <point x="594" y="339"/>
      <point x="594" y="387" type="curve" smooth="yes"/>
      <point x="594" y="433"/>
      <point x="562" y="480"/>
      <point x="499" y="480" type="curve" smooth="yes"/>
      <point x="428" y="480"/>
      <point x="370" y="425"/>
      <point x="350" y="309" type="curve"/>
      <point x="357" y="311" type="line"/>
      <point x="358" y="439"/>
      <point x="328" y="480"/>
      <point x="270" y="480" type="curve" smooth="yes"/>
      <point x="187" y="480"/>
      <point x="123" y="407"/>
      <point x="123" y="352" type="curve" smooth="yes"/>
      <point x="123" y="338"/>
      <point x="132" y="328"/>
      <point x="139" y="328" type="curve" smooth="yes"/>
      <point x="153" y="328"/>
      <point x="160" y="342"/>
      <point x="170" y="355" type="curve" smooth="yes"/>
      <point x="185" y="380"/>
      <point x="205" y="401"/>
      <point x="235" y="401" type="curve" smooth="yes"/>
      <point x="269" y="401"/>
      <point x="298" y="374"/>
      <point x="298" y="283" type="curve" smooth="yes"/>
      <point x="298" y="146"/>
      <point x="235" y="56"/>
    </contour>
  </outline>
</glyph>
<glyph name="bar" format="1">
  <advance width="357"/>
  <unicode hex="007C"/>
  <outline>
    <contour>
      <point x="324" y="711" type="curve" smooth="yes"/>
      <point x="308" y="592"/>
      <point x="253" y="347"/>
      <point x="234" y="265" type="curve" smooth="yes"/>
      <point x="212" y="168"/>
      <point x="157" y="-67"/>
      <point x="117" y="-187" type="curve" smooth="yes"/>
      <point x="116" y="-195"/>
      <point x="113" y="-202"/>
      <point x="111" y="-210" type="curve" smooth="yes"/>
      <point x="106" y="-235"/>
      <point x="117" y="-250"/>
      <point x="140" y="-250" type="curve" smooth="yes"/>
      <point x="162" y="-250"/>
      <point x="179" y="-235"/>
      <point x="185" y="-213" type="curve" smooth="yes"/>
      <point x="186" y="-204"/>
      <point x="189" y="-195"/>
      <point x="190" y="-184" type="curve" smooth="yes"/>
      <point x="210" y="-63"/>
      <point x="258" y="161"/>
      <point x="282" y="263" type="curve" smooth="yes"/>
      <point x="300" y="339"/>
      <point x="358" y="594"/>
      <point x="391" y="710" type="curve" smooth="yes"/>
      <point x="396" y="724"/>
      <point x="395" y="725"/>
      <point x="395" y="727" type="curve" smooth="yes"/>
      <point x="401" y="748"/>
      <point x="392" y="765"/>
      <point x="371" y="765" type="curve" smooth="yes"/>
      <point x="351" y="765"/>
      <point x="333" y="750"/>
      <point x="327" y="725" type="curve" smooth="yes"/>
      <point x="327" y="721"/>
      <point x="325" y="716"/>
    </contour>
  </outline>
</glyph>
<glyph name="registered" format="1">
  <advance width="752"/>
  <unicode hex="00AE"/>
  <outline>
    <contour>
      <point x="382" y="-15" type="curve" smooth="yes"/>
      <point x="245" y="-15"/>
      <point x="150" y="82"/>
      <point x="150" y="221" type="curve" smooth="yes"/>
      <point x="150" y="466"/>
      <point x="325" y="649"/>
      <point x="560" y="649" type="curve" smooth="yes"/>
      <point x="699" y="649"/>
      <point x="795" y="551"/>
      <point x="795" y="409" type="curve" smooth="yes"/>
      <point x="795" y="166"/>
      <point x="618" y="-15"/>
    </contour>
    <contour>
      <point x="398" y="37" type="curve" smooth="yes"/>
      <point x="597" y="37"/>
      <point x="747" y="189"/>
      <point x="747" y="392" type="curve" smooth="yes"/>
      <point x="747" y="514"/>
      <point x="665" y="600"/>
      <point x="549" y="600" type="curve" smooth="yes"/>
      <point x="351" y="600"/>
      <point x="204" y="445"/>
      <point x="204" y="235" type="curve" smooth="yes"/>
      <point x="204" y="118"/>
      <point x="284" y="37"/>
    </contour>
    <contour>
      <point x="400" y="287" type="move"/>
      <point x="412" y="279"/>
      <point x="431" y="272"/>
      <point x="451" y="272" type="curve" smooth="yes"/>
      <point x="551" y="274"/>
      <point x="644" y="322"/>
      <point x="644" y="421" type="curve" smooth="yes"/>
      <point x="644" y="481"/>
      <point x="594" y="527"/>
      <point x="518" y="527" type="curve" smooth="yes"/>
      <point x="393" y="527" type="line"/>
      <point x="380" y="527"/>
      <point x="375" y="524"/>
      <point x="373" y="517" type="curve" smooth="yes"/>
      <point x="371" y="508"/>
      <point x="376" y="505"/>
      <point x="385" y="503" type="curve" smooth="yes"/>
      <point x="398" y="500" type="line" smooth="yes"/>
      <point x="409" y="497"/>
      <point x="412" y="489"/>
      <point x="410" y="475" type="curve" smooth="yes"/>
      <point x="394" y="385"/>
      <point x="370" y="289"/>
      <point x="334" y="185" type="curve" smooth="yes"/>
      <point x="328" y="171"/>
      <point x="322" y="163"/>
      <point x="308" y="160" type="curve" smooth="yes"/>
      <point x="294" y="157" type="line" smooth="yes"/>
      <point x="283" y="155"/>
      <point x="276" y="152"/>
      <point x="275" y="144" type="curve" smooth="yes"/>
      <point x="273" y="137"/>
      <point x="276" y="133"/>
      <point x="289" y="133" type="curve" smooth="yes"/>
      <point x="414" y="133" type="line" smooth="yes"/>
      <point x="426" y="133"/>
      <point x="432" y="137"/>
      <point x="434" y="144" type="curve" smooth="yes"/>
      <point x="437" y="152"/>
      <point x="431" y="155"/>
      <point x="422" y="157" type="curve" smooth="yes"/>
      <point x="408" y="160" type="line" smooth="yes"/>
      <point x="398" y="163"/>
      <point x="394" y="170"/>
      <point x="397" y="185" type="curve" smooth="yes"/>
      <point x="417" y="294"/>
      <point x="440" y="381"/>
      <point x="469" y="467" type="curve" smooth="yes"/>
      <point x="474" y="483"/>
      <point x="487" y="493"/>
      <point x="510" y="493" type="curve" smooth="yes"/>
      <point x="554" y="493"/>
      <point x="581" y="463"/>
      <point x="581" y="422" type="curve" smooth="yes"/>
      <point x="581" y="350"/>
      <point x="525" y="304"/>
      <point x="450" y="304" type="curve" smooth="yes"/>
      <point x="432" y="304"/>
      <point x="414" y="309"/>
      <point x="407" y="314" type="curve" smooth="yes"/>
    </contour>
    <contour>
      <point x="431" y="292" type="line"/>
      <point x="492" y="156"/>
      <point x="522" y="125"/>
      <point x="562" y="125" type="curve" smooth="yes"/>
      <point x="592" y="125"/>
      <point x="616" y="147"/>
      <point x="616" y="173" type="curve" smooth="yes"/>
      <point x="616" y="183"/>
      <point x="612" y="191"/>
      <point x="606" y="191" type="curve" smooth="yes"/>
      <point x="597" y="191"/>
      <point x="591" y="186"/>
      <point x="578" y="186" type="curve" smooth="yes"/>
      <point x="553" y="186"/>
      <point x="530" y="208"/>
      <point x="491" y="289" type="curve"/>
    </contour>
  </outline>
</glyph>
<glyph name="onesuperior" format="1">
  <advance width="313"/>
  <unicode hex="00B9"/>
  <outline>
    <contour>
      <point x="225" y="578" type="line" smooth="yes"/>
      <point x="214" y="578"/>
      <point x="211" y="586"/>
      <point x="214" y="597" type="curve" smooth="yes"/>
      <point x="217" y="608"/>
      <point x="226" y="616"/>
      <point x="237" y="616" type="curve" smooth="yes"/>
      <point x="249" y="616" type="line" smooth="yes"/>
      <point x="278" y="616"/>
      <point x="301" y="621"/>
      <point x="327" y="641" type="curve" smooth="yes"/>
      <point x="336" y="648"/>
      <point x="342" y="651"/>
      <point x="351" y="651" type="curve" smooth="yes"/>
      <point x="360" y="651"/>
      <point x="365" y="646"/>
      <point x="362" y="633" type="curve" smooth="yes"/>
      <point x="292" y="373" type="line" smooth="yes"/>
      <point x="288" y="357"/>
      <point x="296" y="345"/>
      <point x="311" y="344" type="curve" smooth="yes"/>
      <point x="339" y="342" type="line" smooth="yes"/>
      <point x="348" y="341"/>
      <point x="353" y="335"/>
      <point x="350" y="325" type="curve" smooth="yes"/>
      <point x="346" y="310"/>
      <point x="340" y="305"/>
      <point x="329" y="305" type="curve" smooth="yes"/>
      <point x="149" y="305" type="line" smooth="yes"/>
      <point x="138" y="305"/>
      <point x="133" y="310"/>
      <point x="137" y="325" type="curve" smooth="yes"/>
      <point x="140" y="336"/>
      <point x="148" y="343"/>
      <point x="159" y="344" type="curve" smooth="yes"/>
      <point x="186" y="346" type="line" smooth="yes"/>
      <point x="204" y="347"/>
      <point x="222" y="357"/>
      <point x="226" y="373" type="curve" smooth="yes"/>
      <point x="272" y="546" type="line" smooth="yes"/>
      <point x="278" y="569"/>
      <point x="270" y="578"/>
      <point x="251" y="578" type="curve" smooth="yes"/>
    </contour>
  </outline>
</glyph>
<glyph name="Oslash" format="2">
  <advance width="750"/>
  <unicode hex="00D8"/>
  <outline>
    <contour>
      <point x="838" y="722" type="curve" smooth="yes"/>
      <point x="62" y="-18" type="line" smooth="yes"/>
      <point x="54" y="-26"/>
      <point x="49" y="-34"/>
      <point x="47" y="-40" type="curve" smooth="yes"/>
      <point x="45" y="-47"/>
      <point x="51" y="-54"/>
      <point x="59" y="-54" type="curve" smooth="yes"/>
      <point x="71" y="-54"/>
      <point x="84" y="-47"/>
      <point x="95" y="-36" type="curve" smooth="yes"/>
      <point x="865" y="700" type="line" smooth="yes"/>
      <point x="876" y="711"/>
      <point x="882" y="719"/>
      <point x="884" y="726" type="curve" smooth="yes"/>
      <point x="886" y="733"/>
      <point x="880" y="740"/>
      <point x="872" y="740" type="curve" smooth="yes"/>
      <point x="861" y="740"/>
      <point x="847" y="731"/>
    </contour>
    <component base="O"/>
  </outline>
</glyph>
<glyph name="germandbls" format="2">
  <advance width="557"/>
  <unicode hex="00DF"/>
  <outline>
    <contour>
      <point x="217" y="477" type="curve" smooth="yes"/>
      <point x="214" y="465" type="line"/>
      <point x="159" y="465" type="line" smooth="yes"/>
      <point x="141" y="465"/>
      <point x="129" y="455"/>
      <point x="129" y="441" type="curve" smooth="yes"/>
      <point x="129" y="431"/>
      <point x="137" y="421"/>
      <point x="157" y="414" type="curve" smooth="yes"/>
      <point x="187" y="403"/>
      <point x="198" y="375"/>
      <point x="188" y="343" type="curve" smooth="yes"/>
      <point x="51" y="-101" type="line" smooth="yes"/>
      <point x="41" y="-133"/>
      <point x="37" y="-156"/>
      <point x="38" y="-187" type="curve" smooth="yes"/>
      <point x="40" y="-215"/>
      <point x="57" y="-230"/>
      <point x="87" y="-230" type="curve" smooth="yes"/>
      <point x="119" y="-230"/>
      <point x="151" y="-203"/>
      <point x="151" y="-168" type="curve" smooth="yes"/>
      <point x="151" y="-131"/>
      <point x="139" y="-126"/>
      <point x="139" y="-93" type="curve" smooth="yes"/>
      <point x="139" y="-81"/>
      <point x="140" y="-65"/>
      <point x="146" y="-43" type="curve" smooth="yes"/>
      <point x="146" y="-43"/>
      <point x="283" y="449"/>
      <point x="297" y="494" type="curve" smooth="yes"/>
      <point x="337" y="620"/>
      <point x="404" y="675"/>
      <point x="463" y="675" type="curve" smooth="yes"/>
      <point x="508" y="675"/>
      <point x="532" y="646"/>
      <point x="532" y="599" type="curve" smooth="yes"/>
      <point x="532" y="554"/>
      <point x="507" y="522"/>
      <point x="442" y="475" type="curve" smooth="yes"/>
      <point x="361" y="416"/>
      <point x="338" y="374"/>
      <point x="338" y="331" type="curve" smooth="yes"/>
      <point x="338" y="294"/>
      <point x="362" y="253"/>
      <point x="420" y="203" type="curve" smooth="yes"/>
      <point x="484" y="147"/>
      <point x="504" y="121"/>
      <point x="504" y="95" type="curve" smooth="yes"/>
      <point x="504" y="61"/>
      <point x="477" y="44"/>
      <point x="441" y="44" type="curve" smooth="yes"/>
      <point x="403" y="44"/>
      <point x="381" y="67"/>
      <point x="356" y="97" type="curve" smooth="yes"/>
      <point x="333" y="126"/>
      <point x="317" y="134"/>
      <point x="296" y="134" type="curve" smooth="yes"/>
      <point x="275" y="134"/>
      <point x="262" y="118"/>
      <point x="262" y="88" type="curve" smooth="yes"/>
      <point x="262" y="33"/>
      <point x="315" y="-15"/>
      <point x="386" y="-15" type="curve" smooth="yes"/>
      <point x="495" y="-15"/>
      <point x="573" y="47"/>
      <point x="573" y="123" type="curve" smooth="yes"/>
      <point x="573" y="169"/>
      <point x="547" y="211"/>
      <point x="488" y="264" type="curve" smooth="yes"/>
      <point x="429" y="316"/>
      <point x="416" y="339"/>
      <point x="416" y="369" type="curve" smooth="yes"/>
      <point x="416" y="394"/>
      <point x="430" y="423"/>
      <point x="516" y="482" type="curve" smooth="yes"/>
      <point x="611" y="547"/>
      <point x="637" y="579"/>
      <point x="637" y="625" type="curve" smooth="yes"/>
      <point x="637" y="675"/>
      <point x="583" y="715"/>
      <point x="492" y="715" type="curve" smooth="yes"/>
      <point x="369" y="715"/>
      <point x="252" y="616"/>
    </contour>
  </outline>
</glyph>
<glyph name="ae" format="1">
  <advance width="718"/>
  <unicode hex="00E6"/>
  <outline>
    <contour>
      <point x="174" y="119" type="curve" smooth="yes"/>
      <point x="165" y="272"/>
      <point x="264" y="402"/>
      <point x="348" y="402" type="curve" smooth="yes"/>
      <point x="394" y="402"/>
      <point x="428" y="394"/>
      <point x="429" y="364" type="curve" smooth="yes"/>
      <point x="433" y="272"/>
      <point x="308" y="81"/>
      <point x="210" y="81" type="curve" smooth="yes"/>
      <point x="191" y="81"/>
      <point x="176" y="90"/>
    </contour>
    <contour>
      <point x="519" y="398" type="line"/>
      <point x="516" y="450"/>
      <point x="480" y="480"/>
      <point x="404" y="480" type="curve" smooth="yes"/>
      <point x="244" y="480"/>
      <point x="84" y="257"/>
      <point x="95" y="63" type="curve" smooth="yes"/>
      <point x="97" y="7"/>
      <point x="126" y="-15"/>
      <point x="169" y="-15" type="curve" smooth="yes"/>
      <point x="255" y="-15"/>
      <point x="365" y="60"/>
      <point x="446" y="313" type="curve"/>
    </contour>
    <component base="e" xOffset="288"/>
  </outline>
</glyph>
<glyph name="eth" format="1">
  <advance width="425"/>
  <unicode hex="00F0"/>
  <outline>
    <contour>
      <point x="351" y="480" type="curve" smooth="yes"/>
      <point x="206" y="480"/>
      <point x="95" y="304"/>
      <point x="95" y="133" type="curve" smooth="yes"/>
      <point x="95" y="32"/>
      <point x="142" y="-15"/>
      <point x="213" y="-15" type="curve" smooth="yes"/>
      <point x="354" y="-15"/>
      <point x="488" y="191"/>
      <point x="488" y="377" type="curve" smooth="yes"/>
      <point x="488" y="531"/>
      <point x="407" y="653"/>
      <point x="305" y="702" type="curve" smooth="yes"/>
      <point x="284" y="712"/>
      <point x="272" y="716"/>
      <point x="253" y="716" type="curve" smooth="yes"/>
      <point x="238" y="716"/>
      <point x="231" y="709"/>
      <point x="231" y="700" type="curve" smooth="yes"/>
      <point x="231" y="692"/>
      <point x="239" y="684"/>
      <point x="261" y="668" type="curve" smooth="yes"/>
      <point x="362" y="593"/>
      <point x="404" y="499"/>
      <point x="404" y="345" type="curve"/>
      <point x="426" y="365" type="line"/>
      <point x="426" y="437"/>
      <point x="400" y="480"/>
    </contour>
    <contour>
      <point x="252" y="57" type="curve" smooth="yes"/>
      <point x="207" y="57"/>
      <point x="182" y="96"/>
      <point x="182" y="190" type="curve" smooth="yes"/>
      <point x="182" y="322"/>
      <point x="256" y="426"/>
      <point x="339" y="426" type="curve" smooth="yes"/>
      <point x="376" y="426"/>
      <point x="404" y="395"/>
      <point x="404" y="307" type="curve" smooth="yes"/>
      <point x="404" y="158"/>
      <point x="325" y="57"/>
    </contour>
    <contour>
      <point x="228" y="554" type="curve" smooth="yes"/>
      <point x="228" y="547"/>
      <point x="234" y="540"/>
      <point x="242" y="540" type="curve" smooth="yes"/>
      <point x="248" y="540"/>
      <point x="256" y="542"/>
      <point x="263" y="547" type="curve" smooth="yes"/>
      <point x="457" y="670" type="line" smooth="yes"/>
      <point x="474" y="681"/>
      <point x="478" y="687"/>
      <point x="478" y="697" type="curve" smooth="yes"/>
      <point x="478" y="703"/>
      <point x="472" y="711"/>
      <point x="462" y="711" type="curve" smooth="yes"/>
      <point x="455" y="711"/>
      <point x="446" y="707"/>
      <point x="441" y="704" type="curve" smooth="yes"/>
      <point x="249" y="581" type="line" smooth="yes"/>
      <point x="235" y="572"/>
      <point x="228" y="563"/>
    </contour>
  </outline>
</glyph>
<glyph name="oslash" format="1">
  <advance width="425"/>
  <unicode hex="00F8"/>
  <outline>
    <contour>
      <point x="492" y="506" type="curve" smooth="yes"/>
      <point x="32" y="-25" type="line" smooth="yes"/>
      <point x="25" y="-34"/>
      <point x="22" y="-39"/>
      <point x="22" y="-45" type="curve" smooth="yes"/>
      <point x="21" y="-54"/>
      <point x="27" y="-64"/>
      <point x="39" y="-64" type="curve" smooth="yes"/>
      <point x="48" y="-64"/>
      <point x="56" y="-59"/>
      <point x="63" y="-51" type="curve" smooth="yes"/>
      <point x="523" y="481" type="line" smooth="yes"/>
      <point x="528" y="487"/>
      <point x="531" y="495"/>
      <point x="532" y="502" type="curve" smooth="yes"/>
      <point x="532" y="512"/>
      <point x="525" y="519"/>
      <point x="516" y="519" type="curve" smooth="yes"/>
      <point x="507" y="519"/>
      <point x="498" y="513"/>
    </contour>
    <component base="o"/>
  </outline>
</glyph>
<glyph name="Eogonek" format="1">
  <advance width="586"/>
  <unicode hex="0118"/>
  <outline>
    <contour>
      <point x="525" y="20" type="line"/>
      <point x="377" y="-49"/>
      <point x="323" y="-96"/>
      <point x="307" y="-154" type="curve" smooth="yes"/>
      <point x="294" y="-203"/>
      <point x="324" y="-241"/>
      <point x="390" y="-241" type="curve" smooth="yes"/>
      <point x="452" y="-241"/>
      <point x="499" y="-205"/>
      <point x="511" y="-159" type="curve" smooth="yes"/>
      <point x="519" y="-130"/>
      <point x="508" y="-111"/>
      <point x="484" y="-111" type="curve" smooth="yes"/>
      <point x="468" y="-111"/>
      <point x="452" y="-122"/>
      <point x="447" y="-139" type="curve" smooth="yes"/>
      <point x="443" y="-154"/>
      <point x="456" y="-163"/>
      <point x="452" y="-178" type="curve" smooth="yes"/>
      <point x="447" y="-196"/>
      <point x="432" y="-206"/>
      <point x="416" y="-206" type="curve" smooth="yes"/>
      <point x="392" y="-206"/>
      <point x="377" y="-188"/>
      <point x="388" y="-147" type="curve" smooth="yes"/>
      <point x="403" y="-93"/>
      <point x="446" y="-51"/>
      <point x="536" y="-2" type="curve"/>
    </contour>
    <component base="E"/>
  </outline>
</glyph>
<glyph name="Hbar" format="1">
  <advance width="760"/>
  <unicode hex="0126"/>
  <outline>
    <contour>
      <point x="834" y="507" type="curve" smooth="yes"/>
      <point x="229" y="507" type="line" smooth="yes"/>
      <point x="211" y="507"/>
      <point x="196" y="495"/>
      <point x="196" y="483" type="curve" smooth="yes"/>
      <point x="196" y="472"/>
      <point x="204" y="465"/>
      <point x="219" y="465" type="curve" smooth="yes"/>
      <point x="824" y="465" type="line" smooth="yes"/>
      <point x="842" y="465"/>
      <point x="857" y="477"/>
      <point x="857" y="489" type="curve" smooth="yes"/>
      <point x="857" y="500"/>
      <point x="849" y="507"/>
    </contour>
    <component base="H"/>
  </outline>
</glyph>
<glyph name="dotlessi" format="1">
  <advance width="309"/>
  <unicode hex="0131"/>
  <outline>
    <contour>
      <point x="220" y="90" type="curve" smooth="yes"/>
      <point x="221" y="71"/>
      <point x="233" y="63"/>
      <point x="243" y="63" type="curve" smooth="yes"/>
      <point x="260" y="63"/>
      <point x="277" y="75"/>
      <point x="289" y="88" type="curve" smooth="yes"/>
      <point x="298" y="99"/>
      <point x="302" y="105"/>
      <point x="310" y="105" type="curve" smooth="yes"/>
      <point x="320" y="105"/>
      <point x="327" y="99"/>
      <point x="328" y="85" type="curve" smooth="yes"/>
      <point x="330" y="49"/>
      <point x="256" y="-15"/>
      <point x="192" y="-15" type="curve" smooth="yes"/>
      <point x="148" y="-15"/>
      <point x="127" y="9"/>
      <point x="125" y="40" type="curve" smooth="yes"/>
      <point x="123" y="84"/>
      <point x="141" y="121"/>
      <point x="161" y="166" type="curve" smooth="yes"/>
      <point x="227" y="317" type="line" smooth="yes"/>
      <point x="234" y="333"/>
      <point x="237" y="346"/>
      <point x="237" y="365" type="curve" smooth="yes"/>
      <point x="237" y="385"/>
      <point x="229" y="394"/>
      <point x="213" y="394" type="curve" smooth="yes"/>
      <point x="196" y="394"/>
      <point x="185" y="387"/>
      <point x="172" y="373" type="curve" smooth="yes"/>
      <point x="161" y="360"/>
      <point x="152" y="352"/>
      <point x="143" y="352" type="curve" smooth="yes"/>
      <point x="134" y="352"/>
      <point x="127" y="357"/>
      <point x="126" y="371" type="curve" smooth="yes"/>
      <point x="125" y="406"/>
      <point x="215" y="480"/>
      <point x="286" y="480" type="curve" smooth="yes"/>
      <point x="318" y="480"/>
      <point x="334" y="462"/>
      <point x="335" y="436" type="curve" smooth="yes"/>
      <point x="337" y="396"/>
      <point x="320" y="354"/>
      <point x="295" y="299" type="curve" smooth="yes"/>
      <point x="241" y="181" type="line" smooth="yes"/>
      <point x="222" y="140"/>
      <point x="219" y="108"/>
    </contour>
    <contour>
      <point x="287" y="513" type="move" name="center"/>
    </contour>
  </outline>
</glyph>
<glyph name="kra" format="1">
  <advance width="538"/>
  <unicode hex="0138"/>
  <outline>
    <contour>
      <point x="303" y="222" type="curve"/>
      <point x="345" y="271" type="line"/>
      <point x="415" y="111"/>
      <point x="451" y="86"/>
      <point x="491" y="86" type="curve" smooth="yes"/>
      <point x="518" y="86"/>
      <point x="525" y="115"/>
      <point x="544" y="115" type="curve" smooth="yes"/>
      <point x="555" y="115"/>
      <point x="561" y="108"/>
      <point x="561" y="93" type="curve" smooth="yes"/>
      <point x="561" y="33"/>
      <point x="506" y="-15"/>
      <point x="452" y="-15" type="curve" smooth="yes"/>
      <point x="399" y="-15"/>
      <point x="356" y="23"/>
    </contour>
    <contour>
      <point x="240" y="184" type="curve" smooth="yes"/>
      <point x="226" y="143"/>
      <point x="218" y="115"/>
      <point x="218" y="97" type="curve" smooth="yes"/>
      <point x="218" y="80"/>
      <point x="225" y="61"/>
      <point x="226" y="42" type="curve" smooth="yes"/>
      <point x="228" y="8"/>
      <point x="192" y="-16"/>
      <point x="155" y="-16" type="curve" smooth="yes"/>
      <point x="131" y="-16"/>
      <point x="117" y="-1"/>
      <point x="116" y="28" type="curve" smooth="yes"/>
      <point x="114" y="52"/>
      <point x="121" y="76"/>
      <point x="130" y="99" type="curve" smooth="yes"/>
      <point x="216" y="307" type="line" smooth="yes"/>
      <point x="224" y="328"/>
      <point x="228" y="349"/>
      <point x="227" y="368" type="curve" smooth="yes"/>
      <point x="226" y="381"/>
      <point x="220" y="392"/>
      <point x="205" y="392" type="curve" smooth="yes"/>
      <point x="192" y="392"/>
      <point x="179" y="383"/>
      <point x="164" y="366" type="curve" smooth="yes"/>
      <point x="155" y="355"/>
      <point x="146" y="348"/>
      <point x="134" y="348" type="curve" smooth="yes"/>
      <point x="124" y="348"/>
      <point x="118" y="355"/>
      <point x="118" y="366" type="curve" smooth="yes"/>
      <point x="115" y="412"/>
      <point x="195" y="479"/>
      <point x="258" y="479" type="curve" smooth="yes"/>
      <point x="289" y="479"/>
      <point x="306" y="460"/>
      <point x="309" y="431" type="curve" smooth="yes"/>
      <point x="311" y="404"/>
      <point x="305" y="373"/>
      <point x="298" y="349" type="curve" smooth="yes"/>
      <point x="279" y="287"/>
      <point x="249" y="210"/>
    </contour>
    <contour>
      <point x="206" y="75" type="line"/>
      <point x="180" y="96" type="line"/>
      <point x="391" y="348" type="line" smooth="yes"/>
      <point x="476" y="449"/>
      <point x="516" y="481"/>
      <point x="563" y="481" type="curve" smooth="yes"/>
      <point x="598" y="481"/>
      <point x="624" y="449"/>
      <point x="624" y="417" type="curve" smooth="yes"/>
      <point x="624" y="380"/>
      <point x="594" y="353"/>
      <point x="564" y="353" type="curve" smooth="yes"/>
      <point x="533" y="353"/>
      <point x="519" y="374"/>
      <point x="495" y="374" type="curve" smooth="yes"/>
      <point x="476" y="374"/>
      <point x="446" y="352"/>
      <point x="418" y="320" type="curve" smooth="yes"/>
    </contour>
  </outline>
</glyph>
<glyph name="lslash" format="1">
  <advance width="287"/>
  <unicode hex="0142"/>
  <outline>
    <contour>
      <point x="213" y="306" type="line"/>
      <point x="274" y="346"/>
      <point x="335" y="384"/>
      <point x="393" y="425" type="curve" smooth="yes"/>
      <point x="409" y="437"/>
      <point x="415" y="452"/>
      <point x="411" y="466" type="curve" smooth="yes"/>
      <point x="406" y="479"/>
      <point x="385" y="485"/>
      <point x="369" y="474" type="curve" smooth="yes"/>
      <point x="320" y="440"/>
      <point x="271" y="407"/>
      <point x="223" y="375" type="curve"/>
    </contour>
    <contour>
      <point x="75" y="244" type="curve" smooth="yes"/>
      <point x="79" y="232"/>
      <point x="99" y="227"/>
      <point x="113" y="237" type="curve" smooth="yes"/>
      <point x="143" y="258"/>
      <point x="173" y="277"/>
      <point x="203" y="296" type="curve"/>
      <point x="213" y="365" type="line"/>
      <point x="173" y="338"/>
      <point x="132" y="311"/>
      <point x="93" y="283" type="curve" smooth="yes"/>
      <point x="80" y="273"/>
      <point x="69" y="258"/>
    </contour>
    <component base="l" xOffset="10"/>
  </outline>
</glyph>
<glyph name="eng" format="1">
  <advance width="525"/>
  <unicode hex="014B"/>
  <outline>
    <contour>
      <point x="462" y="293" type="curve" smooth="yes"/>
      <point x="367" y="-49" type="line" smooth="yes"/>
      <point x="354" y="-98"/>
      <point x="354" y="-113"/>
      <point x="354" y="-139" type="curve" smooth="yes"/>
      <point x="354" y="-160"/>
      <point x="343" y="-170"/>
      <point x="328" y="-170" type="curve" smooth="yes"/>
      <point x="305" y="-170"/>
      <point x="285" y="-122"/>
      <point x="260" y="-122" type="curve" smooth="yes"/>
      <point x="221" y="-122"/>
      <point x="199" y="-152"/>
      <point x="199" y="-188" type="curve" smooth="yes"/>
      <point x="199" y="-218"/>
      <point x="222" y="-245"/>
      <point x="264" y="-245" type="curve" smooth="yes"/>
      <point x="349" y="-245"/>
      <point x="427" y="-146"/>
      <point x="454" y="-35" type="curve" smooth="yes"/>
      <point x="536" y="299" type="line" smooth="yes"/>
      <point x="548" y="348"/>
      <point x="566" y="375"/>
      <point x="566" y="417" type="curve" smooth="yes"/>
      <point x="566" y="454"/>
      <point x="545" y="480"/>
      <point x="507" y="480" type="curve" smooth="yes"/>
      <point x="396" y="480"/>
      <point x="294" y="384"/>
      <point x="222" y="212" type="curve"/>
      <point x="276" y="300" type="line"/>
      <point x="276" y="341"/>
      <point x="311" y="405"/>
      <point x="309" y="444" type="curve" smooth="yes"/>
      <point x="308" y="466"/>
      <point x="289" y="480"/>
      <point x="258" y="480" type="curve" smooth="yes"/>
      <point x="195" y="480"/>
      <point x="115" y="413"/>
      <point x="118" y="367" type="curve" smooth="yes"/>
      <point x="118" y="356"/>
      <point x="124" y="349"/>
      <point x="134" y="349" type="curve" smooth="yes"/>
      <point x="146" y="349"/>
      <point x="155" y="356"/>
      <point x="164" y="367" type="curve" smooth="yes"/>
      <point x="179" y="384"/>
      <point x="192" y="393"/>
      <point x="205" y="393" type="curve" smooth="yes"/>
      <point x="220" y="393"/>
      <point x="226" y="382"/>
      <point x="227" y="369" type="curve" smooth="yes"/>
      <point x="228" y="350"/>
      <point x="224" y="329"/>
      <point x="216" y="308" type="curve" smooth="yes"/>
      <point x="130" y="100" type="line" smooth="yes"/>
      <point x="121" y="77"/>
      <point x="114" y="53"/>
      <point x="116" y="29" type="curve" smooth="yes"/>
      <point x="117" y="0"/>
      <point x="131" y="-15"/>
      <point x="155" y="-15" type="curve" smooth="yes"/>
      <point x="192" y="-15"/>
      <point x="228" y="9"/>
      <point x="226" y="43" type="curve" smooth="yes"/>
      <point x="225" y="62"/>
      <point x="220" y="80"/>
      <point x="218" y="98" type="curve" smooth="yes"/>
      <point x="217" y="116"/>
      <point x="224" y="144"/>
      <point x="240" y="185" type="curve" smooth="yes"/>
      <point x="301" y="340"/>
      <point x="381" y="396"/>
      <point x="437" y="396" type="curve" smooth="yes"/>
      <point x="465" y="396"/>
      <point x="476" y="381"/>
      <point x="476" y="359" type="curve" smooth="yes"/>
      <point x="476" y="342"/>
      <point x="469" y="317"/>
    </contour>
  </outline>
</glyph>
<glyph name="OE" format="1">
  <advance width="1014"/>
  <unicode hex="0152"/>
  <outline>
    <contour>
      <point x="734" y="360" type="line"/>
      <point x="716" y="318" type="line"/>
      <point x="864" y="318" type="line" smooth="yes"/>
      <point x="893" y="318"/>
      <point x="913" y="305"/>
      <point x="917" y="293" type="curve" smooth="yes"/>
      <point x="925" y="271" type="line" smooth="yes"/>
      <point x="929" y="259"/>
      <point x="936" y="252"/>
      <point x="946" y="252" type="curve" smooth="yes"/>
      <point x="961" y="252"/>
      <point x="969" y="263"/>
      <point x="973" y="277" type="curve" smooth="yes"/>
      <point x="1008" y="405" type="line" smooth="yes"/>
      <point x="1012" y="419"/>
      <point x="1009" y="431"/>
      <point x="995" y="431" type="curve" smooth="yes"/>
      <point x="979" y="431"/>
      <point x="968" y="421"/>
      <point x="953" y="402" type="curve" smooth="yes"/>
      <point x="937" y="382" type="line" smooth="yes"/>
      <point x="924" y="366"/>
      <point x="898" y="360"/>
      <point x="872" y="360" type="curve" smooth="yes"/>
    </contour>
    <contour>
      <point x="845" y="0" type="line" smooth="yes"/>
      <point x="878" y="0"/>
      <point x="896" y="-16"/>
      <point x="919" y="-16" type="curve" smooth="yes"/>
      <point x="977" y="-16"/>
      <point x="1027" y="53"/>
      <point x="1027" y="129" type="curve" smooth="yes"/>
      <point x="1027" y="149"/>
      <point x="1019" y="158"/>
      <point x="1005" y="158" type="curve" smooth="yes"/>
      <point x="990" y="158"/>
      <point x="983" y="149"/>
      <point x="971" y="132" type="curve" smooth="yes"/>
      <point x="952" y="104" type="line" smooth="yes"/>
      <point x="921" y="58"/>
      <point x="883" y="41"/>
      <point x="813" y="41" type="curve" smooth="yes"/>
      <point x="755" y="41" type="line" smooth="yes"/>
      <point x="710" y="41"/>
      <point x="692" y="67"/>
      <point x="700" y="105" type="curve" smooth="yes"/>
      <point x="732" y="260"/>
      <point x="775" y="444"/>
      <point x="843" y="654" type="curve"/>
      <point x="975" y="654" type="line" smooth="yes"/>
      <point x="1017" y="654"/>
      <point x="1048" y="637"/>
      <point x="1066" y="602" type="curve" smooth="yes"/>
      <point x="1084" y="568" type="line" smooth="yes"/>
      <point x="1094" y="548"/>
      <point x="1101" y="541"/>
      <point x="1116" y="541" type="curve" smooth="yes"/>
      <point x="1127" y="541"/>
      <point x="1139" y="552"/>
      <point x="1139" y="573" type="curve" smooth="yes"/>
      <point x="1137" y="702" type="line" smooth="yes"/>
      <point x="1137" y="720"/>
      <point x="1134" y="727"/>
      <point x="1118" y="727" type="curve" smooth="yes"/>
      <point x="1108" y="727"/>
      <point x="1098" y="722"/>
      <point x="1087" y="713" type="curve" smooth="yes"/>
      <point x="1078" y="705"/>
      <point x="1064" y="700"/>
      <point x="1054" y="700" type="curve" smooth="yes"/>
      <point x="687" y="700" type="line" smooth="yes"/>
      <point x="639" y="700"/>
      <point x="611" y="714"/>
      <point x="567" y="714" type="curve" smooth="yes"/>
      <point x="332" y="714"/>
      <point x="137" y="476"/>
      <point x="137" y="257" type="curve" smooth="yes"/>
      <point x="137" y="95"/>
      <point x="238" y="-15"/>
      <point x="395" y="-15" type="curve" smooth="yes"/>
      <point x="435" y="-15"/>
      <point x="483" y="0"/>
      <point x="503" y="0" type="curve" smooth="yes"/>
    </contour>
    <contour>
      <point x="415" y="38" type="curve" smooth="yes"/>
      <point x="315" y="38"/>
      <point x="251" y="118"/>
      <point x="251" y="237" type="curve" smooth="yes"/>
      <point x="251" y="463"/>
      <point x="407" y="665"/>
      <point x="545" y="665" type="curve" smooth="yes"/>
      <point x="660" y="665"/>
      <point x="705" y="641"/>
      <point x="707" y="576" type="curve" smooth="yes"/>
      <point x="707" y="563"/>
      <point x="706" y="549"/>
      <point x="703" y="533" type="curve" smooth="yes"/>
      <point x="680" y="401"/>
      <point x="640" y="268"/>
      <point x="599" y="148" type="curve" smooth="yes"/>
      <point x="568" y="57"/>
      <point x="513" y="38"/>
    </contour>
  </outline>
</glyph>
<glyph name="tbar" format="1">
  <advance width="330"/>
  <unicode hex="0167"/>
  <outline>
    <contour>
      <point x="82" y="263" type="curve" smooth="yes"/>
      <point x="82" y="250"/>
      <point x="89" y="242"/>
      <point x="102" y="242" type="curve" smooth="yes"/>
      <point x="355" y="242" type="line" smooth="yes"/>
      <point x="368" y="242"/>
      <point x="377" y="250"/>
      <point x="377" y="263" type="curve" smooth="yes"/>
      <point x="377" y="275"/>
      <point x="368" y="284"/>
      <point x="355" y="284" type="curve" smooth="yes"/>
      <point x="103" y="284" type="line" smooth="yes"/>
      <point x="91" y="284"/>
      <point x="82" y="275"/>
    </contour>
    <component base="t"/>
  </outline>
</glyph>
<glyph name="fhook" format="1">
  <advance width="372"/>
  <unicode hex="0192"/>
  <outline>
    <contour>
      <point x="125" y="-24" type="line" smooth="yes"/>
      <point x="108" y="-76"/>
      <point x="96" y="-105"/>
      <point x="96" y="-139" type="curve" smooth="yes"/>
      <point x="96" y="-160"/>
      <point x="86" y="-170"/>
      <point x="72" y="-170" type="curve" smooth="yes"/>
      <point x="42" y="-170"/>
      <point x="15" y="-123"/>
      <point x="-17" y="-123" type="curve" smooth="yes"/>
      <point x="-56" y="-123"/>
      <point x="-76" y="-148"/>
      <point x="-76" y="-178" type="curve" smooth="yes"/>
      <point x="-76" y="-212"/>
      <point x="-53" y="-242"/>
      <point x="-11" y="-242" type="curve" smooth="yes"/>
      <point x="75" y="-242"/>
      <point x="152" y="-176"/>
      <point x="200" y="-33" type="curve" smooth="yes"/>
      <point x="353" y="419" type="line"/>
      <point x="458" y="419" type="line" smooth="yes"/>
      <point x="479" y="419"/>
      <point x="494" y="433"/>
      <point x="497" y="443" type="curve" smooth="yes"/>
      <point x="501" y="459"/>
      <point x="494" y="465"/>
      <point x="479" y="465" type="curve" smooth="yes"/>
      <point x="372" y="465" type="line"/>
      <point x="387" y="514"/>
      <point x="393" y="528"/>
      <point x="403" y="563" type="curve" smooth="yes"/>
      <point x="418" y="615"/>
      <point x="428" y="636"/>
      <point x="428" y="653" type="curve" smooth="yes"/>
      <point x="428" y="674"/>
      <point x="440" y="684"/>
      <point x="458" y="684" type="curve" smooth="yes"/>
      <point x="480" y="684"/>
      <point x="501" y="635"/>
      <point x="526" y="635" type="curve" smooth="yes"/>
      <point x="565" y="635"/>
      <point x="585" y="660"/>
      <point x="585" y="690" type="curve" smooth="yes"/>
      <point x="585" y="724"/>
      <point x="562" y="754"/>
      <point x="520" y="754" type="curve" smooth="yes"/>
      <point x="437" y="754"/>
      <point x="365" y="686"/>
      <point x="317" y="545" type="curve" smooth="yes"/>
      <point x="281" y="438" type="line"/>
      <point x="306" y="465" type="line"/>
      <point x="174" y="465" type="line" smooth="yes"/>
      <point x="158" y="465"/>
      <point x="146" y="456"/>
      <point x="142" y="442" type="curve" smooth="yes"/>
      <point x="140" y="432"/>
      <point x="148" y="420"/>
      <point x="159" y="420" type="curve" smooth="yes"/>
      <point x="217" y="420" type="line" smooth="yes"/>
      <point x="252" y="420"/>
      <point x="264" y="400"/>
      <point x="254" y="370" type="curve" smooth="yes"/>
    </contour>
  </outline>
</glyph>
<glyph name="mu" format="1">
  <advance width="550"/>
  <unicode hex="03BC"/>
  <outline>
    <contour>
      <point x="144" y="135" type="line"/>
      <point x="96" y="-19"/>
      <point x="32" y="-130"/>
      <point x="14" y="-198" type="curve" smooth="yes"/>
      <point x="4" y="-233"/>
      <point x="19" y="-254"/>
      <point x="46" y="-254" type="curve" smooth="yes"/>
      <point x="70" y="-254"/>
      <point x="96" y="-230"/>
      <point x="105" y="-198" type="curve" smooth="yes"/>
      <point x="123" y="-129"/>
      <point x="129" y="-20"/>
      <point x="177" y="135" type="curve"/>
    </contour>
    <component base="u"/>
  </outline>
</glyph>
<glyph name="emdash" format="1">
  <advance width="946"/>
  <unicode hex="2014"/>
  <outline>
    <contour>
      <point x="947" y="269" type="curve" smooth="yes"/>
      <point x="157" y="269" type="line" smooth="yes"/>
      <point x="139" y="269"/>
      <point x="124" y="255"/>
      <point x="124" y="240" type="curve" smooth="yes"/>
      <point x="124" y="226"/>
      <point x="132" y="217"/>
      <point x="147" y="217" type="curve" smooth="yes"/>
      <point x="937" y="217" type="line"/>
      <point x="955" y="217"/>
      <point x="970" y="231"/>
      <point x="970" y="246" type="curve" smooth="yes"/>
      <point x="970" y="260"/>
      <point x="962" y="269"/>
    </contour>
  </outline>
</glyph>
<glyph name="daggerdbl" format="1">
  <advance width="463"/>
  <unicode hex="2021"/>
  <outline>
    <contour>
      <point x="367" y="503" type="curve" smooth="yes"/>
      <point x="429" y="503"/>
      <point x="436" y="466"/>
      <point x="481" y="466" type="curve" smooth="yes"/>
      <point x="520" y="466"/>
      <point x="545" y="492"/>
      <point x="552" y="518" type="curve" smooth="yes"/>
      <point x="558" y="541"/>
      <point x="546" y="563"/>
      <point x="511" y="564" type="curve" smooth="yes"/>
      <point x="466" y="565"/>
      <point x="438" y="527"/>
      <point x="373" y="527" type="curve" smooth="yes"/>
      <point x="310" y="527"/>
      <point x="303" y="565"/>
      <point x="257" y="565" type="curve" smooth="yes"/>
      <point x="218" y="565"/>
      <point x="196" y="544"/>
      <point x="189" y="519" type="curve" smooth="yes"/>
      <point x="181" y="489"/>
      <point x="195" y="469"/>
      <point x="232" y="468" type="curve" smooth="yes"/>
      <point x="278" y="467"/>
      <point x="304" y="503"/>
    </contour>
    <contour>
      <point x="353" y="293" type="curve" smooth="yes"/>
      <point x="375" y="377"/>
      <point x="362" y="435"/>
      <point x="382" y="513" type="curve" smooth="yes"/>
      <point x="405" y="596"/>
      <point x="449" y="626"/>
      <point x="459" y="664" type="curve" smooth="yes"/>
      <point x="467" y="695"/>
      <point x="450" y="715"/>
      <point x="422" y="715" type="curve" smooth="yes"/>
      <point x="391" y="715"/>
      <point x="365" y="697"/>
      <point x="355" y="662" type="curve" smooth="yes"/>
      <point x="346" y="626"/>
      <point x="377" y="595"/>
      <point x="355" y="513" type="curve" smooth="yes"/>
      <point x="335" y="438"/>
      <point x="288" y="376"/>
      <point x="266" y="294" type="curve" smooth="yes"/>
      <point x="255" y="255"/>
      <point x="268" y="234"/>
      <point x="293" y="234" type="curve" smooth="yes"/>
      <point x="321" y="234"/>
      <point x="342" y="255"/>
    </contour>
    <contour>
      <point x="223" y="-33" type="curve" smooth="yes"/>
      <point x="160" y="-33"/>
      <point x="154" y="3"/>
      <point x="108" y="2" type="curve" smooth="yes"/>
      <point x="69" y="1"/>
      <point x="45" y="-19"/>
      <point x="37" y="-49" type="curve" smooth="yes"/>
      <point x="30" y="-74"/>
      <point x="42" y="-95"/>
      <point x="81" y="-95" type="curve" smooth="yes"/>
      <point x="127" y="-95"/>
      <point x="154" y="-57"/>
      <point x="217" y="-57" type="curve" smooth="yes"/>
      <point x="282" y="-57"/>
      <point x="290" y="-95"/>
      <point x="335" y="-94" type="curve" smooth="yes"/>
      <point x="370" y="-93"/>
      <point x="394" y="-71"/>
      <point x="400" y="-48" type="curve" smooth="yes"/>
      <point x="407" y="-22"/>
      <point x="396" y="4"/>
      <point x="357" y="4" type="curve" smooth="yes"/>
      <point x="312" y="4"/>
      <point x="285" y="-33"/>
    </contour>
    <contour>
      <point x="321" y="177" type="curve" smooth="yes"/>
      <point x="332" y="215"/>
      <point x="321" y="235"/>
      <point x="293" y="235" type="curve" smooth="yes"/>
      <point x="268" y="235"/>
      <point x="245" y="215"/>
      <point x="234" y="176" type="curve" smooth="yes"/>
      <point x="212" y="94"/>
      <point x="227" y="32"/>
      <point x="206" y="-43" type="curve" smooth="yes"/>
      <point x="185" y="-125"/>
      <point x="136" y="-156"/>
      <point x="127" y="-192" type="curve" smooth="yes"/>
      <point x="117" y="-227"/>
      <point x="133" y="-245"/>
      <point x="164" y="-245" type="curve" smooth="yes"/>
      <point x="192" y="-245"/>
      <point x="221" y="-225"/>
      <point x="229" y="-194" type="curve" smooth="yes"/>
      <point x="239" y="-156"/>
      <point x="211" y="-126"/>
      <point x="233" y="-43" type="curve" smooth="yes"/>
      <point x="254" y="35"/>
      <point x="299" y="93"/>
    </contour>
  </outline>
</glyph>
<glyph name="guilsinglleft" format="1">
  <advance width="384"/>
  <unicode hex="2039"/>
  <outline>
    <contour>
      <point x="223" y="269" type="line"/>
      <point x="229" y="232" type="line"/>
      <point x="366" y="381" type="line" smooth="yes"/>
      <point x="381" y="397"/>
      <point x="390" y="412"/>
      <point x="389" y="426" type="curve" smooth="yes"/>
      <point x="388" y="434"/>
      <point x="383" y="439"/>
      <point x="374" y="438" type="curve" smooth="yes"/>
      <point x="365" y="437"/>
      <point x="356" y="431"/>
      <point x="341" y="419" type="curve" smooth="yes"/>
      <point x="198" y="298" type="line" smooth="yes"/>
      <point x="170" y="274"/>
      <point x="162" y="258"/>
      <point x="163" y="245" type="curve" smooth="yes"/>
      <point x="164" y="235"/>
      <point x="169" y="224"/>
      <point x="182" y="202" type="curve" smooth="yes"/>
      <point x="281" y="52" type="line" smooth="yes"/>
      <point x="288" y="40"/>
      <point x="297" y="33"/>
      <point x="308" y="35" type="curve" smooth="yes"/>
      <point x="316" y="35"/>
      <point x="322" y="42"/>
      <point x="321" y="53" type="curve" smooth="yes"/>
      <point x="321" y="63"/>
      <point x="316" y="74"/>
      <point x="307" y="93" type="curve" smooth="yes"/>
    </contour>
  </outline>
</glyph>
<glyph name="lira" format="2">
  <advance width="532"/>
  <unicode hex="20A4"/>
  <outline>
    <contour>
      <point x="168" y="361" type="curve" smooth="yes"/>
      <point x="164" y="348"/>
      <point x="169" y="340"/>
      <point x="182" y="340" type="curve" smooth="yes"/>
      <point x="444" y="340" type="line" smooth="yes"/>
      <point x="457" y="340"/>
      <point x="468" y="348"/>
      <point x="472" y="361" type="curve" smooth="yes"/>
      <point x="475" y="373"/>
      <point x="468" y="382"/>
      <point x="455" y="382" type="curve" smooth="yes"/>
      <point x="194" y="382" type="line" smooth="yes"/>
      <point x="182" y="382"/>
      <point x="171" y="373"/>
    </contour>
    <contour>
      <point x="140" y="257" type="curve" smooth="yes"/>
      <point x="136" y="244"/>
      <point x="141" y="236"/>
      <point x="154" y="236" type="curve" smooth="yes"/>
      <point x="416" y="236" type="line" smooth="yes"/>
      <point x="429" y="236"/>
      <point x="440" y="244"/>
      <point x="444" y="257" type="curve" smooth="yes"/>
      <point x="447" y="269"/>
      <point x="440" y="278"/>
      <point x="427" y="278" type="curve" smooth="yes"/>
      <point x="166" y="278" type="line" smooth="yes"/>
      <point x="154" y="278"/>
      <point x="143" y="269"/>
    </contour>
    <contour>
      <point x="142" y="42" type="curve"/>
      <point x="215" y="42"/>
      <point x="285" y="-15"/>
      <point x="367" y="-15" type="curve" smooth="yes"/>
      <point x="443" y="-15"/>
      <point x="503" y="19"/>
      <point x="521" y="86" type="curve" smooth="yes"/>
      <point x="531" y="125"/>
      <point x="511" y="150"/>
      <point x="476" y="150" type="curve" smooth="yes"/>
      <point x="448" y="150"/>
      <point x="424" y="132"/>
      <point x="418" y="107" type="curve" smooth="yes"/>
      <point x="411" y="81" type="line" smooth="yes"/>
      <point x="405" y="60"/>
      <point x="382" y="48"/>
      <point x="356" y="48" type="curve" smooth="yes"/>
      <point x="300" y="48"/>
      <point x="229" y="96"/>
      <point x="149" y="96" type="curve" smooth="yes"/>
      <point x="90" y="96"/>
      <point x="43" y="69"/>
      <point x="33" y="30" type="curve" smooth="yes"/>
      <point x="26" y="3"/>
      <point x="46" y="-15"/>
      <point x="85" y="-15" type="curve" smooth="yes"/>
      <point x="160" y="-15"/>
      <point x="265" y="45"/>
      <point x="302" y="183" type="curve" smooth="yes"/>
      <point x="327" y="278"/>
      <point x="316" y="378"/>
      <point x="346" y="488" type="curve" smooth="yes"/>
      <point x="370" y="580"/>
      <point x="406" y="604"/>
      <point x="444" y="604" type="curve" smooth="yes"/>
      <point x="481" y="604"/>
      <point x="507" y="585"/>
      <point x="496" y="546" type="curve" smooth="yes"/>
      <point x="492" y="531" type="line" smooth="yes"/>
      <point x="483" y="496"/>
      <point x="502" y="472"/>
      <point x="531" y="472" type="curve" smooth="yes"/>
      <point x="566" y="472"/>
      <point x="594" y="494"/>
      <point x="605" y="532" type="curve" smooth="yes"/>
      <point x="623" y="600"/>
      <point x="588" y="651"/>
      <point x="484" y="651" type="curve" smooth="yes"/>
      <point x="372" y="651"/>
      <point x="271" y="577"/>
      <point x="238" y="454" type="curve" smooth="yes"/>
      <point x="203" y="326"/>
      <point x="239" y="212"/>
      <point x="209" y="101" type="curve" smooth="yes"/>
      <point x="200" y="67"/>
      <point x="167" y="51"/>
    </contour>
  </outline>
</glyph>
<glyph name="kip" format="1">
  <advance width="638"/>
  <unicode hex="20AD"/>
  <outline>
    <contour>
      <point x="678" y="297" type="curve" smooth="yes"/>
      <point x="703" y="297"/>
      <point x="714" y="310"/>
      <point x="714" y="324" type="curve" smooth="yes"/>
      <point x="714" y="343"/>
      <point x="702" y="356"/>
      <point x="678" y="357" type="curve" smooth="yes"/>
      <point x="646" y="358"/>
      <point x="607" y="342"/>
      <point x="409" y="342" type="curve" smooth="yes"/>
      <point x="402" y="342"/>
      <point x="395" y="342"/>
      <point x="388" y="342" type="curve"/>
      <point x="349" y="305" type="line"/>
      <point x="367" y="305"/>
      <point x="387" y="305"/>
      <point x="409" y="305" type="curve" smooth="yes"/>
      <point x="606" y="305"/>
      <point x="646" y="297"/>
    </contour>
    <contour>
      <point x="288" y="344" type="line"/>
      <point x="204" y="348"/>
      <point x="180" y="354"/>
      <point x="156" y="354" type="curve" smooth="yes"/>
      <point x="132" y="354"/>
      <point x="120" y="337"/>
      <point x="120" y="320" type="curve" smooth="yes"/>
      <point x="120" y="306"/>
      <point x="131" y="293"/>
      <point x="154" y="293" type="curve" smooth="yes"/>
      <point x="174" y="293"/>
      <point x="198" y="299"/>
      <point x="275" y="302" type="curve"/>
    </contour>
    <component base="K" xScale="0.909" yScale="0.909" xOffset="4"/>
    <component base="K" xScale="0.909" yScale="0.909" xOffset="4"/>
  </outline>
</glyph>
<glyph name="peso" format="1">
  <advance width="619"/>
  <unicode hex="20B1"/>
  <outline>
    <contour>
      <point x="681" y="345" type="curve" smooth="yes"/>
      <point x="706" y="345"/>
      <point x="717" y="358"/>
      <point x="717" y="372" type="curve" smooth="yes"/>
      <point x="717" y="391"/>
      <point x="705" y="404"/>
      <point x="681" y="405" type="curve" smooth="yes"/>
      <point x="649" y="406"/>
      <point x="610" y="390"/>
      <point x="412" y="390" type="curve" smooth="yes"/>
      <point x="225" y="390"/>
      <point x="191" y="402"/>
      <point x="159" y="402" type="curve" smooth="yes"/>
      <point x="135" y="402"/>
      <point x="123" y="385"/>
      <point x="123" y="368" type="curve" smooth="yes"/>
      <point x="123" y="354"/>
      <point x="134" y="341"/>
      <point x="157" y="341" type="curve" smooth="yes"/>
      <point x="185" y="341"/>
      <point x="222" y="353"/>
      <point x="412" y="353" type="curve" smooth="yes"/>
      <point x="609" y="353"/>
      <point x="649" y="345"/>
    </contour>
    <contour>
      <point x="714" y="446" type="curve" smooth="yes"/>
      <point x="739" y="446"/>
      <point x="750" y="459"/>
      <point x="750" y="473" type="curve" smooth="yes"/>
      <point x="750" y="492"/>
      <point x="738" y="505"/>
      <point x="714" y="506" type="curve" smooth="yes"/>
      <point x="682" y="507"/>
      <point x="643" y="491"/>
      <point x="445" y="491" type="curve" smooth="yes"/>
      <point x="258" y="491"/>
      <point x="224" y="503"/>
      <point x="192" y="503" type="curve" smooth="yes"/>
      <point x="168" y="503"/>
      <point x="156" y="486"/>
      <point x="156" y="469" type="curve" smooth="yes"/>
      <point x="156" y="455"/>
      <point x="167" y="442"/>
      <point x="190" y="442" type="curve" smooth="yes"/>
      <point x="218" y="442"/>
      <point x="255" y="454"/>
      <point x="445" y="454" type="curve" smooth="yes"/>
      <point x="642" y="454"/>
      <point x="682" y="446"/>
    </contour>
    <component base="P" xScale="0.909" yScale="0.909" xOffset="4"/>
    <component base="P" xScale="0.909" yScale="0.909" xOffset="4"/>
  </outline>
</glyph>
<glyph name="cedi" format="2">
  <advance width="561"/>
  <unicode hex="20B5"/>
  <outline>
    <contour>
      <point x="286" y="-34" type="curve" smooth="yes"/>
      <point x="279" y="-59"/>
      <point x="289" y="-70"/>
      <point x="303" y="-70" type="curve" smooth="yes"/>
      <point x="322" y="-70"/>
      <point x="338" y="-58"/>
      <point x="346" y="-34" type="curve" smooth="yes"/>
      <point x="359" y="10"/>
      <point x="360" y="63"/>
      <point x="433" y="335" type="curve" smooth="yes"/>
      <point x="499" y="581"/>
      <point x="520" y="626"/>
      <point x="531" y="668" type="curve" smooth="yes"/>
      <point x="537" y="692"/>
      <point x="526" y="704"/>
      <point x="511" y="704" type="curve" smooth="yes"/>
      <point x="495" y="704"/>
      <point x="477" y="693"/>
      <point x="471" y="670" type="curve" smooth="yes"/>
      <point x="461" y="633"/>
      <point x="457" y="585"/>
      <point x="390" y="335" type="curve" smooth="yes"/>
      <point x="317" y="65"/>
      <point x="298" y="10"/>
    </contour>
    <component base="C" xScale="0.873094454912691" yScale="0.873094454912691" xOffset="1" yOffset="13"/>
    <component base="C" xScale="0.873094454912691" yScale="0.873094454912691" xOffset="1" yOffset="13"/>
  </outline>
</glyph>
<glyph name="notequal" format="1">
  <advance width="478"/>
  <unicode hex="2260"/>
  <outline>
    <contour>
      <point x="423" y="499" type="curve" smooth="yes"/>
      <point x="168" y="137" type="line" smooth="yes"/>
      <point x="152" y="114"/>
      <point x="155" y="98"/>
      <point x="174" y="97" type="curve" smooth="yes"/>
      <point x="194" y="96"/>
      <point x="209" y="112"/>
      <point x="221" y="129" type="curve" smooth="yes"/>
      <point x="473" y="486" type="line" smooth="yes"/>
      <point x="494" y="515"/>
      <point x="487" y="531"/>
      <point x="467" y="531" type="curve" smooth="yes"/>
      <point x="449" y="531"/>
      <point x="434" y="515"/>
    </contour>
    <component base="equal"/>
    <component base="equal"/>
  </outline>
</glyph>
<glyph name="bracketangleleft" format="1">
  <advance width="395"/>
  <unicode hex="27E8"/>
  <outline>
    <contour>
      <point x="244" y="334" type="line"/>
      <point x="237" y="285" type="line"/>
      <point x="563" y="694" type="line" smooth="yes"/>
      <point x="573" y="706"/>
      <point x="580" y="722"/>
      <point x="580" y="732" type="curve" smooth="yes"/>
      <point x="580" y="742"/>
      <point x="575" y="748"/>
      <point x="566" y="748" type="curve" smooth="yes"/>
      <point x="558" y="748"/>
      <point x="549" y="743"/>
      <point x="540" y="733" type="curve" smooth="yes"/>
      <point x="197" y="354" type="line" smooth="yes"/>
      <point x="180" y="336"/>
      <point x="172" y="320"/>
      <point x="172" y="302" type="curve" smooth="yes"/>
      <point x="172" y="293"/>
      <point x="174" y="284"/>
      <point x="177" y="273" type="curve" smooth="yes"/>
      <point x="301" y="-159" type="line" smooth="yes"/>
      <point x="304" y="-169"/>
      <point x="311" y="-174"/>
      <point x="319" y="-174" type="curve" smooth="yes"/>
      <point x="328" y="-174"/>
      <point x="336" y="-165"/>
      <point x="339" y="-155" type="curve" smooth="yes"/>
      <point x="341" y="-147"/>
      <point x="339" y="-134"/>
      <point x="338" y="-127" type="curve" smooth="yes"/>
    </contour>
  </outline>
</glyph>
<glyph name="fi" format="1">
  <advance width="530"/>
  <unicode hex="FB01"/>
  <outline>
    <contour>
      <point x="129" y="441" type="curve" smooth="yes"/>
      <point x="129" y="431"/>
      <point x="137" y="421"/>
      <point x="157" y="414" type="curve" smooth="yes"/>
      <point x="187" y="403"/>
      <point x="198" y="375"/>
      <point x="188" y="343" type="curve" smooth="yes"/>
      <point x="51" y="-101" type="line" smooth="yes"/>
      <point x="41" y="-133"/>
      <point x="37" y="-156"/>
      <point x="38" y="-187" type="curve" smooth="yes"/>
      <point x="40" y="-215"/>
      <point x="57" y="-230"/>
      <point x="87" y="-230" type="curve" smooth="yes"/>
      <point x="119" y="-230"/>
      <point x="151" y="-203"/>
      <point x="151" y="-168" type="curve" smooth="yes"/>
      <point x="151" y="-131"/>
      <point x="139" y="-126"/>
      <point x="139" y="-93" type="curve" smooth="yes"/>
      <point x="139" y="-81"/>
      <point x="140" y="-65"/>
      <point x="146" y="-43" type="curve" smooth="yes"/>
      <point x="307" y="524" type="line" smooth="yes"/>
      <point x="318" y="564"/>
      <point x="312" y="594"/>
      <point x="312" y="622" type="curve" smooth="yes"/>
      <point x="312" y="636"/>
      <point x="318" y="643"/>
      <point x="326" y="643" type="curve" smooth="yes"/>
      <point x="354" y="643"/>
      <point x="378" y="599"/>
      <point x="409" y="599" type="curve" smooth="yes"/>
      <point x="441" y="599"/>
      <point x="458" y="624"/>
      <point x="458" y="654" type="curve" smooth="yes"/>
      <point x="458" y="688"/>
      <point x="435" y="718"/>
      <point x="393" y="718" type="curve" smooth="yes"/>
      <point x="313" y="718"/>
      <point x="253" y="617"/>
      <point x="225" y="508" type="curve" smooth="yes"/>
      <point x="214" y="465" type="line"/>
      <point x="159" y="465" type="line" smooth="yes"/>
      <point x="141" y="465"/>
      <point x="129" y="455"/>
    </contour>
    <contour>
      <point x="592" y="562" type="curve" smooth="yes"/>
      <point x="629" y="562"/>
      <point x="667" y="605"/>
      <point x="667" y="654" type="curve" smooth="yes"/>
      <point x="667" y="690"/>
      <point x="645" y="715"/>
      <point x="617" y="715" type="curve" smooth="yes"/>
      <point x="578" y="715"/>
      <point x="541" y="669"/>
      <point x="541" y="624" type="curve" smooth="yes"/>
      <point x="541" y="588"/>
      <point x="563" y="562"/>
    </contour>
    <contour>
      <point x="435" y="465" type="curve" smooth="yes"/>
      <point x="261" y="465" type="line"/>
      <point x="255" y="418" type="line"/>
      <point x="421" y="418" type="line" smooth="yes"/>
      <point x="449" y="418"/>
      <point x="463" y="408"/>
      <point x="463" y="385" type="curve" smooth="yes"/>
      <point x="463" y="362"/>
      <point x="458" y="340"/>
      <point x="448" y="317" type="curve" smooth="yes"/>
      <point x="382" y="166" type="line" smooth="yes"/>
      <point x="362" y="121"/>
      <point x="344" y="84"/>
      <point x="346" y="40" type="curve" smooth="yes"/>
      <point x="348" y="9"/>
      <point x="369" y="-15"/>
      <point x="413" y="-15" type="curve" smooth="yes"/>
      <point x="477" y="-15"/>
      <point x="551" y="49"/>
      <point x="549" y="85" type="curve" smooth="yes"/>
      <point x="548" y="99"/>
      <point x="541" y="105"/>
      <point x="531" y="105" type="curve" smooth="yes"/>
      <point x="523" y="105"/>
      <point x="519" y="99"/>
      <point x="510" y="88" type="curve" smooth="yes"/>
      <point x="498" y="75"/>
      <point x="481" y="63"/>
      <point x="464" y="63" type="curve" smooth="yes"/>
      <point x="454" y="63"/>
      <point x="442" y="71"/>
      <point x="441" y="90" type="curve" smooth="yes"/>
      <point x="440" y="108"/>
      <point x="443" y="140"/>
      <point x="462" y="181" type="curve" smooth="yes"/>
      <point x="516" y="299" type="line" smooth="yes"/>
      <point x="541" y="354"/>
      <point x="558" y="396"/>
      <point x="556" y="436" type="curve" smooth="yes"/>
      <point x="555" y="462"/>
      <point x="539" y="480"/>
      <point x="507" y="480" type="curve" smooth="yes"/>
      <point x="479" y="480"/>
      <point x="467" y="465"/>
    </contour>
  </outline>
</glyph>
<glyph name="acutecomb" format="1">
  <outline>
    <contour>
      <point x="242" y="557" type="curve" smooth="yes"/>
      <point x="322" y="645" type="line" smooth="yes"/>
      <point x="334" y="658"/>
      <point x="349" y="669"/>
      <point x="370" y="669" type="curve" smooth="yes"/>
      <point x="399" y="669" type="line" smooth="yes"/>
      <point x="416" y="669"/>
      <point x="424" y="662"/>
      <point x="424" y="650" type="curve" smooth="yes"/>
      <point x="424" y="638"/>
      <point x="415" y="631"/>
      <point x="397" y="617" type="curve" smooth="yes"/>
      <point x="288" y="532" type="line" smooth="yes"/>
      <point x="272" y="520"/>
      <point x="257" y="515"/>
      <point x="247" y="515" type="curve" smooth="yes"/>
      <point x="235" y="515"/>
      <point x="229" y="520"/>
      <point x="229" y="531" type="curve" smooth="yes"/>
      <point x="229" y="540"/>
      <point x="236" y="551"/>
    </contour>
    <contour>
      <point x="234" y="489" type="move" name="center"/>
    </contour>
  </outline>
</glyph>
<glyph name="brevecomb.case" format="1">
  <outline>
    <contour>
      <point x="366" y="715" type="curve" smooth="yes"/>
      <point x="451" y="715"/>
      <point x="513" y="757"/>
      <point x="542" y="826" type="curve" smooth="yes"/>
      <point x="547" y="838"/>
      <point x="545" y="845"/>
      <point x="534" y="845" type="curve" smooth="yes"/>
      <point x="528" y="845"/>
      <point x="520" y="840"/>
      <point x="512" y="833" type="curve" smooth="yes"/>
      <point x="480" y="803"/>
      <point x="436" y="787"/>
      <point x="379" y="787" type="curve" smooth="yes"/>
      <point x="318" y="787"/>
      <point x="293" y="801"/>
      <point x="285" y="830" type="curve" smooth="yes"/>
      <point x="282" y="840"/>
      <point x="279" y="844"/>
      <point x="270" y="844" type="curve" smooth="yes"/>
      <point x="260" y="844"/>
      <point x="251" y="831"/>
      <point x="251" y="808" type="curve" smooth="yes"/>
      <point x="251" y="751"/>
      <point x="288" y="715"/>
    </contour>
  </outline>
</glyph>
<glyph name="brevecomb" format="1">
  <outline>
    <contour>
      <point x="338" y="521" type="curve" smooth="yes"/>
      <point x="409" y="521"/>
      <point x="485" y="582"/>
      <point x="505" y="649" type="curve" smooth="yes"/>
      <point x="508" y="658"/>
      <point x="502" y="665"/>
      <point x="492" y="665" type="curve" smooth="yes"/>
      <point x="486" y="665"/>
      <point x="477" y="660"/>
      <point x="471" y="652" type="curve" smooth="yes"/>
      <point x="443" y="618"/>
      <point x="409" y="599"/>
      <point x="354" y="599" type="curve" smooth="yes"/>
      <point x="298" y="599"/>
      <point x="261" y="617"/>
      <point x="255" y="652" type="curve" smooth="yes"/>
      <point x="253" y="661"/>
      <point x="247" y="664"/>
      <point x="240" y="664" type="curve" smooth="yes"/>
      <point x="232" y="664"/>
      <point x="227" y="654"/>
      <point x="227" y="641" type="curve" smooth="yes"/>
      <point x="227" y="572"/>
      <point x="266" y="521"/>
    </contour>
  </outline>
</glyph>
<glyph name="cedillacomb.case" format="1">
  <outline>
    <component base="cedillacomb"/>
    <contour>
      <point x="192" y="31" type="move" name="center"/>
    </contour>
  </outline>
</glyph>
<glyph name="cedillacomb" format="1">
  <outline>
    <contour>
      <point x="197" y="8" type="line"/>
      <point x="130" y="-95" type="line" smooth="yes"/>
      <point x="124" y="-104"/>
      <point x="133" y="-111"/>
      <point x="141" y="-111" type="curve" smooth="yes"/>
      <point x="148" y="-111"/>
      <point x="156" y="-106"/>
      <point x="168" y="-106" type="curve" smooth="yes"/>
      <point x="193" y="-106"/>
      <point x="203" y="-122"/>
      <point x="194" y="-157" type="curve" smooth="yes"/>
      <point x="185" y="-190"/>
      <point x="162" y="-208"/>
      <point x="136" y="-208" type="curve" smooth="yes"/>
      <point x="115" y="-208"/>
      <point x="105" y="-202"/>
      <point x="107" y="-194" type="curve" smooth="yes"/>
      <point x="109" y="-187" type="line" smooth="yes"/>
      <point x="116" y="-159"/>
      <point x="106" y="-141"/>
      <point x="87" y="-141" type="curve" smooth="yes"/>
      <point x="69" y="-141"/>
      <point x="49" y="-156"/>
      <point x="44" y="-176" type="curve" smooth="yes"/>
      <point x="33" y="-216"/>
      <point x="66" y="-245"/>
      <point x="116" y="-245" type="curve" smooth="yes"/>
      <point x="182" y="-245"/>
      <point x="241" y="-210"/>
      <point x="255" y="-157" type="curve" smooth="yes"/>
      <point x="268" y="-107"/>
      <point x="240" y="-79"/>
      <point x="187" y="-79" type="curve" smooth="yes"/>
      <point x="171" y="-79"/>
      <point x="158" y="-81"/>
      <point x="146" y="-95" type="curve"/>
      <point x="174" y="-90" type="line"/>
      <point x="240" y="9" type="line"/>
    </contour>
    <contour>
      <point x="146" y="28" type="move" name="center"/>
    </contour>
  </outline>
</glyph>
<glyph name="dotaccentcomb" format="1">
  <outline>
    <contour>
      <point x="251" y="527" type="curve" smooth="yes"/>
      <point x="286" y="527"/>
      <point x="321" y="555"/>
      <point x="330" y="589" type="curve" smooth="yes"/>
      <point x="339" y="623"/>
      <point x="319" y="650"/>
      <point x="284" y="650" type="curve" smooth="yes"/>
      <point x="250" y="650"/>
      <point x="216" y="623"/>
      <point x="207" y="589" type="curve" smooth="yes"/>
      <point x="198" y="555"/>
      <point x="217" y="527"/>
    </contour>
  </outline>
</glyph>
<glyph name="gravecomb" format="1">
  <outline>
    <contour>
      <point x="294" y="555" type="curve" smooth="yes"/>
      <point x="238" y="643" type="line" smooth="yes"/>
      <point x="229" y="657"/>
      <point x="214" y="667"/>
      <point x="196" y="667" type="curve" smooth="yes"/>
      <point x="158" y="667" type="line" smooth="yes"/>
      <point x="141" y="667"/>
      <point x="133" y="660"/>
      <point x="133" y="648" type="curve" smooth="yes"/>
      <point x="133" y="636"/>
      <point x="143" y="630"/>
      <point x="160" y="615" type="curve" smooth="yes"/>
      <point x="248" y="537" type="line" smooth="yes"/>
      <point x="267" y="521"/>
      <point x="279" y="513"/>
      <point x="289" y="513" type="curve" smooth="yes"/>
      <point x="301" y="513"/>
      <point x="307" y="518"/>
      <point x="307" y="529" type="curve" smooth="yes"/>
      <point x="307" y="538"/>
      <point x="299" y="548"/>
    </contour>
    <contour>
      <point x="281" y="480" type="move" name="center"/>
    </contour>
  </outline>
</glyph>
<glyph name="horncomb" format="1">
  <outline>
    <contour>
      <point x="266" y="492" type="curve" smooth="yes"/>
      <point x="279" y="487" type="line" smooth="yes"/>
      <point x="289" y="485"/>
      <point x="291" y="479"/>
      <point x="289" y="471" type="curve" smooth="yes"/>
      <point x="281" y="441"/>
      <point x="255" y="419"/>
      <point x="191" y="388" type="curve" smooth="yes"/>
      <point x="178" y="382"/>
      <point x="173" y="377"/>
      <point x="171" y="370" type="curve" smooth="yes"/>
      <point x="169" y="363"/>
      <point x="173" y="356"/>
      <point x="183" y="356" type="curve" smooth="yes"/>
      <point x="227" y="356"/>
      <point x="330" y="414"/>
      <point x="357" y="514" type="curve" smooth="yes"/>
      <point x="370" y="562"/>
      <point x="342" y="589"/>
      <point x="309" y="589" type="curve" smooth="yes"/>
      <point x="280" y="589"/>
      <point x="251" y="565"/>
      <point x="244" y="539" type="curve" smooth="yes"/>
      <point x="238" y="516"/>
      <point x="245" y="498"/>
    </contour>
  </outline>
</glyph>
